SplineFontDB: 3.2
FontName: FanGlyph
FullName: FanGlyph
FamilyName: FanGlyph
Weight: Book
Copyright: 
Version: 1
ItalicAngle: 0
UnderlinePosition: -1640
UnderlineWidth: 420
Ascent: 3276
Descent: 820
InvalidEm: 0
sfntRevision: 0x00010000
LayerCount: 2
Layer: 0 1 "Back" 1
Layer: 1 1 "Fore" 0
XUID: [1021 991 -1287261736 27607]
StyleMap: 0x0000
FSType: 14
OS2Version: 0
OS2_WeightWidthSlopeOnly: 0
OS2_UseTypoMetrics: 0
CreationTime: 1054224800
ModificationTime: 1652747763
PfmFamily: 81
TTFWeight: 400
TTFWidth: 5
LineGap: 0
VLineGap: 0
Panose: 0 0 4 0 0 0 0 0 0 0
OS2TypoAscent: 3384
OS2TypoAOffset: 0
OS2TypoDescent: -1344
OS2TypoDOffset: 0
OS2TypoLinegap: 0
OS2WinAscent: 3384
OS2WinAOffset: 0
OS2WinDescent: 1344
OS2WinDOffset: 0
HheadAscent: 3384
HheadAOffset: 0
HheadDescent: -1344
HheadDOffset: 0
OS2SubXSize: 2868
OS2SubYSize: 2664
OS2SubXOff: 0
OS2SubYOff: 584
OS2SupXSize: 2868
OS2SupYSize: 2664
OS2SupXOff: 0
OS2SupYOff: 1856
OS2StrikeYSize: 204
OS2StrikeYPos: 1060
OS2Vendor: 'NONE'
OS2UnicodeRanges: 00000003.00000000.00000000.00000000
Lookup: 4 0 0 "'hlig' Egyptian Gods" { "'hlig' Egyptian Gods-Latin"  } ['hlig' ('DFLT' <'dflt' > 'armi' <'dflt' > 'grek' <'dflt' > 'latn' <'dflt' > 'phnx' <'dflt' > ) ]
Lookup: 1 0 0 "'ss01' BoPoMoFo" { "'ss01' BoPoMoFo-Latin" ("bpmf") } ['ss01' ('DFLT' <'dflt' > 'armi' <'dflt' > 'grek' <'dflt' > 'latn' <'dflt' > 'phnx' <'dflt' > ) ]
Lookup: 1 0 0 "'ss02' Egyptian Transliteration" { "'ss02' Egyptian Transliteration-Latin" ("tran") } ['ss02' ('DFLT' <'dflt' > 'armi' <'dflt' > 'grek' <'dflt' > 'latn' <'dflt' > 'phnx' <'dflt' > ) ]
Lookup: 1 0 0 "'ss03' Egyptian Hieratic" { "'ss03' Egyptian Hieratic-Latin" ("hier") } ['ss03' ('DFLT' <'dflt' > 'armi' <'dflt' > 'grek' <'dflt' > 'latn' <'dflt' > 'phnx' <'dflt' > ) ]
MarkAttachClasses: 1
DEI: 91125
TtTable: prep
PUSHW_4
 0
 5
 2
 0
CALL
CALL
PUSHW_6
 3
 73
 57
 41
 24
 8
CALL
PUSHW_6
 4
 73
 57
 41
 24
 8
CALL
PUSHW_6
 0
 205
 160
 114
 69
 8
CALL
PUSHW_6
 1
 150
 117
 74
 44
 8
CALL
PUSHW_6
 2

StartChar: exclam
Encoding: 33 33 1
Width: 1712
Flags: W
LayerCount: 2
Fore
SplineSet
1352 2867 m 1,0,-1
 1065 1274 l 1,1,-1
 721 1278 l 1,2,-1
 385 2867 l 1,3,4
 422 3064 422 3064 569 3170 c 0,5,6
 700 3268 700 3268 877 3269 c 0,7,8
 1065 3269 1065 3269 1204.5 3160 c 128,-1,9
 1344 3051 1344 3051 1352 2867 c 1,0,-1
1339 385 m 256,10,11
 1339 184 1339 184 1204 47 c 128,-1,12
 1069 -90 1069 -90 868 -90 c 0,13,14
 671 -90 671 -90 534 51.5 c 128,-1,15
 397 193 397 193 397 385 c 0,16,17
 397 582 397 582 536.5 721 c 128,-1,18
 676 860 676 860 868 860 c 0,19,20
 1069 860 1069 860 1204 723 c 128,-1,21
 1339 586 1339 586 1339 385 c 256,10,11
EndSplineSet
Validated: 1
EndChar

StartChar: quotedbl
Encoding: 34 34 2
Width: 2207
Flags: W
LayerCount: 2
Fore
SplineSet
1761 3002 m 0,0,1
 1761 2883 1761 2883 1737 2695 c 2,2,-1
 1683 2273 l 2,3,4
 1658 2089 1658 2089 1487 2089 c 256,5,6
 1315 2089 1315 2089 1290 2273 c 2,7,-1
 1237 2695 l 2,8,9
 1212 2883 1212 2883 1212 3002 c 0,10,11
 1212 3235 1212 3235 1487 3236 c 256,12,13
 1761 3235 1761 3235 1761 3002 c 0,0,1
950 3002 m 0,14,15
 950 2904 950 2904 926 2695 c 2,16,-1
 872 2273 l 2,17,18
 852 2089 852 2089 676 2089 c 256,19,20
 500 2089 500 2089 479 2273 c 2,21,-1
 426 2695 l 2,22,23
 401 2904 401 2904 401 3002 c 0,24,25
 401 3235 401 3235 676 3236 c 256,26,27
 950 3235 950 3235 950 3002 c 0,14,15
EndSplineSet
Validated: 1
EndChar

StartChar: numbersign
Encoding: 35 35 3
Width: 2207
Flags: W
LayerCount: 2
Fore
SplineSet
2126 1540 m 1,0,-1
 1733 1540 l 1,1,-1
 1663 1085 l 1,2,-1
 2007 1085 l 1,3,-1
 2007 737 l 1,4,-1
 1614 737 l 1,5,-1
 1503 0 l 1,6,-1
 1094 0 l 1,7,-1
 1204 737 l 1,8,-1
 840 737 l 1,9,-1
 729 0 l 1,10,-1
 319 0 l 1,11,-1
 430 737 l 1,12,-1
 86 737 l 1,13,-1
 86 1085 l 1,14,-1
 479 1085 l 1,15,-1
 549 1540 l 1,16,-1
 205 1540 l 1,17,-1
 205 1888 l 1,18,-1
 598 1888 l 1,19,-1
 709 2621 l 1,20,-1
 1118 2621 l 1,21,-1
 1008 1888 l 1,22,-1
 1372 1888 l 1,23,-1
 1483 2621 l 1,24,-1
 1892 2621 l 1,25,-1
 1782 1888 l 1,26,-1
 2126 1888 l 1,27,-1
 2126 1540 l 1,0,-1
1323 1540 m 1,28,-1
 958 1540 l 1,29,-1
 889 1085 l 1,30,-1
 1253 1085 l 1,31,-1
 1323 1540 l 1,28,-1
EndSplineSet
Validated: 1
EndChar

StartChar: dollar
Encoding: 36 36 4
Width: 2277
Flags: W
LayerCount: 2
Fore
SplineSet
1311 3133 m 1,0,-1
 1311 2879 l 1,1,2
 1606 2850 1606 2850 1810 2699 c 0,3,4
 2043 2523 2043 2523 2044 2241 c 0,5,6
 2044 2102 2044 2102 1970 2007 c 0,7,8
 1888 1901 1888 1901 1753 1901 c 0,9,10
 1638 1901 1638 1901 1558.5 1978.5 c 128,-1,11
 1479 2056 1479 2056 1479 2171 c 0,12,13
 1479 2269 1479 2269 1579 2363.5 c 128,-1,14
 1679 2458 1679 2458 1656.5 2478.5 c 128,-1,15
 1634 2499 1634 2499 1561 2540 c 0,16,17
 1463 2601 1463 2601 1311 2617 c 1,18,-1
 1311 1647 l 1,19,20
 2134 1340 2134 1340 2134 696 c 0,21,22
 2134 340 2134 340 1892 123 c 0,23,24
 1675 -74 1675 -74 1311 -115 c 1,25,-1
 1311 -618 l 1,26,-1
 1020 -618 l 1,27,-1
 1020 -119 l 1,28,29
 701 -103 701 -103 483 53 c 0,30,31
 229.000000001 233 229.000000001 233 229 537 c 0,32,33
 229 689 229 689 311 801 c 128,-1,34
 393 913 393 913 537 913 c 0,35,36
 668 913 668 913 745.5 825 c 128,-1,37
 823 737 823 737 823 606 c 0,38,39
 823 512 823 512 758 446 c 0,40,41
 717 405 717 405 645 372.5 c 128,-1,42
 573 340 573 340 573 332 c 1,43,44
 602 299 602 299 705 225 c 1,45,46
 824 155 824 155 1020 143 c 1,47,-1
 1020 1180 l 1,48,49
 258 1438 258 1438 258 2064 c 0,50,51
 258 2400 258 2400 475 2626 c 0,52,53
 680 2843 680 2843 1020 2879 c 1,54,-1
 1020 3138 l 1,55,-1
 1311 3133 l 1,0,-1
1020 2613 m 1,56,57
 840 2588 840 2588 729 2486 c 0,58,59
 606 2371 606 2371 606 2200 c 0,60,61
 606 1926 606 1926 1020 1757 c 1,62,-1
 1020 2613 l 1,56,57
1311 152 m 1,63,64
 1504 181 1504 181 1632.5 293.5 c 128,-1,65
 1761 406 1761 406 1761 594 c 0,66,67
 1761 893 1761 893 1311 1069 c 1,68,-1
 1311 152 l 1,63,64
EndSplineSet
Validated: 33
EndChar

StartChar: percent
Encoding: 37 37 5
Width: 3563
Flags: W
LayerCount: 2
Fore
SplineSet
1446 2081 m 0,0,1
 1446 1753 1446 1753 1286 1536 c 0,2,3
 1110 1294 1110 1294 795 1294 c 256,4,5
 480 1294 480 1294 303 1544 c 0,6,7
 147 1761 147 1761 147 2089 c 0,8,9
 147 2408 147 2408 307 2634 c 0,10,11
 487 2888 487 2888 791 2888 c 0,12,13
 1115 2888 1115 2888 1290 2638 c 0,14,15
 1446 2417 1446 2417 1446 2081 c 0,0,1
573 2097 m 0,16,17
 573 1507 573 1507 795 1507 c 0,18,19
 1024 1507 1024 1507 1024 2068 c 0,20,21
 1024 2670 1024 2670 799 2671 c 256,22,23
 573 2670 573 2670 573 2097 c 0,16,17
3203 3236 m 1,24,-1
 664 -217 l 1,25,-1
 307 -217 l 1,26,-1
 2839 3236 l 1,27,-1
 3203 3236 l 1,24,-1
3256 668 m 0,28,29
 3256 340 3256 340 3097 127 c 1,30,31
 2921 -119 2921 -119 2605 -119 c 256,32,33
 2290 -119 2290 -119 2114 131 c 0,34,35
 1958 352 1958 352 1958 680 c 0,36,37
 1958 999 1958 999 2118 1221 c 0,38,39
 2298 1475 2298 1475 2601 1475 c 0,40,41
 2925 1475 2925 1475 3101 1225 c 0,42,43
 3256 1004.00000001 3256 1004.00000001 3256 668 c 0,28,29
2380 684 m 0,44,45
 2380 97.9999999995 2380 97.9999999995 2605 98 c 0,46,47
 2834 98 2834 98 2834 659 c 0,48,49
 2834 1257 2834 1257 2609 1257 c 0,50,51
 2380 1257 2380 1257 2380 684 c 0,44,45
EndSplineSet
Validated: 33
EndChar

StartChar: ampersand
Encoding: 38 38 6
Width: 3170
Flags: W
LayerCount: 2
Fore
SplineSet
2187 1315 m 0,0,1
 2187 1385 2187 1385 2068 1384 c 0,2,3
 2011 1384 2011 1384 1933 1372 c 1,4,-1
 1933 1675 l 1,5,-1
 2916 1671 l 1,6,-1
 2916 1372 l 1,7,8
 2916 1372 2916 1372 2748 1372 c 2,9,10
 2666 1372 2666 1372 2629.5 1345.5 c 128,-1,11
 2593 1319 2593 1319 2552 1233 c 0,12,13
 2544 1217 2544 1217 2392 897 c 0,14,15
 2298 696 2298 696 2212 573 c 1,16,17
 2388 413 2388 413 2507 414 c 0,18,19
 2613 414 2613 414 2613 471 c 2,20,21
 2613 471 2613 471 2613 496 c 1,22,-1
 2617 512 l 1,23,24
 2625 565 2625 565 2478 705 c 1,25,-1
 2769 782 l 1,26,27
 2945 647 2945 647 2945 406 c 0,28,29
 2945 -86 2945 -86 2392 -86 c 0,30,31
 2126 -86 2126 -86 1827 176 c 1,32,33
 1475 -86 1475 -86 1106 -86 c 0,34,35
 733 -86 733 -86 477 155.5 c 128,-1,36
 221 397 221 397 221 770 c 0,37,38
 221 1298 221 1298 840 1642 c 1,39,40
 701 1953 701 1953 700 2187 c 0,41,42
 700 2490 700 2490 917.5 2695 c 128,-1,43
 1135 2900 1135 2900 1438 2900 c 0,44,45
 1712 2900 1712 2900 1888 2757 c 1,46,47
 2093 2601 2093 2601 2093 2314 c 0,48,49
 2093 1855 2093 1855 1495 1556 c 1,50,51
 1769 1093 1769 1093 1978 831 c 1,52,53
 2187 1135 2187 1135 2187 1315 c 0,0,1
1417 2556 m 0,54,55
 1204 2556 1204 2556 1204 2310 c 0,56,57
 1204 2134 1204 2134 1327 1872 c 1,58,59
 1634 2028 1634 2028 1634 2290 c 0,60,61
 1634 2556 1634 2556 1417 2556 c 0,54,55
1274 332 m 0,62,63
 1426 332 1426 332 1585 430 c 1,64,65
 1315 770 1315 770 999 1319 c 1,66,67
 757 1155 757 1155 758 954 c 0,68,69
 758 733 758 733 917.5 532.5 c 128,-1,70
 1077 332 1077 332 1274 332 c 0,62,63
EndSplineSet
Validated: 33
EndChar

StartChar: quotesingle
Encoding: 39 39 7
Width: 1163
Flags: W
LayerCount: 2
Fore
SplineSet
840 2920 m 0,0,1
 840 2801 840 2801 815 2613 c 2,2,-1
 762 2191 l 2,3,4
 737 2007 737 2007 565 2007 c 0,5,6
 389 2007 389 2007 369 2191 c 2,7,-1
 315 2613 l 2,8,9
 290 2822 290 2822 291 2920 c 0,10,11
 291 3153 291 3153 565 3154 c 256,12,13
 840 3153 840 3153 840 2920 c 0,0,1
EndSplineSet
Validated: 33
EndChar

StartChar: parenleft
Encoding: 40 40 8
Width: 1683
Flags: W
LayerCount: 2
Fore
SplineSet
1303 -745 m 1,0,-1
 1221 -844 l 1,1,2
 697 -574 697 -574 422 8 c 0,3,4
 168 549 168 549 168 1266 c 0,5,6
 168 1991 168 1991 418 2527 c 0,7,8
 692 3113 692 3113 1221 3379 c 1,9,-1
 1303 3281 l 1,10,11
 1019.99999999 2896 1019.99999999 2896 930 2331 c 1,12,13
 881 1995 881 1995 881 1266 c 0,14,15
 881 594 881 594 938 197 c 0,16,17
 1033 -446 1033 -446 1303 -745 c 1,0,-1
EndSplineSet
Validated: 1
EndChar

StartChar: parenright
Encoding: 41 41 9
Width: 1859
Flags: W
LayerCount: 2
Fore
SplineSet
455 -745 m 1,0,-1
 537 -844 l 1,1,2
 1061 -574 1061 -574 1335 8 c 0,3,4
 1589 549 1589 549 1589 1266 c 0,5,6
 1589 1991 1589 1991 1339 2527 c 0,7,8
 1065 3113 1065 3113 537 3379 c 1,9,-1
 455 3281 l 1,10,11
 738 2896 738 2896 823 2331 c 0,12,13
 876 1995 876 1995 877 1266 c 0,14,15
 877 594 877 594 819 197 c 0,16,17
 721 -446 721 -446 455 -745 c 1,0,-1
EndSplineSet
Validated: 9
EndChar

StartChar: asterisk
Encoding: 42 42 10
Width: 2031
Flags: W
LayerCount: 2
Fore
SplineSet
1753 2257 m 1,0,-1
 1610 1942 l 1,1,-1
 1204 2228 l 1,2,-1
 1266 1733 l 1,3,-1
 926 1733 l 1,4,-1
 987 2228 l 1,5,-1
 582 1942 l 1,6,-1
 434 2257 l 1,7,-1
 889 2417 l 1,8,-1
 889 2425 l 1,9,-1
 434 2572 l 1,10,-1
 582 2908 l 1,11,-1
 987 2609 l 1,12,-1
 926 3113 l 1,13,-1
 1266 3113 l 1,14,-1
 1204 2609 l 1,15,-1
 1610 2908 l 1,16,-1
 1753 2572 l 1,17,-1
 1307 2425 l 1,18,-1
 1307 2417 l 1,19,-1
 1753 2257 l 1,0,-1
EndSplineSet
Validated: 1
EndChar

StartChar: plus
Encoding: 43 43 11
Width: 2285
Flags: W
LayerCount: 2
Fore
SplineSet
2179 799 m 1,0,-1
 1389 799 l 1,1,-1
 1389 0 l 1,2,-1
 897 0 l 1,3,-1
 897 799 l 1,4,-1
 106 799 l 1,5,-1
 106 1294 l 1,6,-1
 897 1294 l 1,7,-1
 897 2093 l 1,8,-1
 1389 2093 l 1,9,-1
 1389 1294 l 1,10,-1
 2179 1294 l 1,11,-1
 2179 799 l 1,0,-1
EndSplineSet
Validated: 1
EndChar

StartChar: comma
Encoding: 44 44 12
Width: 1253
Flags: W
LayerCount: 2
Fore
SplineSet
1012 418 m 2,0,1
 1012 98.9999999995 1012 98.9999999995 827 -193 c 0,2,3
 618 -517 618 -517 315 -516 c 0,4,5
 290 -516 290 -516 268 -510 c 128,-1,6
 246 -504 246 -504 242 -479 c 1,7,8
 394 -205 394 -205 426 57 c 0,9,10
 438 155 438 155 438 635 c 1,11,-1
 1012 635 l 1,12,-1
 1012 418 l 2,0,1
EndSplineSet
Validated: 33
EndChar

StartChar: hyphen
Encoding: 45 45 13
Width: 1654
Flags: W
LayerCount: 2
Fore
SplineSet
1389 1540 m 1,0,1
 1332 1282 1332 1282 1225 762 c 1,2,-1
 573 762 l 2,3,4
 356 762 356 762 332 561 c 1,5,-1
 176 561 l 1,6,7
 266 1077 266 1077 328 1331 c 1,8,-1
 930 1331 l 2,9,10
 1061 1331 1061 1331 1124.5 1374 c 128,-1,11
 1188 1417 1188 1417 1233 1540 c 1,12,-1
 1389 1540 l 1,0,1
EndSplineSet
Validated: 1
EndChar

StartChar: period
Encoding: 46 46 14
Width: 1372
Flags: W
LayerCount: 2
Fore
SplineSet
1065 324 m 256,0,1
 1065 152 1065 152 946 31 c 128,-1,2
 827 -90 827 -90 655 -90 c 0,3,4
 487 -90 487 -90 366.5 33 c 128,-1,5
 246.000000001 156 246.000000001 156 246 324 c 0,6,7
 246 488 246 488 369 612.5 c 128,-1,8
 492 737 492 737 655 737 c 0,9,10
 827 737 827 737 946 616.5 c 128,-1,11
 1065 496 1065 496 1065 324 c 256,0,1
EndSplineSet
Validated: 1
EndChar

StartChar: slash
Encoding: 47 47 15
Width: 2076
Flags: W
LayerCount: 2
Fore
SplineSet
2347 3289 m 1,0,-1
 299 -602 l 1,1,-1
 -217 -602 l 1,2,-1
 1831 3285 l 1,3,-1
 2347 3289 l 1,0,-1
EndSplineSet
Validated: 1
EndChar

StartChar: zero
Encoding: 48 48 16
Width: 2433
Flags: W
LayerCount: 2
Fore
SplineSet
2343 1311 m 0,0,1
 2343 693 2343 693 2093 332 c 0,2,3
 1806 -89.9999999999 1806 -89.9999999999 1217 -90 c 256,4,5
 627 -90 627 -90 336 332 c 0,6,7
 90 692 90 692 90 1311 c 256,8,9
 90 1929 90 1929 336 2290 c 0,10,11
 627 2716 627 2716 1217 2716 c 0,12,13
 1803 2716 1803 2716 2093 2290 c 0,14,15
 2343 1925 2343 1925 2343 1311 c 0,0,1
1511 1040 m 2,16,-1
 1511 1569 l 2,17,18
 1511 1794 1511 1794 1458 1978 c 1,19,20
 1376 2240 1376 2240 1217 2241 c 0,21,22
 1049 2241 1049 2241 967 1958 c 0,23,24
 910 1761 910 1761 913 1552 c 2,25,-1
 922 1036 l 2,26,27
 926 815 926 815 975 647 c 0,28,29
 1049 381 1049 381 1217 381 c 0,30,31
 1377 381 1377 381 1458 639 c 0,32,33
 1511 819 1511 819 1511 1040 c 2,16,-1
1376 2105 m 1,34,-1
 946 1036 l 1,35,36
 938 848 938 848 999 627 c 1,37,-1
 1483 1757 l 1,38,39
 1458 1962 1458 1962 1376 2105 c 1,34,-1
EndSplineSet
Validated: 41
EndChar

StartChar: one
Encoding: 49 49 17
Width: 2256
Flags: W
LayerCount: 2
Fore
SplineSet
1659 2879 m 1,0,1
 1393 2641 1393 2641 1032 2417 c 0,2,3
 581 2134 581 2134 307 2105 c 1,4,-1
 303 1823 l 1,5,6
 336 1823 336 1823 440.5 1831 c 128,-1,7
 545 1839 545 1839 598 1839 c 0,8,9
 823 1839 823 1839 823 1720 c 2,10,-1
 823 356 l 2,11,12
 823 254 823 254 700 197 c 0,13,14
 606 152 606 152 479 152 c 1,15,-1
 479 -61 l 1,16,17
 737 -44.9999999999 737 -44.9999999999 1126 -45 c 0,18,19
 1536 -45 1536 -45 1909 -61 c 1,20,-1
 1913 111 l 1,21,22
 1843 131 1843 131 1778 152 c 1,23,24
 1676 201 1676 201 1671 303 c 1,25,-1
 1659 2879 l 1,0,1
EndSplineSet
Validated: 41
EndChar

StartChar: two
Encoding: 50 50 18
Width: 2433
Flags: W
LayerCount: 2
Fore
SplineSet
2249 504 m 1,0,1
 2249 389 2249 389 2245 143 c 1,2,-1
 2245 0 l 1,3,-1
 180 0 l 1,4,-1
 180 434 l 1,5,6
 1331 950 1331 950 1331 1761 c 0,7,8
 1331 2191 1331 2191 926 2191 c 0,9,10
 541 2191 541 2191 446 1798 c 1,11,-1
 258 1774 l 1,12,13
 246 1917 246 1917 197 2232 c 0,14,15
 193 2244 193 2244 168 2322 c 0,16,17
 152 2379 152 2379 152 2417 c 0,18,19
 152 2564 152 2564 573 2650 c 0,20,21
 880 2716 880 2716 1122 2716 c 0,22,23
 1560 2716 1560 2716 1831 2548 c 0,24,25
 2155 2347 2155 2347 2154 1933 c 0,26,27
 2154 1470 2154 1470 1819 1061 c 1,28,29
 1508 688 1508 688 1049 500 c 1,30,-1
 2249 504 l 1,0,1
EndSplineSet
Validated: 33
EndChar

StartChar: three
Encoding: 51 51 19
Width: 2433
Flags: W
LayerCount: 2
Fore
SplineSet
2261 836 m 0,0,1
 2261 340 2261 340 1688 66 c 0,2,3
 1233 -151 1233 -151 672 -152 c 0,4,5
 479 -152 479 -152 279 -119 c 1,6,7
 275 -103 275 -103 209 29 c 0,8,9
 160 127 160 127 160 172 c 0,10,11
 160 254 160 254 238 254 c 0,12,13
 263 254 263 254 309.5 243.5 c 128,-1,14
 356 233 356 233 381 233 c 0,15,16
 651 233 651 233 934 365 c 0,17,18
 1270 525 1270 525 1270 762 c 0,19,20
 1270 1172 1270 1172 430 1171 c 1,21,-1
 467 1520 l 1,22,23
 750 1528 750 1528 950 1622 c 0,24,25
 1220 1749 1220 1749 1221 1995 c 0,26,27
 1221 2114 1221 2114 1137 2189.5 c 128,-1,28
 1053 2265 1053 2265 930 2265 c 0,29,30
 762 2265 762 2265 633 2156.5 c 128,-1,31
 504 2048 504 2048 442 1880 c 1,32,-1
 242 1880 l 1,33,34
 287 2335 287 2335 287 2531 c 1,35,36
 619 2715 619 2715 1135 2716 c 0,37,38
 1528 2716 1528 2716 1798 2593 c 0,39,40
 2163 2425 2163 2425 2163 2081 c 0,41,42
 2163 1581 2163 1581 1319 1421 c 1,43,-1
 1319 1413 l 1,44,45
 2261 1414 2261 1414 2261 836 c 0,0,1
EndSplineSet
Validated: 33
EndChar

StartChar: four
Encoding: 52 52 20
Width: 2433
Flags: W
LayerCount: 2
Fore
SplineSet
2347 586 m 1,0,-1
 2019 586 l 1,1,-1
 2019 0 l 1,2,-1
 1176 0 l 1,3,-1
 1176 586 l 1,4,-1
 86 586 l 1,5,-1
 86 1061 l 1,6,7
 750 2105 750 2105 1294 2621 c 1,8,-1
 2019 2621 l 1,9,-1
 2019 1061 l 1,10,-1
 2347 1061 l 1,11,-1
 2347 586 l 1,0,-1
1176 1061 m 1,12,-1
 1176 1880 l 1,13,-1
 1167 1880 l 1,14,15
 860 1483 860 1483 860 1479 c 0,16,17
 688 1246 688 1246 578 1061 c 1,18,-1
 1176 1061 l 1,12,-1
EndSplineSet
Validated: 1
EndChar

StartChar: five
Encoding: 53 53 21
Width: 2433
Flags: W
LayerCount: 2
Fore
SplineSet
2253 1004 m 0,0,1
 2253 431 2253 431 1651 111 c 0,2,3
 1159 -151 1159 -151 528 -152 c 0,4,5
 405 -152 405 -152 233 -135 c 1,6,-1
 180 221 l 1,7,8
 586 262 586 262 877 397 c 0,9,10
 1287 585 1287 585 1286 913 c 0,11,12
 1286 1122 1286 1122 1090 1233 c 0,13,14
 930 1323 930 1323 705 1323 c 0,15,16
 422 1323 422 1323 225 1225 c 1,17,-1
 299 2621 l 1,18,-1
 2159 2621 l 1,19,20
 2134 2474 2134 2474 2089 2052 c 1,21,-1
 791 2052 l 1,22,-1
 791 1614 l 1,23,24
 1115 1745 1115 1745 1417 1745 c 0,25,26
 1769 1745 1769 1745 2003 1552 c 0,27,28
 2253 1348 2253 1348 2253 1004 c 0,0,1
EndSplineSet
Validated: 33
EndChar

StartChar: six
Encoding: 54 54 22
Width: 2433
Flags: W
LayerCount: 2
Fore
SplineSet
2318 938 m 0,0,1
 2318 471 2318 471 2009 190.5 c 128,-1,2
 1700 -90 1700 -90 1225 -90 c 0,3,4
 688 -90 688 -90 401.5 209 c 128,-1,5
 115 508 115 508 115 1049 c 0,6,7
 115 1696 115 1696 569 2171 c 1,8,9
 958 2572 958 2572 1630 2810 c 1,10,-1
 1765 2519 l 1,11,12
 1560 2408 1560 2408 1286 2150 c 1,13,14
 966.999999995 1843 966.999999995 1843 967 1683 c 0,15,16
 967 1626 967 1626 1012 1589 c 1,17,18
 1221 1782 1221 1782 1520 1782 c 0,19,20
 1876 1782 1876 1782 2097 1540 c 128,-1,21
 2318 1298 2318 1298 2318 938 c 0,0,1
1450 717 m 1,22,23
 1503 799 1503 799 1503 901 c 0,24,25
 1503 1110 1503 1110 1372 1196 c 1,26,27
 1352 1311 1352 1311 1200 1311 c 0,28,29
 1036 1311 1036 1311 991 1118 c 0,30,31
 975 1044 975 1044 975 795 c 0,32,33
 975 660 975 660 1008 594 c 1,34,35
 1015.99999999 504 1015.99999999 504 1085.5 442.5 c 128,-1,36
 1155 381 1155 381 1245 381 c 0,37,38
 1458 381 1458 381 1458 639 c 0,39,40
 1458 676 1458 676 1450 717 c 1,22,23
EndSplineSet
Validated: 33
EndChar

StartChar: seven
Encoding: 55 55 23
Width: 2433
Flags: W
LayerCount: 2
Fore
SplineSet
2314 2621 m 1,0,1
 1917 1749 1917 1749 1778 1348 c 0,2,3
 1520 623 1520 623 1483 0 c 1,4,-1
 492 0 l 1,5,6
 558 610 558 610 840 1114 c 0,7,8
 1143 1655 1143 1655 1634 1962 c 1,9,-1
 1634 1970 l 1,10,-1
 754 1970 l 2,11,12
 525 1970 525 1970 430.5 1900.5 c 128,-1,13
 336 1831 336 1831 270 1614 c 1,14,-1
 115 1614 l 1,15,16
 193 1995 193 1995 258 2621 c 1,17,-1
 2314 2621 l 1,0,1
EndSplineSet
Validated: 1
EndChar

StartChar: eight
Encoding: 56 56 24
Width: 2433
Flags: W
LayerCount: 2
Fore
SplineSet
2339 754 m 0,0,1
 2339 328 2339 328 1950 98 c 0,2,3
 1626 -90 1626 -90 1167 -90 c 0,4,5
 737 -90 737 -90 446 86 c 0,6,7
 93.9999999995 295 93.9999999995 295 94 696 c 0,8,9
 94 1163 94 1163 651 1352 c 1,10,11
 426 1495 426 1495 328 1614 c 1,12,13
 201 1778 201 1778 201 2003 c 0,14,15
 201 2368 201 2368 549 2560 c 0,16,17
 828 2716 828 2716 1229 2716 c 0,18,19
 1606 2716 1606 2716 1864 2572 c 0,20,21
 2183 2396 2183 2396 2183 2052 c 256,22,23
 2183 1708 2183 1708 1745 1491 c 1,24,25
 2339 1246 2339 1246 2339 754 c 0,0,1
1511 2015 m 256,26,27
 1511 2158 1511 2158 1427 2258.5 c 128,-1,28
 1343 2359 1343 2359 1225 2359 c 256,29,30
 1106 2359 1106 2359 1022 2259 c 128,-1,31
 938 2159 938 2159 938 2015 c 256,32,33
 938 1872 938 1872 1022 1773.5 c 128,-1,34
 1106 1675 1106 1675 1225 1675 c 256,35,36
 1344 1675 1344 1675 1427.5 1773.5 c 128,-1,37
 1511 1872 1511 1872 1511 2015 c 256,26,27
1495 659 m 0,38,39
 1495 798 1495 798 1411 898.5 c 128,-1,40
 1327 999 1327 999 1208 999 c 256,41,42
 1089 999 1089 999 1005.5 899 c 128,-1,43
 922 799 922 799 922 659 c 0,44,45
 922 516 922 516 1006 415.5 c 128,-1,46
 1090 315 1090 315 1208 315 c 256,47,48
 1327 315 1327 315 1411 415.5 c 128,-1,49
 1495 516 1495 516 1495 659 c 0,38,39
EndSplineSet
Validated: 33
EndChar

StartChar: nine
Encoding: 57 57 25
Width: 2433
Flags: W
LayerCount: 2
Fore
SplineSet
2331 1577 m 0,0,1
 2331 933.999999995 2331 933.999999995 1851 430 c 1,2,3
 1425 -24.9999999995 1425 -24.9999999995 766 -217 c 1,4,-1
 614 61 l 1,5,6
 1167 405 1167 405 1409 1024 c 1,7,-1
 1401 1036 l 1,8,9
 1217 839 1217 839 901 840 c 0,10,11
 545 840 545 840 323.5 1081.5 c 128,-1,12
 102 1323 102 1323 102 1683 c 0,13,14
 102 2162 102 2162 426 2445 c 0,15,16
 733 2715 733 2715 1221 2716 c 0,17,18
 1729 2716 1729 2716 2030 2400.5 c 128,-1,19
 2331 2085 2331 2085 2331 1577 c 0,0,1
1548 1806 m 0,20,21
 1548 1974 1548 1974 1445.5 2095 c 128,-1,22
 1343 2216 1343 2216 1200 2216 c 256,23,24
 1057 2216 1057 2216 954.5 2095 c 128,-1,25
 852 1974 852 1974 852 1806 c 0,26,27
 852 1634 852 1634 954.5 1513.5 c 128,-1,28
 1057 1393 1057 1393 1200 1393 c 256,29,30
 1343 1393 1343 1393 1445.5 1513.5 c 128,-1,31
 1548 1634 1548 1634 1548 1806 c 0,20,21
EndSplineSet
Validated: 33
EndChar

StartChar: colon
Encoding: 58 58 26
Width: 1380
Flags: W
LayerCount: 2
Fore
SplineSet
1114 1442 m 0,0,1
 1114 1270 1114 1270 995.5 1149 c 128,-1,2
 877 1028 877 1028 705 1028 c 256,3,4
 533 1028 533 1028 414 1149 c 128,-1,5
 295 1270 295 1270 295 1442 c 256,6,7
 295 1614 295 1614 413.5 1734.5 c 128,-1,8
 532 1855 532 1855 705 1855 c 0,9,10
 873 1855 873 1855 993.5 1732.5 c 128,-1,11
 1114 1610 1114 1610 1114 1442 c 0,0,1
1114 324 m 0,12,13
 1114 152 1114 152 995.5 31 c 128,-1,14
 877 -90 877 -90 705 -90 c 256,15,16
 533 -90 533 -90 414 31 c 128,-1,17
 295 152 295 152 295 324 c 256,18,19
 295 496 295 496 413.5 616.5 c 128,-1,20
 532 737 532 737 705 737 c 0,21,22
 873 737 873 737 993.5 614.5 c 128,-1,23
 1114 492 1114 492 1114 324 c 0,12,13
EndSplineSet
Validated: 1
EndChar

StartChar: semicolon
Encoding: 59 59 27
Width: 1531
Flags: W
LayerCount: 2
Fore
SplineSet
1229 1401 m 256,0,1
 1229 1229 1229 1229 1110 1108 c 128,-1,2
 991.000000005 986.999999995 991.000000005 986.999999995 819 987 c 0,3,4
 651 987 651 987 530.5 1110 c 128,-1,5
 410 1233 410 1233 410 1401 c 256,6,7
 410 1569 410 1569 530.5 1692 c 128,-1,8
 651 1815 651 1815 819 1815 c 0,9,10
 991 1815 991 1815 1110 1694 c 128,-1,11
 1229 1573 1229 1573 1229 1401 c 256,0,1
1106 377 m 2,12,13
 1106 57.9999999995 1106 57.9999999995 922 -229 c 0,14,15
 709 -557 709 -557 410 -557 c 0,16,17
 381 -557 381 -557 358.5 -551 c 128,-1,18
 336 -545 336 -545 336 -520 c 1,19,20
 488 -258 488 -258 520 16 c 0,21,22
 532 118 532 118 532 594 c 1,23,-1
 1106 594 l 1,24,-1
 1106 377 l 2,12,13
EndSplineSet
Validated: 33
EndChar

StartChar: less
Encoding: 60 60 28
Width: 2297
Flags: W
LayerCount: 2
Fore
SplineSet
2183 -33 m 1,0,-1
 111 852 l 1,1,-1
 111 1241 l 1,2,-1
 2183 2126 l 1,3,-1
 2183 1651 l 1,4,-1
 741 1049 l 1,5,-1
 2183 442 l 1,6,-1
 2183 -33 l 1,0,-1
EndSplineSet
Validated: 1
EndChar

StartChar: equal
Encoding: 61 61 29
Width: 2289
Flags: W
LayerCount: 2
Fore
SplineSet
2183 1241 m 1,0,-1
 111 1241 l 1,1,-1
 111 1737 l 1,2,-1
 2183 1737 l 1,3,-1
 2183 1241 l 1,0,-1
2183 356 m 1,4,-1
 111 356 l 1,5,-1
 111 852 l 1,6,-1
 2183 852 l 1,7,-1
 2183 356 l 1,4,-1
EndSplineSet
Validated: 1
EndChar

StartChar: greater
Encoding: 62 62 30
Width: 2232
Flags: W
LayerCount: 2
Fore
SplineSet
2150 852 m 1,0,-1
 78 -33 l 1,1,-1
 78 442 l 1,2,-1
 1520 1049 l 1,3,-1
 78 1651 l 1,4,-1
 78 2126 l 1,5,-1
 2150 1241 l 1,6,-1
 2150 852 l 1,0,-1
EndSplineSet
Validated: 1
EndChar

StartChar: question
Encoding: 63 63 31
Width: 2457
Flags: W
LayerCount: 2
Fore
SplineSet
2322 2150 m 0,0,1
 2322 1835 2322 1835 2064 1647 c 0,2,3
 2031 1622 2031 1622 1585 1405 c 0,4,5
 1327 1278 1327 1278 1327 1110 c 1,6,-1
 1020 1102 l 1,7,8
 979 1282 979 1282 938 1663 c 1,9,10
 1110 1663 1110 1663 1298 1778 c 0,11,12
 1527 1917 1527 1917 1524 2114 c 0,13,14
 1516 2458 1516 2458 1069 2458 c 0,15,16
 881 2458 881 2458 731.5 2308.5 c 128,-1,17
 582 2159 582 2159 545 1962 c 1,18,-1
 356 1962 l 1,19,20
 385 2351 385 2351 385 2433 c 0,21,22
 385 2462 385 2462 377 2517 c 128,-1,23
 369 2572 369 2572 369 2601 c 0,24,25
 369 2740 369 2740 733 2822 c 0,26,27
 995 2879 995 2879 1217 2879 c 0,28,29
 1668 2879 1668 2879 1950 2740 c 0,30,31
 2322 2556 2322 2556 2322 2150 c 0,0,1
1647 377 m 0,32,33
 1647 201.000000001 1647 201.000000001 1526 74 c 128,-1,34
 1405 -53 1405 -53 1225 -53 c 0,35,36
 1049 -53 1049 -53 926 74 c 128,-1,37
 803 201 803 201 803 377 c 256,38,39
 803 553 803 553 926 680 c 128,-1,40
 1049 807 1049 807 1225 807 c 256,41,42
 1401 807 1401 807 1524 682 c 128,-1,43
 1647 557 1647 557 1647 377 c 0,32,33
EndSplineSet
Validated: 33
EndChar

StartChar: at
Encoding: 64 64 32
Width: 3235
Flags: W
LayerCount: 2
Fore
SplineSet
3006 1520 m 0,0,1
 3006 1155 3006 1155 2818 868 c 0,2,3
 2605 544 2605 544 2261 545 c 0,4,5
 2134 545 2134 545 2017.5 631 c 128,-1,6
 1901 717 1901 717 1896 840 c 1,7,-1
 1888 840 l 1,8,9
 1843 729 1843 729 1697.5 639 c 128,-1,10
 1552 549 1552 549 1430 549 c 0,11,12
 1242 549 1242 549 1135 709 c 0,13,14
 1045 848 1045 848 1044 1049 c 0,15,16
 1044 1414 1044 1414 1253 1716 c 0,17,18
 1486 2056 1486 2056 1835 2056 c 0,19,20
 2015 2056 2015 2056 2105 1864 c 1,21,-1
 2142 1995 l 1,22,-1
 2449 1995 l 1,23,24
 2375 1721 2375 1721 2302 1446 c 0,25,26
 2212 1114 2212 1114 2212 889 c 0,27,28
 2212 746 2212 746 2322 745 c 0,29,30
 2482 745 2482 745 2597 1057 c 0,31,32
 2687 1311 2687 1311 2687 1516 c 0,33,34
 2687 1934 2687 1934 2396 2171 c 0,35,36
 2126 2392 2126 2392 1700 2392 c 0,37,38
 1180 2392 1180 2392 885 2062.5 c 128,-1,39
 590 1733 590 1733 614 1188 c 0,40,41
 634 742 634 742 987 463 c 0,42,43
 1306 209.000000001 1306 209.000000001 1733 209 c 0,44,45
 2151 209 2151 209 2535 414 c 1,46,-1
 2572 164 l 1,47,48
 2138 -90 2138 -90 1741 -90 c 0,49,50
 1135 -90 1135 -90 696 274 c 0,51,52
 229 659 229 659 229 1249 c 0,53,54
 229 1888 229 1888 645 2302 c 128,-1,55
 1061 2716 1061 2716 1700 2716 c 0,56,57
 2253 2716 2253 2716 2617 2396 c 1,58,59
 3006 2065 3006 2065 3006 1520 c 0,0,1
1995 1556 m 0,60,61
 1995 1806 1995 1806 1860 1806 c 0,62,63
 1663 1806 1663 1806 1528 1565 c 0,64,65
 1413 1356 1413 1356 1413 1139 c 0,66,67
 1413 799 1413 799 1581 799 c 0,68,69
 1802 799 1802 799 1913 1081 c 0,70,71
 1995 1294 1995 1294 1995 1556 c 0,60,61
EndSplineSet
Validated: 33
EndChar

StartChar: A
Encoding: 65 65 33
Width: 3026
Flags: W
LayerCount: 2
Fore
SplineSet
3056 -25 m 1,0,1
 2708 -8.99999999995 2708 -8.99999999995 2290 -8 c 0,2,3
 1971 -8 1971 -8 1696 -25 c 1,4,-1
 1696 131 l 1,5,6
 1893 131 1893 131 1892 242 c 0,7,8
 1892 344 1892 344 1765 737 c 1,9,-1
 946 737 l 1,10,11
 905 610 905 610 860 487 c 1,12,13
 803 307 803 307 803 242 c 0,14,15
 803 131 803 131 950 131 c 1,16,-1
 950 -25 l 1,17,18
 712 -8.99999999995 712 -8.99999999995 426 -8 c 0,19,20
 201 -8 201 -8 8 -25 c 1,21,-1
 8 131 l 1,22,23
 127 131 127 131 197 254 c 1,24,25
 226 336 226 336 279 483 c 0,26,27
 459 962 459 962 643 1438 c 1,28,29
 881 2102 881 2102 881 2380 c 0,30,31
 881 2491 881 2491 700 2490 c 1,32,-1
 700 2646 l 1,33,34
 1036 2630 1036 2630 1454 2630 c 0,35,36
 1778 2630 1778 2630 2060 2646 c 1,37,-1
 2793 459 l 2,38,39
 2850 295 2850 295 2875 246 c 1,40,41
 2945 131 2945 131 3056 131 c 1,42,-1
 3056 -25 l 1,0,1
1651 1135 m 1,43,-1
 1348 2093 l 1,44,-1
 1053 1139 l 1,45,-1
 1651 1135 l 1,43,-1
EndSplineSet
Validated: 33
Substitution2: "'ss03' Egyptian Hieratic-Latin" A.hier
Substitution2: "'ss02' Egyptian Transliteration-Latin" A.tran
EndChar

StartChar: B
Encoding: 66 66 34
Width: 3022
Flags: W
LayerCount: 2
Fore
SplineSet
2855 692 m 0,0,1
 2855 4.999947123e-10 2855 4.999947123e-10 1954 0 c 2,2,-1
 164 0 l 1,3,-1
 164 156 l 1,4,5
 365 152 365 152 365 332 c 2,6,-1
 365 2294 l 2,7,8
 365 2470 365 2470 164 2466 c 1,9,-1
 164 2621 l 1,10,-1
 1868 2621 l 2,11,12
 2212 2621 2212 2621 2441 2478 c 0,13,14
 2711 2310 2711 2310 2712 1987 c 0,15,16
 2712 1721 2712 1721 2550 1548.5 c 128,-1,17
 2388 1376 2388 1376 2122 1335 c 1,18,-1
 2122 1323 l 1,19,20
 2429 1315 2429 1315 2630 1159 c 0,21,22
 2855 986.999999995 2855 986.999999995 2855 692 c 0,0,1
1475 2200 m 2,23,-1
 1257 2200 l 1,24,-1
 1257 1577 l 1,25,-1
 1397 1577 l 2,26,27
 1557 1577 1557 1577 1696 1655 c 0,28,29
 1860 1749 1860 1749 1860 1892 c 0,30,31
 1860 2200 1860 2200 1475 2200 c 2,23,-1
2003 860 m 1,32,33
 2003 934 2003 934 1949.5 1028 c 128,-1,34
 1896 1122 1896 1122 1831 1139 c 1,35,36
 1798 1180 1798 1180 1511 1180 c 2,37,-1
 1257 1180 l 1,38,-1
 1257 422 l 1,39,-1
 1479 422 l 2,40,41
 1700 422 1700 422 1839 500 c 0,42,43
 2011 594 2011 594 2011 778 c 0,44,45
 2011 819 2011 819 2003 860 c 1,32,33
EndSplineSet
Validated: 33
EndChar

StartChar: C
Encoding: 67 67 35
Width: 2351
Flags: W
LayerCount: 2
Fore
SplineSet
1655 479 m 0,0,1
 1921 479 1921 479 2232 664 c 1,2,-1
 2208 172 l 1,3,4
 1901 -61 1901 -61 1495 -61 c 0,5,6
 856 -61 856 -61 459 303 c 0,7,8
 49.0000000005 676 49.0000000005 676 49 1307 c 0,9,10
 49 1925 49 1925 479 2314 c 0,11,12
 901 2691 901 2691 1511 2666 c 0,13,14
 1753 2658 1753 2658 2114 2474 c 1,15,16
 2151 2281 2151 2281 2204 1819 c 1,17,-1
 2068 1765 l 1,18,19
 1962 2105 1962 2105 1499 2105 c 0,20,21
 1245 2105 1245 2105 1028 1888 c 0,22,23
 926 1786 926 1786 862.5 1616 c 128,-1,24
 799 1446 799 1446 799 1307 c 1,25,26
 836 861.000000005 836 861.000000005 1110 647 c 0,27,28
 1331 479 1331 479 1655 479 c 0,0,1
EndSplineSet
Validated: 33
Substitution2: "'ss01' BoPoMoFo-Latin" C.bpmf
EndChar

StartChar: D
Encoding: 68 68 36
Width: 3096
Flags: W
LayerCount: 2
Fore
SplineSet
2986 1380 m 0,0,1
 2986 0 2986 0 1331 0 c 2,2,-1
 106 0 l 1,3,-1
 106 156 l 1,4,-1
 147 152 l 1,5,6
 307 152 307 152 307 332 c 2,7,-1
 307 2294 l 2,8,9
 307 2470 307 2470 156 2470 c 0,10,11
 131 2470 131 2470 106 2466 c 1,12,-1
 106 2621 l 1,13,-1
 1614 2621 l 2,14,15
 2224 2621 2224 2621 2593 2310 c 0,16,17
 2986 1978 2986 1978 2986 1380 c 0,0,1
1663 2105 m 1,18,19
 1622 2134 1622 2134 1389 2167 c 0,20,21
 1184 2200 1184 2200 1098 2200 c 1,22,-1
 1106 438 l 1,23,-1
 1372 471 l 2,24,25
 1753 520 1753 520 1913 729 c 0,26,27
 2040 897 2040 897 2073 1274 c 1,28,-1
 2068 1479 l 1,29,30
 2068 1696 2068 1696 1970 1868 c 0,31,32
 1860 2056 1860 2056 1663 2105 c 1,18,19
EndSplineSet
Validated: 1
Substitution2: "'ss02' Egyptian Transliteration-Latin" D.tran
Substitution2: "'ss03' Egyptian Hieratic-Latin" D.hier
EndChar

StartChar: E
Encoding: 69 69 37
Width: 2650
Flags: W
LayerCount: 2
Fore
SplineSet
2548 795 m 1,0,1
 2523 525 2523 525 2486 0 c 1,2,-1
 98 0 l 1,3,-1
 98 156 l 1,4,5
 299 156 299 156 299 332 c 2,6,-1
 299 2294 l 2,7,8
 299 2466 299 2466 98 2466 c 1,9,-1
 98 2621 l 1,10,-1
 2421 2621 l 1,11,-1
 2454 1909 l 1,12,-1
 2322 1909 l 1,13,14
 2318 2056 2318 2056 2222 2140 c 128,-1,15
 2126 2224 2126 2224 1978 2224 c 2,16,-1
 1192 2224 l 1,17,-1
 1192 1585 l 1,18,-1
 1638 1585 l 2,19,20
 1785 1585 1785 1585 1839 1659 c 0,21,22
 1880 1716 1880 1716 1896 1872 c 1,23,-1
 2028 1872 l 1,24,25
 2012 1634 2012 1634 2011 1339 c 0,26,27
 2011 1110 2011 1110 2028 901 c 1,28,-1
 1896 901 l 1,29,30
 1880 1057 1880 1057 1839 1114 c 0,31,32
 1782 1188 1782 1188 1638 1188 c 2,33,-1
 1192 1188 l 1,34,-1
 1192 422 l 1,35,-1
 1970 422 l 2,36,37
 2380 422 2380 422 2400 795 c 1,38,-1
 2548 795 l 1,0,1
EndSplineSet
Validated: 1
EndChar

StartChar: F
Encoding: 70 70 38
Width: 2433
Flags: W
LayerCount: 2
Fore
SplineSet
2359 1855 m 1,0,-1
 2204 1855 l 1,1,2
 2159 2174 2159 2174 1774 2175 c 2,3,-1
 1171 2175 l 1,4,-1
 1171 1516 l 1,5,-1
 1507 1516 l 2,6,7
 1769 1516 1769 1516 1769 1806 c 1,8,-1
 1925 1806 l 1,9,10
 1905 1560 1905 1560 1905 1303 c 0,11,12
 1905 1041 1905 1041 1925 766 c 1,13,-1
 1769 766 l 1,14,15
 1769 934 1769 934 1703.5 1001.5 c 128,-1,16
 1638 1069 1638 1069 1475 1069 c 2,17,-1
 1171 1069 l 1,18,-1
 1171 340 l 2,19,20
 1171 131 1171 131 1425 131 c 1,21,-1
 1425 -25 l 1,22,23
 1065 -8.99999999995 1065 -8.99999999995 655 -8 c 0,24,25
 340 -8 340 -8 78 -25 c 1,26,-1
 78 131 l 1,27,28
 279 131 279 131 279 307 c 2,29,-1
 279 2294 l 2,30,31
 279 2466 279 2466 78 2466 c 1,32,-1
 78 2621 l 1,33,-1
 2306 2621 l 1,34,35
 2306 2199 2306 2199 2359 1855 c 1,0,-1
EndSplineSet
Validated: 1
EndChar

StartChar: G
Encoding: 71 71 39
Width: 2801
Flags: W
LayerCount: 2
Fore
SplineSet
37 1335 m 0,0,1
 37 1884 37 1884 369 2241 c 0,2,3
 770 2675 770 2675 1556 2675 c 0,4,5
 1740 2675 1740 2675 2077 2626 c 1,6,7
 2396 2573 2396 2573 2515 2531 c 1,8,9
 2523 2232 2523 2232 2560 1827 c 1,10,-1
 2273 1835 l 1,11,12
 2167 2228 2167 2228 1692 2220 c 0,13,14
 1233 2212 1233 2212 1063 2001 c 128,-1,15
 893 1790 893 1790 893 1212 c 0,16,17
 893 868 893 868 1032 643 c 1,18,19
 1204 377 1204 377 1532 377 c 0,20,21
 1684 377 1684 377 1815 446 c 0,22,23
 1975 528 1975 528 1974 664 c 0,24,25
 1974 844 1974 844 1939.5 893 c 128,-1,26
 1905 942 1905 942 1798 942 c 0,27,28
 1773 942 1773 942 1724 938 c 1,29,30
 1724 938 1724 938 1634 938 c 1,31,-1
 1634 1184 l 1,32,-1
 2724 1192 l 1,33,-1
 2724 930 l 1,34,35
 2642 938 2642 938 2586.5 891 c 128,-1,36
 2531 844 2531 844 2531 770 c 2,37,-1
 2544 -25 l 1,38,-1
 2093 -29 l 1,39,40
 2093 -29 2093 -29 2093 197 c 1,41,-1
 2093 229 l 1,42,43
 1823 -33.0000000001 1823 -33.0000000001 1495 -33 c 0,44,45
 37 -33 37 -33 37 1335 c 0,0,1
EndSplineSet
Validated: 33
EndChar

StartChar: H
Encoding: 72 72 40
Width: 3076
Flags: W
LayerCount: 2
Fore
SplineSet
2982 -25 m 1,0,1
 2667 -5.00000000005 2667 -5.00000000005 2343 -4 c 256,2,3
 2019 -4 2019 -4 1688 -25 c 1,4,-1
 1688 131 l 1,5,6
 1889 131 1889 131 1888 307 c 2,7,-1
 1888 1126 l 1,8,-1
 1192 1126 l 1,9,-1
 1192 307 l 2,10,11
 1192 131 1192 131 1393 131 c 1,12,-1
 1393 -25 l 1,13,14
 1061 -5.00000000005 1061 -5.00000000005 737 -4 c 256,15,16
 413 -4 413 -4 98 -25 c 1,17,-1
 98 131 l 1,18,19
 299 131 299 131 299 307 c 2,20,-1
 299 2318 l 2,21,22
 299 2490 299 2490 98 2490 c 1,23,-1
 98 2646 l 1,24,25
 413 2626 413 2626 737 2626 c 256,26,27
 1061 2626 1061 2626 1393 2646 c 1,28,-1
 1393 2490 l 1,29,30
 1192 2490 1192 2490 1192 2318 c 2,31,-1
 1192 1622 l 1,32,-1
 1888 1622 l 1,33,-1
 1888 2318 l 2,34,35
 1888 2490 1888 2490 1688 2490 c 1,36,-1
 1688 2646 l 1,37,38
 2016 2626 2016 2626 2339 2626 c 256,39,40
 2663 2626 2663 2626 2982 2646 c 1,41,-1
 2982 2490 l 1,42,43
 2781 2490 2781 2490 2781 2318 c 2,44,-1
 2781 307 l 2,45,46
 2781 131 2781 131 2982 131 c 1,47,-1
 2982 -25 l 1,0,1
EndSplineSet
Validated: 33
Substitution2: "'ss03' Egyptian Hieratic-Latin" H.hier
Substitution2: "'ss02' Egyptian Transliteration-Latin" H.tran
EndChar

StartChar: I
Encoding: 73 73 41
Width: 1486
Flags: W
LayerCount: 2
Fore
SplineSet
1393 -25 m 1,0,1
 1061 -5.00000000005 1061 -5.00000000005 737 -4 c 256,2,3
 413 -4 413 -4 98 -25 c 1,4,-1
 98 131 l 1,5,6
 299 131 299 131 299 307 c 2,7,-1
 299 2318 l 2,8,9
 299 2490 299 2490 98 2490 c 1,10,-1
 98 2646 l 1,11,12
 413 2626 413 2626 737 2626 c 256,13,14
 1061 2626 1061 2626 1393 2646 c 1,15,-1
 1393 2490 l 1,16,17
 1192 2490 1192 2490 1192 2318 c 2,18,-1
 1192 307 l 2,19,20
 1192 131 1192 131 1393 131 c 1,21,-1
 1393 -25 l 1,0,1
EndSplineSet
Validated: 1
EndChar

StartChar: J
Encoding: 74 74 42
Width: 1568
Flags: W
LayerCount: 2
Fore
SplineSet
1016 -512 m 1,0,1
 783 -741 783 -741 106 -741 c 0,2,3
 -95 -741 -95 -741 -274 -680 c 1,4,-1
 -266 -410 l 1,5,6
 -123 -381 -123 -381 25 -352 c 1,7,8
 193 -311 193 -311 270 -242 c 0,9,10
 376 -152 376 -152 377 16 c 2,11,-1
 373 2183 l 2,12,13
 373 2490 373 2490 111 2490 c 1,14,-1
 111 2646 l 1,15,16
 443 2626 443 2626 778 2626 c 0,17,18
 1118 2626 1118 2626 1466 2646 c 1,19,-1
 1466 2490 l 1,20,21
 1360 2490 1360 2490 1286 2445 c 0,22,23
 1200 2392 1200 2392 1212 2294 c 1,24,25
 1212 1983 1212 1983 1217 1917 c 1,26,-1
 1225 291 l 1,27,28
 1209 -360 1209 -360 1016 -512 c 1,0,1
EndSplineSet
Validated: 33
EndChar

StartChar: K
Encoding: 75 75 43
Width: 3059
Flags: W
LayerCount: 2
Fore
SplineSet
2957 -25 m 1,0,1
 2711 -8.99999999995 2711 -8.99999999995 2384 -8 c 0,2,3
 2126 -8 2126 -8 1880 -25 c 1,4,5
 1601 712 1601 712 1290 1274 c 1,6,-1
 1282 1274 l 1,7,-1
 1282 307 l 2,8,9
 1282 131 1282 131 1483 131 c 1,10,-1
 1483 -25 l 1,11,12
 1155 -5.00000000005 1155 -5.00000000005 831 -4 c 256,13,14
 507 -4 507 -4 188 -25 c 1,15,-1
 188 131 l 1,16,17
 389 131 389 131 389 307 c 2,18,-1
 389 2318 l 2,19,20
 389 2490 389 2490 188 2490 c 1,21,-1
 188 2646 l 1,22,23
 553 2626 553 2626 934 2626 c 0,24,25
 1241 2626 1241 2626 1483 2646 c 1,26,-1
 1483 2490 l 1,27,28
 1282 2490 1282 2490 1282 2318 c 2,29,-1
 1282 1298 l 1,30,-1
 1290 1298 l 1,31,32
 1937 2277 1937 2277 1937 2372 c 0,33,34
 1937 2491 1937 2491 1790 2490 c 1,35,-1
 1790 2646 l 1,36,37
 2077 2630 2077 2630 2392 2630 c 0,38,39
 2638 2630 2638 2630 2830 2646 c 1,40,-1
 2830 2490 l 1,41,42
 2678 2490 2678 2490 2404 2101 c 1,43,44
 2232 1835 2232 1835 2060 1565 c 1,45,46
 2080 1528 2080 1528 2429 827 c 1,47,48
 2716 237 2716 237 2765 197 c 1,49,50
 2835 131 2835 131 2957 131 c 1,51,-1
 2957 -25 l 1,0,1
EndSplineSet
Validated: 33
Substitution2: "'ss03' Egyptian Hieratic-Latin" K.hier
Substitution2: "'ss02' Egyptian Transliteration-Latin" K.tran
Substitution2: "'ss01' BoPoMoFo-Latin" K.bpmf
EndChar

StartChar: L
Encoding: 76 76 44
Width: 2551
Flags: W
LayerCount: 2
Fore
SplineSet
2507 913 m 1,0,1
 2413 303 2413 303 2413 0 c 1,2,-1
 188 0 l 1,3,-1
 188 156 l 1,4,5
 389 156 389 156 389 332 c 2,6,-1
 389 2318 l 2,7,8
 389 2490 389 2490 188 2490 c 1,9,-1
 188 2646 l 1,10,11
 479 2630 479 2630 897 2630 c 0,12,13
 1229 2630 1229 2630 1548 2646 c 1,14,-1
 1548 2490 l 1,15,16
 1282 2490 1282 2490 1282 2294 c 2,17,-1
 1282 471 l 1,18,-1
 1962 471 l 2,19,20
 2257 471 2257 471 2351 913 c 1,21,-1
 2507 913 l 1,0,1
EndSplineSet
Validated: 1
EndChar

StartChar: M
Encoding: 77 77 45
Width: 3973
Flags: W
LayerCount: 2
Fore
SplineSet
3895 -25 m 1,0,1
 3571 -8.99999999995 3571 -8.99999999995 3183 -8 c 0,2,3
 2876 -8 2876 -8 2609 -25 c 1,4,-1
 2609 131 l 1,5,6
 2842 131 2842 131 2843 332 c 0,7,8
 2843 631 2843 631 2740 1786 c 1,9,-1
 2732 1786 l 1,10,-1
 2097 -25 l 1,11,-1
 1573 -25 l 1,12,-1
 881 1794 l 1,13,-1
 872 1794 l 1,14,15
 815 520 815 520 815 377 c 0,16,17
 815 213.000000001 815 213.000000001 864 184 c 1,18,19
 880 131 880 131 1040 131 c 1,20,-1
 1040 -25 l 1,21,22
 807 -8.99999999995 807 -8.99999999995 541 -8 c 0,23,24
 176 -8 176 -8 41 -20 c 1,25,-1
 41 139 l 1,26,27
 176 139 176 139 233 209 c 0,28,29
 376 389 376 389 377 1155 c 0,30,31
 377 1343 377 1343 389 1722 c 128,-1,32
 401 2101 401 2101 401 2290 c 0,33,34
 401 2487 401 2487 193 2486 c 1,35,-1
 205 2654 l 1,36,37
 656 2629 656 2629 942 2630 c 0,38,39
 1221 2630 1221 2630 1462 2646 c 1,40,-1
 2032 1024 l 1,41,-1
 2040 1024 l 1,42,-1
 2564 2646 l 1,43,44
 2863 2630 2863 2630 3215 2630 c 0,45,46
 3489 2630 3489 2630 3715 2646 c 1,47,-1
 3715 2490 l 1,48,49
 3539 2490 3539 2490 3539 2261 c 0,50,51
 3539 1655 3539 1655 3686 319 c 0,52,53
 3698 208 3698 208 3741.5 169.5 c 128,-1,54
 3785 131 3785 131 3895 131 c 1,55,-1
 3895 -25 l 1,0,1
EndSplineSet
Validated: 33
Substitution2: "'ss03' Egyptian Hieratic-Latin" M.hier
Substitution2: "'ss02' Egyptian Transliteration-Latin" M.tran
EndChar

StartChar: N
Encoding: 78 78 46
Width: 3264
Flags: W
LayerCount: 2
Fore
SplineSet
3076 2490 m 1,0,1
 2875 2490 2875 2490 2875 2327 c 2,2,-1
 2875 -25 l 1,3,-1
 2253 -25 l 1,4,5
 1811 598 1811 598 893 1843 c 1,6,-1
 885 1843 l 1,7,-1
 885 360 l 2,8,9
 885 131 885 131 1171 131 c 1,10,-1
 1171 -25 l 1,11,12
 892 -8.99999999995 892 -8.99999999995 598 -8 c 0,13,14
 369 -8 369 -8 193 -25 c 1,15,-1
 193 131 l 1,16,17
 394 131 394 131 393 348 c 2,18,-1
 393 2286 l 2,19,20
 393 2491 393 2491 193 2490 c 1,21,-1
 193 2646 l 1,22,23
 521 2630 521 2630 889 2630 c 0,24,25
 1172 2630 1172 2630 1397 2646 c 1,26,27
 1729 2187 1729 2187 2376 1257 c 1,28,-1
 2384 1266 l 1,29,-1
 2384 2253 l 2,30,31
 2384 2491 2384 2491 2118 2490 c 1,32,-1
 2118 2646 l 1,33,34
 2368 2630 2368 2630 2658 2630 c 0,35,36
 2887 2630 2887 2630 3076 2646 c 1,37,-1
 3076 2490 l 1,0,1
EndSplineSet
Validated: 33
Substitution2: "'ss03' Egyptian Hieratic-Latin" N.hier
Substitution2: "'ss02' Egyptian Transliteration-Latin" N.tran
Substitution2: "'ss01' BoPoMoFo-Latin" N.bpmf
EndChar

StartChar: O
Encoding: 79 79 47
Width: 3088
Flags: W
LayerCount: 2
Fore
SplineSet
3002 1278 m 0,0,1
 3002 692 3002 692 2562 301 c 128,-1,2
 2122 -90.0000000001 2122 -90.0000000001 1528 -90 c 256,3,4
 934 -90 934 -90 510 319.5 c 128,-1,5
 85.9999999995 729 85.9999999995 729 86 1319 c 0,6,7
 86 1905 86 1905 524.5 2310.5 c 128,-1,8
 963 2716 963 2716 1556 2716 c 0,9,10
 2179 2716 2179 2716 2590.5 2306 c 128,-1,11
 3002 1896 3002 1896 3002 1278 c 0,0,1
1642 381 m 0,12,13
 2084 381 2084 381 2085 1044 c 0,14,15
 2085 1503 2085 1503 1950 1843 c 1,16,-1
 1954 1831 l 1,17,18
 1905 1999 1905 1999 1757.5 2120 c 128,-1,19
 1610 2241 1610 2241 1442 2241 c 0,20,21
 1249 2241 1249 2241 1118 2048 c 0,22,23
 999.000000005 1872 999.000000005 1872 999 1671 c 0,24,25
 999 1270 999 1270 1135 889 c 0,26,27
 1318 381 1318 381 1642 381 c 0,12,13
EndSplineSet
Validated: 37
EndChar

StartChar: P
Encoding: 80 80 48
Width: 2818
Flags: W
LayerCount: 2
Fore
SplineSet
1196 283 m 1,0,1
 1257 136 1257 136 1618 152 c 1,2,-1
 1618 -25 l 1,3,-1
 82 -20 l 1,4,-1
 82 143 l 1,5,-1
 139 143 l 1,6,7
 332 139 332 139 377 254 c 1,8,-1
 377 2376 l 1,9,10
 287 2478 287 2478 90 2466 c 1,11,-1
 90 2646 l 1,12,-1
 1978 2662 l 2,13,14
 2318 2662 2318 2662 2515 2478 c 0,15,16
 2724 2281 2724 2281 2720 1942 c 0,17,18
 2716 1192 2716 1192 2142 1184 c 2,19,-1
 1200 1171 l 1,20,-1
 1196 283 l 1,0,1
1200 1589 m 1,21,-1
 1372 1589 l 2,22,23
 1683 1589 1683 1589 1790 1622 c 0,24,25
 2015 1692 2015 1692 2015 1942 c 0,26,27
 2015 2225 2015 2225 1786 2306 c 1,28,29
 1680 2339 1680 2339 1331 2343 c 1,30,-1
 1196 2343 l 1,31,32
 1200 2334 1200 2334 1200 1589 c 1,21,-1
EndSplineSet
Validated: 33
EndChar

StartChar: Q
Encoding: 81 81 49
Width: 3313
Flags: W
LayerCount: 2
Fore
SplineSet
3637 -713 m 1,0,-1
 3592 -762 l 1,1,2
 3367 -656 3367 -656 3113 -655 c 0,3,4
 2916 -655 2916 -655 2598.5 -735 c 128,-1,5
 2281 -815 2281 -815 2171 -815 c 0,6,7
 1643 -815 1643 -815 1303 -664 c 0,8,9
 865 -471 865 -471 860 -70 c 0,10,11
 860 3.99999999995 860 3.99999999995 950 152 c 1,12,13
 794 234 794 234 676 340 c 0,14,15
 238 729 238 729 238 1311 c 0,16,17
 238 1909 238 1909 668 2290 c 0,18,19
 1082 2659 1082 2659 1683 2658 c 0,20,21
 2281 2658 2281 2658 2699 2290 c 1,22,23
 3133 1901 3133 1901 3133 1311 c 0,24,25
 3133 865.000000005 3133 865.000000005 2877 522.5 c 128,-1,26
 2621 180 2621 180 2191 45 c 1,27,28
 1802 -37 1802 -37 1683 -37 c 0,29,30
 1368 -37 1368 -37 1130 61 c 1,31,32
 1142 -148 1142 -148 1343 -254 c 0,33,34
 1515 -344 1515 -344 1794 -344 c 0,35,36
 1982 -344 1982 -344 2172.5 -303 c 128,-1,37
 2363 -262 2363 -262 2544 -262 c 0,38,39
 3109 -262 3109 -262 3637 -713 c 1,0,-1
2126 1044 m 0,40,41
 2126 1503 2126 1503 1991 1843 c 1,42,-1
 1995 1831 l 1,43,44
 1946 1999 1946 1999 1798.5 2120 c 128,-1,45
 1651 2241 1651 2241 1483 2241 c 0,46,47
 1290 2241 1290 2241 1159 2048 c 0,48,49
 1040 1872 1040 1872 1040 1671 c 0,50,51
 1040 1270 1040 1270 1176 889 c 0,52,53
 1360 381 1360 381 1683 381 c 0,54,55
 2126 380 2126 380 2126 1044 c 0,40,41
EndSplineSet
Validated: 37
EndChar

StartChar: R
Encoding: 82 82 50
Width: 3571
Flags: W
LayerCount: 2
Fore
SplineSet
3465 238 m 1,0,1
 3363 58 3363 58 3201 -12 c 128,-1,2
 3039 -82.0000000001 3039 -82.0000000001 2769 -82 c 0,3,4
 2200 -82 2200 -82 2068 291 c 1,5,-1
 1999 983 l 2,6,7
 1974 1253 1974 1253 1282 1253 c 1,8,-1
 1286 279 l 1,9,10
 1352 168 1352 168 1638 180 c 1,11,-1
 1638 -29 l 1,12,-1
 213 -29 l 1,13,-1
 213 152 l 1,14,15
 512 160 512 160 524 258 c 1,16,-1
 520 2380 l 1,17,18
 471 2458 471 2458 238 2458 c 1,19,-1
 242 2646 l 1,20,-1
 2146 2646 l 2,21,22
 2433 2646 2433 2646 2642 2548 c 0,23,24
 2892 2433 2892 2433 2949 2109 c 0,25,26
 2965 2007 2965 2007 2945 1868 c 0,27,28
 2925 1708 2925 1708 2867 1638 c 0,29,30
 2801 1556 2801 1556 2699 1507 c 0,31,32
 2658 1487 2658 1487 2437 1413 c 1,33,-1
 2294 1376 l 1,34,35
 2675 1241 2675 1241 2761 1167 c 0,36,37
 2925 1032 2925 1032 2925 705 c 0,38,39
 2925 504 2925 504 2978 348.5 c 128,-1,40
 3031 193 3031 193 3191 193 c 0,41,42
 3252 193 3252 193 3334 319 c 1,43,-1
 3465 238 l 1,0,1
1786 2384 m 1,44,-1
 1274 2392 l 1,45,-1
 1282 1528 l 1,46,-1
 1806 1528 l 2,47,48
 2027 1528 2027 1528 2109 1835 c 1,49,50
 2129 1937 2129 1937 2118 2044 c 1,51,52
 2122 2179 2122 2179 1982 2290 c 0,53,54
 1864 2384 1864 2384 1786 2384 c 1,44,-1
EndSplineSet
Validated: 33
Substitution2: "'ss03' Egyptian Hieratic-Latin" R.hier
Substitution2: "'ss02' Egyptian Transliteration-Latin" R.tran
Substitution2: "'ss01' BoPoMoFo-Latin" R.bpmf
EndChar

StartChar: S
Encoding: 83 83 51
Width: 2424
Flags: W
LayerCount: 2
Fore
SplineSet
2351 803 m 0,0,1
 2351 328 2351 328 1942 94 c 1,2,3
 1610 -90 1610 -90 1094 -90 c 0,4,5
 496 -90 496 -90 135 193 c 1,6,7
 135 615 135 615 111 1016 c 1,8,-1
 266 1016 l 1,9,10
 282 701 282 701 512 512 c 0,11,12
 729 332 729 332 1053 332 c 0,13,14
 1557 332 1557 332 1556 614 c 0,15,16
 1556 770 1556 770 1171 897 c 0,17,18
 626 1081 626 1081 463 1188 c 0,19,20
 77.9999999995 1438 77.9999999995 1438 78 1884 c 0,21,22
 78 2310 78 2310 467 2535 c 0,23,24
 786 2715 786 2715 1245 2716 c 0,25,26
 1716 2716 1716 2716 2179 2527 c 1,27,28
 2175 2384 2175 2384 2175 2359 c 0,29,30
 2175 2220 2175 2220 2212 1749 c 1,31,-1
 2064 1749 l 1,32,33
 2023 2011 2023 2011 1786 2150 c 0,34,35
 1585 2265 1585 2265 1298 2265 c 0,36,37
 872 2265 872 2265 872 2019 c 0,38,39
 872 1863 872 1863 1257 1749 c 0,40,41
 1806 1581 1806 1581 1970 1479 c 0,42,43
 2351 1245 2351 1245 2351 803 c 0,0,1
EndSplineSet
Validated: 33
Substitution2: "'ss03' Egyptian Hieratic-Latin" S.hier
Substitution2: "'ss02' Egyptian Transliteration-Latin" S.tran
Substitution2: "'ss01' BoPoMoFo-Latin" S.bpmf
EndChar

StartChar: T
Encoding: 84 84 52
Width: 2658
Flags: W
LayerCount: 2
Fore
SplineSet
2658 1704 m 1,0,-1
 2503 1704 l 1,1,2
 2458 2028 2458 2028 2265 2109 c 0,3,4
 2167 2150 2167 2150 1774 2150 c 1,5,-1
 1774 340 l 2,6,7
 1774 131 1774 131 2036 131 c 1,8,-1
 2036 -25 l 1,9,10
 1676 -8.99999999995 1676 -8.99999999995 1245 -8 c 0,11,12
 913.000000005 -8 913.000000005 -8 631 -25 c 1,13,-1
 631 131 l 1,14,15
 881 131 881 131 881 340 c 2,16,-1
 881 2150 l 1,17,-1
 709 2150 l 2,18,19
 426 2150 426 2150 323.5 2064 c 128,-1,20
 221 1978 221 1978 152 1704 c 1,21,-1
 -4 1704 l 1,22,23
 90.0000000001 2380 90.0000000001 2380 90 2621 c 1,24,-1
 2593 2621 l 1,25,26
 2605 2314 2605 2314 2658 1704 c 1,0,-1
EndSplineSet
Validated: 33
Substitution2: "'ss03' Egyptian Hieratic-Latin" T.hier
Substitution2: "'ss02' Egyptian Transliteration-Latin" T.tran
EndChar

StartChar: U
Encoding: 85 85 53
Width: 2859
Flags: W
LayerCount: 2
Fore
SplineSet
2785 2490 m 1,0,1
 2617 2490 2617 2490 2617 2298 c 2,2,-1
 2617 975 l 2,3,4
 2617 361 2617 361 2322 123 c 0,5,6
 2060 -90 2060 -90 1430 -90 c 256,7,8
 798.999999995 -90 798.999999995 -90 537 123 c 0,9,10
 242 361 242 361 242 975 c 2,11,-1
 242 2298 l 2,12,13
 242 2491 242 2491 74 2490 c 1,14,-1
 74 2646 l 1,15,16
 406 2630 406 2630 786 2630 c 0,17,18
 1085 2630 1085 2630 1327 2646 c 1,19,-1
 1327 2490 l 1,20,21
 1245 2490 1245 2490 1190 2439 c 128,-1,22
 1135 2388 1135 2388 1135 2306 c 2,23,-1
 1135 754 l 2,24,25
 1135 381 1135 381 1430 381 c 256,26,27
 1725 381 1725 381 1724 754 c 2,28,-1
 1724 2306 l 2,29,30
 1724 2490 1724 2490 1532 2490 c 1,31,-1
 1532 2646 l 1,32,33
 1831 2630 1831 2630 2216 2630 c 0,34,35
 2515 2630 2515 2630 2785 2646 c 1,36,-1
 2785 2490 l 1,0,1
EndSplineSet
Validated: 33
EndChar

StartChar: V
Encoding: 86 86 54
Width: 3080
Flags: W
LayerCount: 2
Fore
SplineSet
2966 2490 m 1,0,1
 2839 2490 2839 2490 2765 2359 c 0,2,3
 2732 2306 2732 2306 2675 2118 c 2,4,-1
 1991 -25 l 1,5,6
 1758 -8.99999999995 1758 -8.99999999995 1483 -8 c 0,7,8
 1270 -8 1270 -8 1085 -25 c 1,9,-1
 369 2130 l 2,10,11
 303 2327 303 2327 287 2355 c 0,12,13
 217 2490 217 2490 111 2490 c 1,14,-1
 111 2646 l 1,15,16
 459 2626 459 2626 860 2626 c 0,17,18
 1192 2626 1192 2626 1483 2646 c 1,19,-1
 1483 2490 l 1,20,21
 1274 2490 1274 2490 1274 2367 c 0,22,23
 1274 2056 1274 2056 1434 1552 c 1,24,25
 1434 1552 1434 1552 1720 750 c 1,26,-1
 1729 750 l 1,27,28
 1868 1143 1868 1143 2003 1536 c 1,29,30
 2167 2040 2167 2040 2167 2331 c 0,31,32
 2167 2491 2167 2491 1974 2490 c 1,33,-1
 1974 2646 l 1,34,35
 2236 2630 2236 2630 2540 2630 c 0,36,37
 2773 2630 2773 2630 2966 2646 c 1,38,-1
 2966 2490 l 1,0,1
EndSplineSet
Validated: 33
EndChar

StartChar: W
Encoding: 87 87 55
Width: 4141
Flags: W
LayerCount: 2
Fore
SplineSet
4071 2490 m 1,0,1
 3899 2482 3899 2482 3834 2208 c 2,2,-1
 3297 -25 l 1,3,4
 3080 -8.99999999995 3080 -8.99999999995 2822 -8 c 0,5,6
 2617 -8 2617 -8 2449 -25 c 1,7,-1
 2118 1421 l 1,8,-1
 2109 1421 l 1,9,-1
 1769 -25 l 1,10,11
 1540 -8.99999999995 1540 -8.99999999995 1286 -8 c 0,12,13
 1089 -8 1089 -8 934 -25 c 1,14,-1
 311 2306 l 2,15,16
 262 2494 262 2494 106 2494 c 1,17,-1
 106 2646 l 1,18,19
 430 2630 430 2630 807 2630 c 0,20,21
 1102 2630 1102 2630 1343 2646 c 1,22,-1
 1343 2490 l 1,23,24
 1183 2465 1183 2465 1184 2376 c 0,25,26
 1184 2040 1184 2040 1311 1556 c 1,27,28
 1426 1155 1426 1155 1544 754 c 1,29,-1
 1552 754 l 1,30,-1
 1901 2101 l 1,31,32
 1840 2318 1840 2318 1827 2347 c 0,33,34
 1766 2474 1766 2474 1634 2490 c 1,35,-1
 1634 2646 l 1,36,37
 1941 2630 1941 2630 2318 2630 c 0,38,39
 2617 2630 2617 2630 2871 2646 c 1,40,-1
 2871 2490 l 1,41,42
 2695 2490 2695 2490 2695 2384 c 0,43,44
 2695 2044 2695 2044 2830 1561 c 1,45,46
 2953 1155 2953 1155 3076 754 c 1,47,-1
 3084 754 l 1,48,49
 3182 1155 3182 1155 3281 1561 c 1,50,51
 3387 2036 3387 2036 3387 2376 c 0,52,53
 3387 2491 3387 2491 3228 2490 c 1,54,-1
 3228 2646 l 1,55,56
 3466 2626 3466 2626 3674 2626 c 0,57,58
 3887 2626 3887 2626 4071 2646 c 1,59,-1
 4071 2490 l 1,0,1
EndSplineSet
Validated: 33
Substitution2: "'ss03' Egyptian Hieratic-Latin" W.hier
Substitution2: "'ss02' Egyptian Transliteration-Latin" W.tran
EndChar

StartChar: X
Encoding: 88 88 56
Width: 2744
Flags: W
LayerCount: 2
Fore
SplineSet
2773 -25 m 1,0,1
 2404 -5.00000000005 2404 -5.00000000005 2060 -4 c 0,2,3
 1712 -4 1712 -4 1389 -25 c 1,4,-1
 1389 131 l 1,5,6
 1565 131 1565 131 1565 250 c 0,7,8
 1565 311 1565 311 1270 946 c 1,9,10
 1168 770 1168 770 1065 590 c 0,11,12
 922 332 922 332 922 238 c 0,13,14
 922 132 922 132 1081 131 c 1,15,-1
 1081 -25 l 1,16,17
 811 -8.99999999995 811 -8.99999999995 516 -8 c 0,18,19
 291 -8 291 -8 115 -25 c 1,20,-1
 115 131 l 1,21,22
 291 143 291 143 594 639 c 0,23,24
 610 668 610 668 967 1315 c 1,25,26
 795 1659 795 1659 618 2003 c 1,27,28
 339 2490 339 2490 143 2490 c 1,29,-1
 143 2646 l 1,30,31
 549 2630 549 2630 893 2630 c 0,32,33
 1241 2630 1241 2630 1528 2646 c 1,34,-1
 1528 2490 l 1,35,36
 1389 2490 1389 2490 1389 2396 c 0,37,38
 1389 2285 1389 2285 1610 1831 c 1,39,40
 1868 2323 1868 2323 1868 2380 c 0,41,42
 1868 2491 1868 2491 1737 2490 c 1,43,-1
 1737 2646 l 1,44,45
 1975 2626 1975 2626 2204 2626 c 256,46,47
 2433 2626 2433 2626 2654 2646 c 1,48,-1
 2654 2490 l 1,49,50
 2466 2490 2466 2490 2212 2064 c 1,51,52
 2056 1761 2056 1761 1901 1458 c 1,53,54
 2212 856.000000005 2212 856.000000005 2298 705 c 0,55,56
 2630 132 2630 132 2773 131 c 1,57,-1
 2773 -25 l 1,0,1
EndSplineSet
Validated: 33
Substitution2: "'ss03' Egyptian Hieratic-Latin" X.hier
Substitution2: "'ss02' Egyptian Transliteration-Latin" X.tran
EndChar

StartChar: Y
Encoding: 89 89 57
Width: 2703
Flags: W
LayerCount: 2
Fore
SplineSet
2707 2486 m 1,0,1
 2576 2486 2576 2486 2511 2322 c 2,2,-1
 1876 799 l 1,3,-1
 1876 315 l 2,4,5
 1876 131 1876 131 2081 131 c 1,6,-1
 2081 -25 l 1,7,8
 1753 -5.00000000005 1753 -5.00000000005 1425 -4 c 256,9,10
 1097 -4 1097 -4 770 -25 c 1,11,-1
 770 131 l 1,12,13
 983 131 983 131 983 315 c 2,14,-1
 983 786 l 1,15,-1
 344 2294 l 2,16,17
 295 2405 295 2405 262 2437 c 0,18,19
 213 2490 213 2490 111 2490 c 1,20,-1
 111 2646 l 1,21,22
 447 2626 447 2626 774 2626 c 256,23,24
 1102 2626 1102 2626 1421 2646 c 1,25,-1
 1421 2490 l 1,26,27
 1282 2490 1282 2490 1282 2400 c 0,28,29
 1282 2330 1282 2330 1638 1389 c 1,30,-1
 1647 1389 l 1,31,32
 1979 2266 1979 2266 1978 2367 c 0,33,34
 1978 2490 1978 2490 1839 2490 c 1,35,-1
 1839 2646 l 1,36,37
 2068 2626 2068 2626 2286 2626 c 256,38,39
 2503 2626 2503 2626 2707 2646 c 1,40,-1
 2707 2486 l 1,0,1
EndSplineSet
Validated: 33
EndChar

StartChar: Z
Encoding: 90 90 58
Width: 2424
Flags: W
LayerCount: 2
Fore
SplineSet
2376 864 m 1,0,1
 2335 577 2335 577 2286 0 c 1,2,-1
 53 0 l 1,3,4
 573 1102 573 1102 1118 2175 c 1,5,-1
 758 2175 l 2,6,7
 549 2175 549 2175 455 2126 c 0,8,9
 324 2060 324 2060 299 1872 c 1,10,-1
 147 1872 l 1,11,12
 184 2208 184 2208 213 2621 c 1,13,-1
 2286 2621 l 1,14,15
 1934 1876 1934 1876 1245 471 c 1,16,-1
 1782 471 l 2,17,18
 2007 471 2007 471 2097 557 c 0,19,20
 2175 635 2175 635 2220 864 c 1,21,-1
 2376 864 l 1,0,1
EndSplineSet
Validated: 1
Substitution2: "'ss01' BoPoMoFo-Latin" Z.bpmf
EndChar

StartChar: bracketleft
Encoding: 91 91 59
Width: 1703
Flags: W
LayerCount: 2
Fore
SplineSet
1380 -836 m 1,0,1
 483 -676 483 -676 180 -639 c 1,2,-1
 180 3256 l 1,3,4
 409 3272 409 3272 1393 3445 c 1,5,-1
 1409 3228 l 1,6,7
 1270 3228 1270 3228 1081 3158 c 0,8,9
 852 3076 852 3076 852 2961 c 2,10,-1
 852 -344 l 2,11,12
 852 -459 852 -459 1085 -537 c 0,13,14
 1273 -603 1273 -603 1413 -602 c 1,15,-1
 1380 -836 l 1,0,1
EndSplineSet
Validated: 33
EndChar

StartChar: backslash
Encoding: 92 92 60
Width: 1843
Flags: W
LayerCount: 2
Fore
SplineSet
2093 -369 m 1,0,-1
 1569 -369 l 1,1,-1
 -360 3269 l 1,2,-1
 164 3269 l 1,3,-1
 2093 -369 l 1,0,-1
EndSplineSet
Validated: 1
EndChar

StartChar: bracketright
Encoding: 93 93 61
Width: 1949
Flags: W
LayerCount: 2
Fore
SplineSet
336 -836 m 1,0,1
 1233 -676 1233 -676 1536 -639 c 1,2,-1
 1536 3256 l 1,3,4
 1307 3272 1307 3272 324 3445 c 1,5,-1
 307 3228 l 1,6,7
 446 3228 446 3228 635 3158 c 0,8,9
 864 3076 864 3076 864 2961 c 2,10,-1
 864 -344 l 2,11,12
 864 -459 864 -459 631 -537 c 0,13,14
 443 -603 443 -603 303 -602 c 1,15,-1
 336 -836 l 1,0,1
EndSplineSet
Validated: 41
EndChar

StartChar: asciicircum
Encoding: 94 94 62
Width: 2199
Flags: W
LayerCount: 2
Fore
SplineSet
2032 1114 m 1,0,-1
 1552 1114 l 1,1,-1
 1102 2126 l 1,2,-1
 647 1114 l 1,3,-1
 172 1114 l 1,4,-1
 885 2621 l 1,5,-1
 1319 2621 l 1,6,-1
 2032 1114 l 1,0,-1
EndSplineSet
Validated: 1
EndChar

StartChar: underscore
Encoding: 95 95 63
Width: 1843
Flags: W
LayerCount: 2
Fore
SplineSet
1946 -569 m 1,0,-1
 -102 -569 l 1,1,-1
 -102 -311 l 1,2,-1
 1946 -311 l 1,3,-1
 1946 -569 l 1,0,-1
EndSplineSet
Validated: 1
EndChar

StartChar: grave
Encoding: 96 96 64
Width: 1204
Flags: W
LayerCount: 2
Fore
SplineSet
1122 2159 m 1,0,-1
 844 2159 l 1,1,-1
 299 2478 l 2,2,3
 81.9999999995 2605 81.9999999995 2605 82 2740 c 0,4,5
 82 2842 82 2842 157.5 2901.5 c 128,-1,6
 233 2961 233 2961 340 2961 c 0,7,8
 516 2961 516 2961 631 2810 c 2,9,-1
 1122 2159 l 1,0,-1
EndSplineSet
Validated: 33
EndChar

StartChar: a
Encoding: 97 97 65
Width: 2539
Flags: W
LayerCount: 2
Fore
SplineSet
1417 1417 m 1,0,1
 1380 1622 1380 1622 983 1622 c 0,2,3
 815 1622 815 1622 688 1548 c 0,4,5
 545 1462 545 1462 524 1303 c 1,6,-1
 311 1303 l 1,7,8
 340 1553 340 1553 340 1614 c 0,9,10
 340 1647 340 1647 332 1708 c 128,-1,11
 324 1769 324 1769 324 1798 c 0,12,13
 324 1909 324 1909 606 1962 c 0,14,15
 786 1995 786 1995 983 1995 c 0,16,17
 1774 1995 1774 1995 2036 1745 c 0,18,19
 2245 1548 2245 1548 2245 999 c 0,20,21
 2245 905 2245 905 2238.5 663.5 c 128,-1,22
 2232 422 2232 422 2232 274 c 256,23,24
 2232 127 2232 127 2429 131 c 1,25,-1
 2429 -25 l 1,26,27
 2204 -5.00000000005 2204 -5.00000000005 1974 -4 c 0,28,29
 1741 -4 1741 -4 1507 -25 c 1,30,-1
 1516 274 l 1,31,-1
 1507 274 l 1,32,33
 1413 98.0000000005 1413 98.0000000005 1226.5 4 c 128,-1,34
 1040 -90.0000000001 1040 -90.0000000001 831 -90 c 0,35,36
 540 -90 540 -90 336 70 c 0,37,38
 115 242 115 242 115 524 c 0,39,40
 115 786 115 786 266 930 c 0,41,42
 385 1045 385 1045 627 1102 c 0,43,44
 631 1102 631 1102 1061 1171 c 0,45,46
 1163 1187 1163 1187 1278 1241 c 0,47,48
 1425 1311 1425 1311 1425 1384 c 1,49,-1
 1417 1417 l 1,0,1
1413 766 m 2,50,-1
 1413 934 l 1,51,52
 1167 901 1167 901 1102 877 c 0,53,54
 914 816 914 816 913 664 c 0,55,56
 913 492 913 492 979 467 c 1,57,58
 1032 422 1032 422 1155 422 c 0,59,60
 1413 422 1413 422 1413 766 c 2,50,-1
EndSplineSet
Validated: 33
Substitution2: "'ss03' Egyptian Hieratic-Latin" a.hier
Substitution2: "'ss02' Egyptian Transliteration-Latin" a.tran
Substitution2: "'ss01' BoPoMoFo-Latin" a.bpmf
EndChar

StartChar: b
Encoding: 98 98 66
Width: 2781
Flags: W
LayerCount: 2
Fore
SplineSet
2630 1020 m 0,0,1
 2630 512 2630 512 2326.5 211 c 128,-1,2
 2023 -90.0000000001 2023 -90.0000000001 1516 -90 c 0,3,4
 950.999999995 -90 950.999999995 -90 725 283 c 1,5,-1
 541 -25 l 1,6,-1
 266 -25 l 1,7,8
 344 389 344 389 344 614 c 2,9,-1
 344 2445 l 2,10,11
 344 2597 344 2597 152 2597 c 1,12,-1
 152 2757 l 1,13,14
 717 2831 717 2831 1196 3019 c 1,15,16
 1163 2220 1163 2220 1163 1794 c 1,17,18
 1364 1995 1364 1995 1724 1995 c 0,19,20
 2130 1995 2130 1995 2388 1708 c 0,21,22
 2630 1434 2630 1434 2630 1020 c 0,0,1
1765 991 m 2,23,24
 1765 1175 1765 1175 1753 1236.5 c 128,-1,25
 1741 1298 1741 1298 1704 1401 c 1,26,27
 1696 1462 1696 1462 1624 1499 c 128,-1,28
 1552 1536 1552 1536 1470 1524 c 0,29,30
 1175 1479 1175 1479 1208 983 c 0,31,32
 1208 938 1208 938 1212 836 c 1,33,34
 1204 754 1204 754 1233 598 c 1,35,36
 1237 500 1237 500 1306.5 428 c 128,-1,37
 1376 356 1376 356 1470 356 c 0,38,39
 1617 356 1617 356 1700 504 c 0,40,41
 1766 623 1766 623 1765 778 c 2,42,43
 1765 778 1765 778 1765 991 c 2,23,24
EndSplineSet
Validated: 33
Substitution2: "'ss03' Egyptian Hieratic-Latin" b.hier
Substitution2: "'ss02' Egyptian Transliteration-Latin" b.tran
Substitution2: "'ss01' BoPoMoFo-Latin" b.bpmf
EndChar

StartChar: c
Encoding: 99 99 67
Width: 2293
Flags: W
LayerCount: 2
Fore
SplineSet
2159 610 m 1,0,-1
 2081 41 l 1,1,2
 1782 -90 1782 -90 1335 -90 c 0,3,4
 843 -90 843 -90 504 180 c 0,5,6
 135 475 135 475 135 954 c 0,7,8
 135 1437 135 1437 520 1729 c 0,9,10
 868 1995 868 1995 1368 1995 c 2,11,12
 1368 1995 1368 1995 1499 1995 c 1,13,14
 1589 1999 1589 1999 1634 1999 c 0,15,16
 1859 1999 1859 1999 1892 1991 c 0,17,18
 2035 1962 2035 1962 2036 1827 c 0,19,20
 2036 1790 2036 1790 2042 1718.5 c 128,-1,21
 2048 1647 2048 1647 2048 1610 c 0,22,23
 2048 1471 2048 1471 2068 1307 c 1,24,-1
 1864 1307 l 1,25,26
 1807 1446 1807 1446 1700 1491 c 0,27,28
 1618 1524 1618 1524 1434 1524 c 0,29,30
 1221 1524 1221 1524 1069 1401 c 0,31,32
 901 1262 901 1262 905 1028 c 0,33,34
 917 426 917 426 1556 426 c 0,35,36
 1848 426 1848 426 2159 610 c 1,0,-1
EndSplineSet
Validated: 33
Substitution2: "'ss01' BoPoMoFo-Latin" c.bpmf
EndChar

StartChar: d
Encoding: 100 100 68
Width: 2805
Flags: W
LayerCount: 2
Fore
SplineSet
2642 -25 m 1,0,1
 2372 -8.99999999995 2372 -8.99999999995 2064 -8 c 0,2,3
 1831 -8 1831 -8 1638 -25 c 1,4,-1
 1663 250 l 1,5,-1
 1655 250 l 1,6,7
 1438 -90.0000000001 1438 -90.0000000001 1065 -90 c 0,8,9
 639 -90 639 -90 389 254 c 0,10,11
 164 561 164 561 164 1004 c 0,12,13
 164 1422 164 1422 440.5 1708.5 c 128,-1,14
 717 1995 717 1995 1135 1995 c 0,15,16
 1450 1995 1450 1995 1630 1802 c 1,17,-1
 1630 2445 l 2,18,19
 1630 2597 1630 2597 1384 2597 c 1,20,-1
 1384 2757 l 1,21,22
 1990 2827 1990 2827 2482 3019 c 1,23,24
 2437 1413 2437 1413 2437 758 c 0,25,26
 2437 131 2437 131 2642 131 c 1,27,-1
 2642 -25 l 1,0,1
1597 967 m 0,28,29
 1597 1000 1597 1000 1605.5 1065 c 128,-1,30
 1614 1130 1614 1130 1614 1163 c 0,31,32
 1614 1282 1614 1282 1573 1323 c 1,33,34
 1557 1548 1557 1548 1352 1548 c 0,35,36
 1196 1548 1196 1548 1110 1339 c 0,37,38
 1049 1183 1049 1183 1049 999 c 0,39,40
 1049 761 1049 761 1053 677.5 c 128,-1,41
 1057 594 1057 594 1114 557 c 1,42,43
 1134 422 1134 422 1323 422 c 0,44,45
 1597 422 1597 422 1597 967 c 0,28,29
EndSplineSet
Validated: 33
Substitution2: "'ss03' Egyptian Hieratic-Latin" d.hier
Substitution2: "'ss02' Egyptian Transliteration-Latin" d.tran
Substitution2: "'ss01' BoPoMoFo-Latin" d.bpmf
EndChar

StartChar: e
Encoding: 101 101 69
Width: 2428
Flags: W
LayerCount: 2
Fore
SplineSet
1614 406 m 0,0,1
 2040 406 2040 406 2241 541 c 1,2,-1
 2187 127 l 1,3,4
 1835 -90 1835 -90 1233 -90 c 0,5,6
 741 -90 741 -90 426 180 c 0,7,8
 90 467 90 467 90 946 c 0,9,10
 90 1429 90 1429 430 1720 c 0,11,12
 749 1994 749 1994 1241 1995 c 0,13,14
 1712 1995 1712 1995 2007 1778 c 0,15,16
 2339 1536 2339 1536 2339 1081 c 0,17,18
 2339 962.000000005 2339 962.000000005 2327 872 c 1,19,-1
 905 868 l 1,20,21
 901 626 901 626 1171 500 c 0,22,23
 1372 406 1372 406 1614 406 c 0,0,1
1704 1225 m 1,24,25
 1712 1245 1712 1245 1688 1360 c 0,26,27
 1639 1589 1639 1589 1315 1589 c 0,28,29
 1163 1589 1163 1589 1050.5 1489 c 128,-1,30
 938 1389 938 1389 938 1237 c 0,31,32
 938 1221 938 1221 999 1221 c 2,33,-1
 1704 1225 l 1,24,25
EndSplineSet
Validated: 33
Substitution2: "'ss01' BoPoMoFo-Latin" e.bpmf
EndChar

StartChar: f
Encoding: 102 102 70
Width: 1802
Flags: W
LayerCount: 2
Fore
SplineSet
1065 1688 m 1,0,-1
 1569 1683 l 1,1,-1
 1569 1307 l 1,2,-1
 1065 1307 l 1,3,-1
 1065 274 l 2,4,5
 1065 208 1065 208 1200 188 c 0,6,7
 1298 172 1298 172 1380 184 c 1,8,-1
 1380 0 l 1,9,-1
 0 0 l 1,10,-1
 0 188 l 1,11,-1
 25 188 l 2,12,13
 103 188 103 188 174.5 223 c 128,-1,14
 246 258 246 258 246 328 c 2,15,-1
 246 1303 l 1,16,-1
 33 1303 l 1,17,-1
 33 1675 l 1,18,19
 254 1708 254 1708 254 1884 c 0,20,21
 254 1913 254 1913 250 1986.5 c 128,-1,22
 246 2060 246 2060 246 2109 c 0,23,24
 246 2605 246 2605 473 2838.5 c 128,-1,25
 700 3072 700 3072 1200 3072 c 0,26,27
 1405 3072 1405 3072 1565 2970 c 0,28,29
 1753 2851 1753 2851 1753 2658 c 0,30,31
 1753 2515 1753 2515 1659 2418.5 c 128,-1,32
 1565 2322 1565 2322 1417 2318 c 0,33,34
 1179 2314 1179 2314 1102 2458 c 0,35,36
 1061 2528 1061 2528 1053 2720 c 0,37,38
 1045 2863 1045 2863 983 2863 c 0,39,40
 913 2863 913 2863 877 2699 c 0,41,42
 852 2584 852 2584 856 2482 c 0,43,44
 864 2224 864 2224 909 2101 c 0,45,46
 913 2081 913 2081 963 1929 c 0,47,48
 1024 1749 1024 1749 1065 1688 c 1,0,-1
EndSplineSet
Validated: 33
Substitution2: "'ss03' Egyptian Hieratic-Latin" f.hier
Substitution2: "'ss02' Egyptian Transliteration-Latin" f.tran
Substitution2: "'ss01' BoPoMoFo-Latin" f.bpmf
EndChar

StartChar: g
Encoding: 103 103 71
Width: 2482
Flags: W
LayerCount: 2
Fore
SplineSet
2413 2130 m 0,0,1
 2413 1897 2413 1897 2142 1896 c 0,2,3
 1933 1896 1933 1896 1933 2089 c 0,4,5
 1933 2142 1933 2142 1950 2195 c 2,6,-1
 1970 2245 l 1,7,8
 1884 2237 1884 2237 1788 2132.5 c 128,-1,9
 1692 2028 1692 2028 1659 1933 c 1,10,11
 2253 1765 2253 1765 2253 1384 c 0,12,13
 2253 950.000000005 2253 950.000000005 1729 819 c 0,14,15
 1487 758 1487 758 860 758 c 0,16,17
 745 758 745 758 725 754 c 0,18,19
 643 742 643 742 643 684 c 0,20,21
 643 512 643 512 1417 512 c 0,22,23
 1880 512 1880 512 2064 442 c 0,24,25
 2375 323 2375 323 2376 -53 c 0,26,27
 2376 -475 2376 -475 1958 -672 c 0,28,29
 1643 -819 1643 -819 1155 -819 c 0,30,31
 201 -819 201 -819 147 -426 c 0,32,33
 143 -389 143 -389 143 -356 c 0,34,35
 143 -163 143 -163 295 -41 c 0,36,37
 422 61 422 61 582 61 c 1,38,39
 389 61 389 61 258 139 c 1,40,41
 94.0000000005 229 94.0000000005 229 82 410 c 0,42,43
 62 664 62 664 156 788.5 c 128,-1,44
 250 913 250 913 475 909 c 1,45,46
 127 1007 127 1007 127 1421 c 0,47,48
 127 1982 127 1982 1204 1982 c 0,49,50
 1294 1982 1294 1982 1384 1970 c 1,51,52
 1458 2130 1458 2130 1673 2263 c 128,-1,53
 1888 2396 1888 2396 2073 2396 c 0,54,55
 2212 2396 2212 2396 2312.5 2328.5 c 128,-1,56
 2413 2261 2413 2261 2413 2130 c 0,0,1
1454 1266 m 0,57,58
 1454 1426 1454 1426 1442 1573 c 0,59,60
 1434 1671 1434 1671 1356 1700 c 0,61,62
 1311 1716 1311 1716 1171 1716 c 0,63,64
 946 1716 946 1716 946 1544 c 0,65,66
 946 1519 946 1519 942 1458 c 1,67,68
 942 1458 942 1458 942 1368 c 2,69,70
 942 1073 942 1073 1188 1073 c 0,71,72
 1454 1073 1454 1073 1454 1266 c 0,57,58
1749 -164 m 0,73,74
 1753 -12 1753 -12 1585 41 c 1,75,76
 1491 66.0000000001 1491 66.0000000001 1290 66 c 0,77,78
 1036 66 1036 66 946 37 c 0,79,80
 799 -8 799 -8 786 -168 c 0,81,82
 770 -389 770 -389 1257 -389 c 256,83,84
 1745 -389 1745 -389 1749 -164 c 0,73,74
EndSplineSet
Validated: 33
Substitution2: "'ss03' Egyptian Hieratic-Latin" g.hier
Substitution2: "'ss02' Egyptian Transliteration-Latin" g.tran
Substitution2: "'ss01' BoPoMoFo-Latin" g.bpmf
EndChar

StartChar: h
Encoding: 104 104 72
Width: 2555
Flags: W
LayerCount: 2
Fore
SplineSet
2564 -25 m 1,0,1
 2314 -8.99999999995 2314 -8.99999999995 1999 -8 c 0,2,3
 1753 -8 1753 -8 1532 -25 c 1,4,5
 1552 155 1552 155 1552 254 c 2,6,-1
 1552 1200 l 2,7,8
 1552 1421 1552 1421 1348 1421 c 0,9,10
 1098 1421 1098 1421 1098 1139 c 2,11,-1
 1098 279 l 2,12,13
 1098 132 1098 132 1290 131 c 1,14,-1
 1290 -25 l 1,15,16
 982.999999995 -8.99999999995 982.999999995 -8.99999999995 688 -8 c 256,17,18
 393 -8 393 -8 86 -25 c 1,19,-1
 86 131 l 1,20,21
 279 131 279 131 279 279 c 2,22,-1
 279 2445 l 2,23,24
 279 2597 279 2597 86 2597 c 1,25,-1
 86 2757 l 1,26,27
 651 2831 651 2831 1130 3019 c 1,28,-1
 1126 2892 l 2,29,30
 1106 2331 1106 2331 1098 1696 c 1,31,-1
 1106 1696 l 1,32,33
 1323 1995 1323 1995 1700 1995 c 0,34,35
 2376 1995 2376 1995 2376 1180 c 0,36,37
 2376 1069 2376 1069 2361.5 843.5 c 128,-1,38
 2347 618 2347 618 2347 508 c 0,39,40
 2347 131 2347 131 2564 131 c 1,41,-1
 2564 -25 l 1,0,1
EndSplineSet
Validated: 1
Substitution2: "'ss03' Egyptian Hieratic-Latin" h.hier
Substitution2: "'ss02' Egyptian Transliteration-Latin" h.tran
Substitution2: "'ss01' BoPoMoFo-Latin" h.bpmf
EndChar

StartChar: i
Encoding: 105 105 73
Width: 1503
Flags: W
LayerCount: 2
Fore
SplineSet
1192 2544 m 256,0,1
 1192 2167 1192 2167 745 2167 c 256,2,3
 299 2167 299 2167 299 2544 c 256,4,5
 299 2921 299 2921 745 2920 c 256,6,7
 1192 2921 1192 2921 1192 2544 c 256,0,1
1352 -25 m 1,8,9
 918.000000005 5.00222085975e-12 918.000000005 5.00222085975e-12 750 0 c 256,10,11
 582 0 582 0 147 -25 c 1,12,-1
 147 131 l 1,13,14
 340 131 340 131 340 279 c 2,15,-1
 340 1581 l 2,16,17
 340 1712 340 1712 147 1712 c 1,18,-1
 147 1872 l 1,19,20
 737 1917 737 1917 1171 2085 c 1,21,22
 1159 1815 1159 1815 1159 1507 c 2,23,-1
 1159 279 l 2,24,25
 1159 132 1159 132 1352 131 c 1,26,-1
 1352 -25 l 1,8,9
EndSplineSet
Validated: 33
Substitution2: "'ss03' Egyptian Hieratic-Latin" i.hier
Substitution2: "'ss02' Egyptian Transliteration-Latin" i.tran
Substitution2: "'ss01' BoPoMoFo-Latin" i.bpmf
EndChar

StartChar: j
Encoding: 106 106 74
Width: 1818
Flags: W
LayerCount: 2
Fore
SplineSet
1020 -418 m 0,0,1
 1020 12.0000000005 1020 12.0000000005 762 53 c 1,2,-1
 762 1679 l 1,3,4
 696 1765 696 1765 451 1778 c 1,5,-1
 410 1962 l 1,6,7
 480 1962 480 1962 1585 2007 c 1,8,-1
 1593 94 l 2,9,10
 1597 -426 1597 -426 1413 -651 c 0,11,12
 1204 -909 1204 -909 676 -909 c 0,13,14
 471 -909 471 -909 307 -807 c 0,15,16
 123 -688 123 -688 123 -496 c 0,17,18
 123 -349 123 -349 217 -252.5 c 128,-1,19
 311 -156 311 -156 459 -156 c 0,20,21
 664 -156 664 -156 745 -295 c 0,22,23
 782 -365 782 -365 811 -557 c 1,24,25
 827 -700 827 -700 893 -700 c 0,26,27
 942 -700 942 -700 987 -582 c 1,28,29
 1020 -484 1020 -484 1020 -418 c 0,0,1
1561 2585 m 256,30,31
 1561 2208 1561 2208 1114 2208 c 256,32,33
 668 2208 668 2208 668 2585 c 256,34,35
 668 2962 668 2962 1114 2961 c 256,36,37
 1561 2962 1561 2962 1561 2585 c 256,30,31
EndSplineSet
Validated: 33
Substitution2: "'ss03' Egyptian Hieratic-Latin" I.hier
Substitution2: "'ss02' Egyptian Transliteration-Latin" I.tran
Substitution2: "'ss01' BoPoMoFo-Latin" j.bpmf
EndChar

StartChar: k
Encoding: 107 107 75
Width: 2797
Flags: W
LayerCount: 2
Fore
SplineSet
2666 -25 m 1,0,1
 2416 -8.99999999995 2416 -8.99999999995 2105 -8 c 0,2,3
 1863 -8 1863 -8 1651 -25 c 1,4,5
 1487 303 1487 303 1147 938 c 1,6,-1
 1139 938 l 1,7,-1
 1139 279 l 2,8,9
 1139 132 1139 132 1327 131 c 1,10,-1
 1327 -25 l 1,11,12
 1024 -8.99999999995 1024 -8.99999999995 729 -8 c 256,13,14
 434 -8 434 -8 131 -25 c 1,15,-1
 131 131 l 1,16,17
 319 131 319 131 319 279 c 2,18,-1
 319 2445 l 2,19,20
 319 2597 319 2597 131 2597 c 1,21,-1
 131 2757 l 1,22,23
 692 2831 692 2831 1171 3019 c 1,24,25
 1138 2380 1138 2380 1139 950 c 1,26,-1
 1147 950 l 1,27,28
 1700 1552 1700 1552 1700 1688 c 0,29,30
 1700 1770 1700 1770 1491 1769 c 1,31,-1
 1491 1929 l 1,32,33
 1782 1913 1782 1913 2105 1913 c 0,34,35
 2367 1913 2367 1913 2580 1929 c 1,36,-1
 1970 1249 l 1,37,38
 2220 631 2220 631 2241 594 c 0,39,40
 2466 131 2466 131 2666 131 c 1,41,-1
 2666 -25 l 1,0,1
EndSplineSet
Validated: 33
Substitution2: "'ss03' Egyptian Hieratic-Latin" k.hier
Substitution2: "'ss02' Egyptian Transliteration-Latin" k.tran
Substitution2: "'ss01' BoPoMoFo-Latin" k.bpmf
EndChar

StartChar: l
Encoding: 108 108 76
Width: 1273
Flags: W
LayerCount: 2
Fore
SplineSet
37 2757 m 1,0,-1
 37 2597 l 1,1,2
 230 2597 230 2597 229 2445 c 2,3,-1
 229 279 l 2,4,5
 229 132 229 132 37 131 c 1,6,-1
 37 -25 l 1,7,8
 340 -8.99999999995 340 -8.99999999995 639 -8 c 0,9,10
 934 -8 934 -8 1241 -25 c 1,11,-1
 1241 131 l 1,12,13
 1069 131 1069 131 1049 279 c 1,14,-1
 1044 3031 l 1,15,16
 496 2818 496 2818 37 2757 c 1,0,-1
EndSplineSet
Validated: 41
Substitution2: "'ss03' Egyptian Hieratic-Latin" l.hier
Substitution2: "'ss02' Egyptian Transliteration-Latin" l.tran
Substitution2: "'ss01' BoPoMoFo-Latin" l.bpmf
EndChar

StartChar: m
Encoding: 109 109 77
Width: 3969
Flags: W
LayerCount: 2
Fore
SplineSet
3813 -25 m 1,0,1
 3559 -8.99999999995 3559 -8.99999999995 3252 -8 c 0,2,3
 3010 -8 3010 -8 2802 -25 c 1,4,5
 2802 90 2802 90 2828.5 321.5 c 128,-1,6
 2855 553 2855 553 2855 664 c 0,7,8
 2855 725 2855 725 2843 766 c 1,9,-1
 2843 856 l 1,10,11
 2847 1032 2847 1032 2810 1163 c 0,12,13
 2757 1360 2757 1360 2626 1360 c 0,14,15
 2524 1360 2524 1360 2460 1284 c 128,-1,16
 2396 1208 2396 1208 2396 1106 c 2,17,-1
 2396 315 l 2,18,19
 2396 131 2396 131 2589 131 c 1,20,-1
 2589 -25 l 1,21,22
 2306 -5.00000000005 2306 -5.00000000005 1970 -4 c 0,23,24
 1696 -4 1696 -4 1446 -25 c 1,25,-1
 1446 131 l 1,26,27
 1577 131 1577 131 1577 279 c 2,28,-1
 1577 1102 l 2,29,30
 1577 1372 1577 1372 1389 1372 c 0,31,32
 1172 1372 1172 1372 1171 1155 c 2,33,-1
 1171 279 l 2,34,35
 1171 132 1171 132 1311 131 c 1,36,-1
 1311 -25 l 1,37,38
 1049 -8.99999999995 1049 -8.99999999995 696 -8 c 0,39,40
 422 -8 422 -8 160 -25 c 1,41,-1
 160 131 l 1,42,43
 353 131 353 131 352 279 c 2,44,-1
 352 1581 l 2,45,46
 352 1712 352 1712 160 1712 c 1,47,-1
 160 1872 l 1,48,49
 746 1917 746 1917 1184 2085 c 1,50,51
 1164 1954 1164 1954 1143 1696 c 1,52,-1
 1151 1696 l 1,53,54
 1368 1995 1368 1995 1774 1995 c 0,55,56
 2245 1995 2245 1995 2339 1622 c 1,57,58
 2560 1995 2560 1995 3019 1995 c 0,59,60
 3363 1995 3363 1995 3510 1782 c 0,61,62
 3633 1602 3633 1602 3633 1241 c 0,63,64
 3633 1118 3633 1118 3612.5 870.5 c 128,-1,65
 3592 623 3592 623 3592 500 c 0,66,67
 3592 131 3592 131 3813 131 c 1,68,-1
 3813 -25 l 1,0,1
EndSplineSet
Validated: 33
Substitution2: "'ss03' Egyptian Hieratic-Latin" m.hier
Substitution2: "'ss02' Egyptian Transliteration-Latin" m.tran
Substitution2: "'ss01' BoPoMoFo-Latin" m.bpmf
EndChar

StartChar: n
Encoding: 110 110 78
Width: 2805
Flags: W
LayerCount: 2
Fore
SplineSet
2642 -25 m 1,0,1
 2392 -8.99999999995 2392 -8.99999999995 2077 -8 c 0,2,3
 1831 -8 1831 -8 1610 -25 c 1,4,5
 1630 155 1630 155 1630 254 c 2,6,-1
 1630 1200 l 2,7,8
 1630 1421 1630 1421 1425 1421 c 0,9,10
 1175 1421 1175 1421 1176 1139 c 2,11,-1
 1176 279 l 2,12,13
 1176 132 1176 132 1368 131 c 1,14,-1
 1368 -25 l 1,15,16
 1061 -8.99999999995 1061 -8.99999999995 766 -8 c 0,17,18
 467 -8 467 -8 164 -25 c 1,19,-1
 164 131 l 1,20,21
 357 131 357 131 356 279 c 2,22,-1
 356 1581 l 2,23,24
 356 1712 356 1712 164 1712 c 1,25,-1
 164 1872 l 1,26,27
 750 1917 750 1917 1188 2085 c 1,28,29
 1168 1954 1168 1954 1147 1696 c 1,30,-1
 1155 1696 l 1,31,32
 1417 1995 1417 1995 1778 1995 c 0,33,34
 2179 1995 2179 1995 2335 1737 c 1,35,36
 2462 1536 2462 1536 2462 1110 c 0,37,38
 2462 1012.00000001 2462 1012.00000001 2441.5 811 c 128,-1,39
 2421 610 2421 610 2421 508 c 0,40,41
 2421 131 2421 131 2642 131 c 1,42,-1
 2642 -25 l 1,0,1
EndSplineSet
Validated: 33
Substitution2: "'ss03' Egyptian Hieratic-Latin" n.hier
Substitution2: "'ss02' Egyptian Transliteration-Latin" n.tran
Substitution2: "'ss01' BoPoMoFo-Latin" n.bpmf
EndChar

StartChar: o
Encoding: 111 111 79
Width: 2428
Flags: W
LayerCount: 2
Fore
SplineSet
2339 950 m 0,0,1
 2339 463 2339 463 2015 180 c 0,2,3
 1708 -90 1708 -90 1212 -90 c 0,4,5
 729 -90 729 -90 418 184 c 0,6,7
 89.9999999995 471 89.9999999995 471 90 946 c 0,8,9
 90 1425 90 1425 418 1716 c 0,10,11
 733 1995 733 1995 1221 1995 c 256,12,13
 1708 1995 1708 1995 2015 1720 c 0,14,15
 2339 1433 2339 1433 2339 950 c 0,0,1
1384 1503 m 1,16,17
 1306 1560 1306 1560 1204 1548 c 0,18,19
 1032 1528 1032 1528 926 1327 c 0,20,21
 832 1147 832 1147 856 983 c 1,22,23
 848 741 848 741 979 541 c 1,24,25
 1106 357 1106 357 1245 356 c 0,26,27
 1401 356 1401 356 1499 500 c 1,28,29
 1614 660 1614 660 1614 930 c 0,30,31
 1614 1053 1614 1053 1589 1188 c 0,32,33
 1577 1262 1577 1262 1511 1364 c 128,-1,34
 1445 1466 1445 1466 1384 1503 c 1,16,17
EndSplineSet
Validated: 33
Substitution2: "'ss01' BoPoMoFo-Latin" o.bpmf
EndChar

StartChar: p
Encoding: 112 112 80
Width: 2781
Flags: W
LayerCount: 2
Fore
SplineSet
2630 1020 m 0,0,1
 2630 553 2630 553 2400 250 c 0,2,3
 2146 -90.0000000001 2146 -90.0000000001 1696 -90 c 0,4,5
 1356 -90 1356 -90 1171 57 c 1,6,-1
 1163 57 l 1,7,-1
 1163 -504 l 2,8,9
 1163 -656 1163 -656 1384 -655 c 1,10,-1
 1384 -811 l 1,11,12
 1089 -791 1089 -791 782 -791 c 256,13,14
 475 -791 475 -791 152 -811 c 1,15,-1
 152 -655 l 1,16,17
 345 -655 345 -655 344 -459 c 2,18,-1
 344 1581 l 2,19,20
 344 1712 344 1712 152 1712 c 1,21,-1
 152 1872 l 1,22,23
 738 1917 738 1917 1176 2085 c 1,24,25
 1164 1958 1164 1958 1163 1794 c 1,26,27
 1364 1995 1364 1995 1724 1995 c 0,28,29
 2130 1995 2130 1995 2388 1708 c 0,30,31
 2630 1434 2630 1434 2630 1020 c 0,0,1
1675 1376 m 1,32,33
 1667 1437 1667 1437 1601.5 1480.5 c 128,-1,34
 1536 1524 1536 1524 1470 1524 c 0,35,36
 1318 1524 1318 1524 1249 1364 c 0,37,38
 1200 1241 1200 1241 1204 1073 c 2,39,-1
 1208 983 l 1,40,41
 1204 979 1204 979 1204 954 c 0,42,43
 1204 696 1204 696 1241 578 c 1,44,45
 1302 357 1302 357 1491 356 c 0,46,47
 1741 356 1741 356 1741 856 c 0,48,49
 1741 1286 1741 1286 1675 1376 c 1,32,33
EndSplineSet
Validated: 33
Substitution2: "'ss03' Egyptian Hieratic-Latin" p.hier
Substitution2: "'ss02' Egyptian Transliteration-Latin" p.tran
Substitution2: "'ss01' BoPoMoFo-Latin" p.bpmf
EndChar

StartChar: q
Encoding: 113 113 81
Width: 2805
Flags: W
LayerCount: 2
Fore
SplineSet
2642 -811 m 1,0,1
 2306 -791 2306 -791 1995 -791 c 256,2,3
 1684 -791 1684 -791 1393 -811 c 1,4,-1
 1393 -655 l 1,5,6
 1479 -655 1479 -655 1554.5 -606 c 128,-1,7
 1630 -557 1630 -557 1630 -475 c 2,8,-1
 1630 82 l 1,9,10
 1384 -90 1384 -90 1090 -90 c 0,11,12
 660 -90 660 -90 401 217 c 0,13,14
 163 500 163 500 164 942 c 256,15,16
 164 1384 164 1384 461 1689.5 c 128,-1,17
 758 1995 758 1995 1196 1995 c 0,18,19
 1794 1995 1794 1995 2048 1630 c 1,20,-1
 2183 1929 l 1,21,-1
 2499 1929 l 1,22,23
 2438 1106 2438 1106 2437 8 c 0,24,25
 2437 -656 2437 -656 2642 -655 c 1,26,-1
 2642 -811 l 1,0,1
1593 1081 m 1,27,28
 1589 1450 1589 1450 1462 1487 c 1,29,30
 1437 1524 1437 1524 1331 1524 c 0,31,32
 1057 1524 1057 1524 1057 913 c 0,33,34
 1057 458 1057 458 1180 410 c 1,35,36
 1196 357 1196 357 1327 356 c 0,37,38
 1601 356 1601 356 1597 881 c 1,39,-1
 1593 1081 l 1,27,28
EndSplineSet
Validated: 33
Substitution2: "'ss03' Egyptian Hieratic-Latin" q.hier
Substitution2: "'ss02' Egyptian Transliteration-Latin" q.tran
Substitution2: "'ss01' BoPoMoFo-Latin" q.bpmf
EndChar

StartChar: r
Encoding: 114 114 82
Width: 2035
Flags: W
LayerCount: 2
Fore
SplineSet
1982 1282 m 1,0,-1
 1761 1229 l 1,1,2
 1663 1434 1663 1434 1487 1421 c 0,3,4
 1188 1401 1188 1401 1110 1180 c 0,5,6
 1073 1082 1073 1082 1073 750 c 2,7,-1
 1073 266 l 2,8,9
 1073 131 1073 131 1294 131 c 1,10,-1
 1294 -25 l 1,11,12
 979 -8.99999999995 979 -8.99999999995 602 -8 c 0,13,14
 311 -8 311 -8 61 -25 c 1,15,-1
 61 131 l 1,16,17
 254 131 254 131 254 279 c 2,18,-1
 254 1581 l 2,19,20
 254 1712 254 1712 61 1712 c 1,21,-1
 61 1872 l 1,22,23
 565 1909 565 1909 979 2068 c 1,24,25
 999 1945 999 1945 1044 1696 c 1,26,27
 1314 2028 1314 2028 1626 2028 c 0,28,29
 1855 2028 1855 2028 1892 1937 c 0,30,31
 1933 1831 1933 1831 1954 1618 c 1,32,33
 1966 1450 1966 1450 1982 1282 c 1,0,-1
EndSplineSet
Validated: 33
Substitution2: "'ss03' Egyptian Hieratic-Latin" r.hier
Substitution2: "'ss02' Egyptian Transliteration-Latin" r.tran
Substitution2: "'ss01' BoPoMoFo-Latin" r.bpmf
EndChar

StartChar: s
Encoding: 115 115 83
Width: 2359
Flags: W
LayerCount: 2
Fore
SplineSet
2167 639 m 0,0,1
 2167 254 2167 254 1802 61 c 0,2,3
 1515 -91 1515 -91 1094 -90 c 0,4,5
 656 -90 656 -90 250 90 c 1,6,7
 234 414 234 414 213 664 c 1,8,-1
 410 664 l 1,9,10
 570 258 570 258 1049 258 c 0,11,12
 1422 258 1422 258 1421 434 c 0,13,14
 1421 569 1421 569 1102 631 c 0,15,16
 639 717 639 717 512 778 c 0,17,18
 193 934 193 934 193 1298 c 0,19,20
 193 1675 193 1675 561 1855 c 0,21,22
 844 1994 844 1994 1266 1995 c 0,23,24
 1672 1995 1672 1995 1999 1835 c 1,25,26
 2003 1679 2003 1679 2023 1364 c 1,27,-1
 1851 1364 l 1,28,29
 1802 1520 1802 1520 1630 1602 c 0,30,31
 1487 1672 1487 1672 1307 1671 c 0,32,33
 963.000000005 1671 963.000000005 1671 963 1479 c 0,34,35
 963 1356 963 1356 1274 1303 c 0,36,37
 1716 1225 1716 1225 1855 1155 c 0,38,39
 2167 1003.99999999 2167 1003.99999999 2167 639 c 0,0,1
EndSplineSet
Validated: 33
Substitution2: "'ss03' Egyptian Hieratic-Latin" s.hier
Substitution2: "'ss02' Egyptian Transliteration-Latin" s.tran
Substitution2: "'ss01' BoPoMoFo-Latin" s.bpmf
EndChar

StartChar: t
Encoding: 116 116 84
Width: 2199
Flags: W
LayerCount: 2
Fore
SplineSet
2073 524 m 1,0,-1
 2044 53 l 1,1,2
 1806 -90 1806 -90 1434 -90 c 0,3,4
 963 -90 963 -90 782 139 c 0,5,6
 622 344 622 344 623 823 c 0,7,8
 623 929 623 929 635 1138.5 c 128,-1,9
 647 1348 647 1348 647 1454 c 1,10,-1
 123 1454 l 1,11,-1
 123 1901 l 1,12,-1
 647 1901 l 1,13,-1
 647 2228 l 1,14,15
 1032 2265 1032 2265 1241 2548 c 1,16,-1
 1466 2548 l 1,17,-1
 1466 1901 l 1,18,-1
 2028 1901 l 1,19,-1
 2028 1454 l 1,20,-1
 1466 1454 l 1,21,-1
 1466 745 l 2,22,23
 1466 577 1466 577 1507 504 c 0,24,25
 1564 406 1564 406 1720 406 c 0,26,27
 1897 405 1897 405 2073 524 c 1,0,-1
EndSplineSet
Validated: 33
Substitution2: "'ss03' Egyptian Hieratic-Latin" t.hier
Substitution2: "'ss02' Egyptian Transliteration-Latin" t.tran
Substitution2: "'ss01' BoPoMoFo-Latin" t.bpmf
EndChar

StartChar: u
Encoding: 117 117 85
Width: 2809
Flags: W
LayerCount: 2
Fore
SplineSet
2642 -25 m 1,0,1
 2388 -8.99999999995 2388 -8.99999999995 2093 -8 c 0,2,3
 1860 -8 1860 -8 1667 -25 c 1,4,-1
 1667 295 l 1,5,-1
 1659 295 l 1,6,7
 1450 -90.0000000001 1450 -90.0000000001 1049 -90 c 0,8,9
 664 -90 664 -90 500 135 c 0,10,11
 357 328 357 328 356 725 c 0,12,13
 356 827 356 827 368.5 1034 c 128,-1,14
 381 1241 381 1241 381 1343 c 0,15,16
 381 1712 381 1712 164 1712 c 1,17,-1
 164 1872 l 1,18,19
 750 1917 750 1917 1188 2085 c 1,20,21
 1188 1679 1188 1679 1184 1466 c 0,22,23
 1184 1388 1184 1388 1163.5 1228.5 c 128,-1,24
 1143 1069 1143 1069 1143 983 c 0,25,26
 1143 889 1143 889 1176 840 c 1,27,28
 1172 504 1172 504 1405 504 c 0,29,30
 1630 504 1630 504 1630 807 c 2,31,-1
 1630 1581 l 2,32,33
 1630 1712 1630 1712 1438 1712 c 1,34,-1
 1438 1872 l 1,35,36
 2024 1917 2024 1917 2462 2085 c 1,37,38
 2462 1950 2462 1950 2455.5 1681.5 c 128,-1,39
 2449 1413 2449 1413 2449 1282 c 2,40,-1
 2449 315 l 2,41,42
 2449 131 2449 131 2642 131 c 1,43,-1
 2642 -25 l 1,0,1
EndSplineSet
Validated: 33
Substitution2: "'ss01' BoPoMoFo-Latin" u.bpmf
EndChar

StartChar: v
Encoding: 118 118 86
Width: 2584
Flags: W
LayerCount: 2
Fore
SplineSet
2540 1765 m 1,0,1
 2372 1765 2372 1765 2294 1516 c 2,2,-1
 1815 -20 l 1,3,-1
 786 -25 l 1,4,-1
 270 1663 l 2,5,6
 237 1774 237 1774 82 1774 c 1,7,-1
 82 1929 l 1,8,9
 418 1913 418 1913 803 1913 c 0,10,11
 1110 1913 1110 1913 1368 1929 c 1,12,-1
 1368 1769 l 1,13,14
 1184 1769 1184 1769 1184 1642 c 0,15,16
 1184 1425 1184 1425 1282 1090 c 1,17,18
 1372 816 1372 816 1462 545 c 1,19,-1
 1470 545 l 1,20,21
 1470 545 1470 545 1642 1077 c 1,22,23
 1740 1396 1740 1396 1741 1622 c 0,24,25
 1741 1769 1741 1769 1565 1769 c 1,26,-1
 1565 1929 l 1,27,28
 1774 1913 1774 1913 2048 1913 c 0,29,30
 2290 1913 2290 1913 2540 1933 c 1,31,-1
 2540 1765 l 1,0,1
EndSplineSet
Validated: 1
EndChar

StartChar: w
Encoding: 119 119 87
Width: 3649
Flags: W
LayerCount: 2
Fore
SplineSet
3621 1769 m 1,0,1
 3494 1769 3494 1769 3453 1602 c 2,2,-1
 3035 -25 l 1,3,-1
 2101 -25 l 1,4,-1
 1847 1053 l 1,5,-1
 1839 1053 l 1,6,-1
 1602 -25 l 1,7,-1
 668 -25 l 1,8,-1
 233 1589 l 2,9,10
 184 1769 184 1769 61 1769 c 1,11,-1
 61 1929 l 1,12,13
 364 1913 364 1913 729 1913 c 0,14,15
 1020 1913 1020 1913 1274 1929 c 1,16,-1
 1274 1769 l 1,17,18
 1090 1769 1090 1769 1090 1667 c 0,19,20
 1090 1434 1090 1434 1163 1110 c 1,21,22
 1229 836 1229 836 1298 561 c 1,23,-1
 1307 561 l 1,24,-1
 1642 1929 l 1,25,-1
 2396 1929 l 1,26,-1
 2707 578 l 1,27,-1
 2716 578 l 1,28,29
 2790 848 2790 848 2859 1118 c 0,30,31
 2937 1437 2937 1437 2937 1667 c 0,32,33
 2937 1769 2937 1769 2777 1769 c 1,34,-1
 2777 1929 l 1,35,36
 3002 1913 3002 1913 3252 1913 c 0,37,38
 3453 1913 3453 1913 3621 1929 c 1,39,-1
 3621 1769 l 1,0,1
EndSplineSet
Validated: 1
Substitution2: "'ss03' Egyptian Hieratic-Latin" w.hier
Substitution2: "'ss02' Egyptian Transliteration-Latin" w.tran
EndChar

StartChar: x
Encoding: 120 120 88
Width: 2424
Flags: W
LayerCount: 2
Fore
SplineSet
2429 -25 m 1,0,1
 2060 -8.99999999995 2060 -8.99999999995 1663 -8 c 0,2,3
 1356 -8 1356 -8 1114 -25 c 1,4,-1
 1114 131 l 1,5,6
 1294 131 1294 131 1294 221 c 0,7,8
 1294 282 1294 282 1122 643 c 1,9,10
 1110 627 1110 627 942 418 c 0,11,12
 807 254.000000001 807 254.000000001 807 197 c 0,13,14
 807 131 807 131 963 131 c 1,15,-1
 963 -25 l 1,16,17
 717 -8.99999999995 717 -8.99999999995 422 -8 c 0,18,19
 192.999999999 -8 192.999999999 -8 -4 -25 c 1,20,-1
 -4 131 l 1,21,22
 172 131 172 131 512 475 c 0,23,24
 791 754 791 754 930 975 c 1,25,26
 819 1192 819 1192 561 1458 c 0,27,28
 254 1769 254 1769 61 1769 c 1,29,-1
 61 1929 l 1,30,31
 364 1913 364 1913 750 1913 c 0,32,33
 1057 1913 1057 1913 1339 1929 c 1,34,-1
 1339 1769 l 1,35,36
 1167 1769 1167 1769 1143 1716 c 1,37,38
 1159 1560 1159 1560 1339 1327 c 1,39,40
 1400 1425 1400 1425 1462 1524 c 0,41,42
 1556 1684 1556 1684 1556 1716 c 0,43,44
 1556 1765 1556 1765 1462 1769 c 1,45,-1
 1462 1929 l 1,46,47
 1708 1913 1708 1913 1966 1913 c 0,48,49
 2171 1913 2171 1913 2331 1929 c 1,50,-1
 2331 1769 l 1,51,52
 2171 1769 2171 1769 1901 1450 c 0,53,54
 1725 1241 1725 1241 1565 983 c 1,55,56
 1696 737 1696 737 1937 471 c 1,57,58
 2236 131 2236 131 2429 131 c 1,59,-1
 2429 -25 l 1,0,1
EndSplineSet
Validated: 1
Substitution2: "'ss03' Egyptian Hieratic-Latin" x.hier
Substitution2: "'ss02' Egyptian Transliteration-Latin" x.tran
Substitution2: "'ss01' BoPoMoFo-Latin" x.bpmf
EndChar

StartChar: y
Encoding: 121 121 89
Width: 2686
Flags: W
LayerCount: 2
Fore
SplineSet
500 1589 m 0,0,1
 443 1691 443 1691 315 1720 c 0,2,3
 253.999999999 1732 253.999999999 1732 78 1733 c 1,4,-1
 78 1905 l 1,5,-1
 709 1905 l 2,6,7
 1155 1905 1155 1905 1397 1917 c 1,8,-1
 1393 1769 l 1,9,10
 1196 1769 1196 1769 1196 1651 c 0,11,12
 1196 1577 1196 1577 1335 1147 c 0,13,14
 1503 635 1503 635 1503 627 c 1,15,-1
 1511 627 l 1,16,17
 1589 873 1589 873 1663 1118 c 1,18,19
 1749 1421 1749 1421 1749 1614 c 0,20,21
 1749 1753 1749 1753 1622 1753 c 1,22,-1
 1618 1917 l 1,23,24
 1618 1917 1618 1917 1864 1917 c 1,25,26
 2011 1913 2011 1913 2089 1913 c 0,27,28
 2466 1913 2466 1913 2650 1933 c 1,29,-1
 2646 1761 l 1,30,31
 2634 1765 2634 1765 2621 1765 c 0,32,33
 2494 1765 2494 1765 2298 1221 c 1,34,35
 2122 672 2122 672 1942 127 c 1,36,-1
 1847 -119 l 2,37,38
 1667 -594 1667 -594 1511 -705 c 0,39,40
 1335 -828 1335 -828 799 -827 c 0,41,42
 594 -827 594 -827 430 -725 c 0,43,44
 245.999999999 -606 245.999999999 -606 246 -414 c 0,45,46
 246 -267 246 -267 340 -170.5 c 128,-1,47
 434 -74.0000000005 434 -74.0000000005 582 -74 c 0,48,49
 787 -74 787 -74 868 -213 c 0,50,51
 905 -283 905 -283 934 -475 c 1,52,53
 950 -618 950 -618 1016 -618 c 0,54,55
 1110 -618 1110 -618 1163 -377 c 0,56,57
 1183 -287 1183 -287 1184 -193 c 0,58,59
 1184 -25 1184 -25 1118 139 c 1,60,61
 815 1032 815 1032 500 1589 c 0,0,1
EndSplineSet
Validated: 33
Substitution2: "'ss03' Egyptian Hieratic-Latin" y.hier
Substitution2: "'ss02' Egyptian Transliteration-Latin" y.tran
Substitution2: "'ss01' BoPoMoFo-Latin" y.bpmf
EndChar

StartChar: z
Encoding: 122 122 90
Width: 2056
Flags: W
LayerCount: 2
Fore
SplineSet
1999 778 m 1,0,1
 1942 311 1942 311 1921 0 c 1,2,-1
 57 0 l 1,3,-1
 786 1483 l 1,4,-1
 569 1483 l 2,5,6
 307 1483 307 1483 270 1188 c 1,7,-1
 98 1188 l 1,8,9
 172 1569 172 1569 193 1905 c 1,10,-1
 1901 1905 l 1,11,-1
 1188 422 l 1,12,-1
 1503 422 l 2,13,14
 1769 422 1769 422 1827 778 c 1,15,-1
 1999 778 l 1,0,1
EndSplineSet
Validated: 1
Substitution2: "'ss03' Egyptian Hieratic-Latin" z.hier
Substitution2: "'ss02' Egyptian Transliteration-Latin" z.tran
Substitution2: "'ss01' BoPoMoFo-Latin" z.bpmf
EndChar

StartChar: braceleft
Encoding: 123 123 91
Width: 2039
Flags: W
LayerCount: 2
Fore
SplineSet
1827 -688 m 1,0,1
 1319 -672 1319 -672 1253 -668 c 1,2,3
 950 -631 950 -631 799 -496 c 1,4,5
 615 -324 615 -324 614 33 c 0,6,7
 614 139 614 139 632.5 348 c 128,-1,8
 651 557 651 557 651 659 c 0,9,10
 651 839 651 839 471 1012 c 0,11,12
 324 1151 324 1151 127 1225 c 1,13,14
 320 1295 320 1295 471 1442 c 0,15,16
 651 1618 651 1618 651 1798 c 0,17,18
 651 1900 651 1900 632.5 2109 c 128,-1,19
 614 2318 614 2318 614 2425 c 0,20,21
 614 2822 614 2822 836 2986 c 0,22,23
 1029 3129 1029 3129 1438 3129 c 2,24,-1
 1831 3129 l 1,25,-1
 1831 2957 l 1,26,27
 1749 2957 1749 2957 1589.5 2949 c 128,-1,28
 1430 2941 1430 2941 1356 2707 c 0,29,30
 1303 2539 1303 2539 1303 2322 c 0,31,32
 1303 2252 1303 2252 1309 2111 c 128,-1,33
 1315 1970 1315 1970 1315 1901 c 0,34,35
 1315 1684 1315 1684 1145 1483 c 128,-1,36
 975.000000005 1282 975.000000005 1282 762 1217 c 1,37,38
 1106 1119 1106 1119 1221 684 c 1,39,40
 1270 303 1270 303 1325 -86 c 128,-1,41
 1380 -475 1380 -475 1593 -500 c 1,42,-1
 1827 -512 l 1,43,-1
 1827 -688 l 1,0,1
EndSplineSet
Validated: 1
EndChar

StartChar: bar
Encoding: 124 124 92
Width: 1048
Flags: W
LayerCount: 2
Fore
SplineSet
770 -90 m 1,0,-1
 279 -90 l 1,1,-1
 279 3019 l 1,2,-1
 770 3019 l 1,3,-1
 770 -90 l 1,0,-1
EndSplineSet
Validated: 1
EndChar

StartChar: braceright
Encoding: 125 125 93
Width: 2252
Flags: W
LayerCount: 2
Fore
SplineSet
336 -688 m 1,0,1
 844 -672 844 -672 909 -668 c 0,2,3
 1212 -631 1212 -631 1364 -496 c 1,4,5
 1548 -324 1548 -324 1548 33 c 0,6,7
 1548 139 1548 139 1529.5 348 c 128,-1,8
 1511 557 1511 557 1511 659 c 0,9,10
 1511 839 1511 839 1692 1012 c 0,11,12
 1839 1151 1839 1151 2036 1225 c 1,13,14
 1843 1295 1843 1295 1692 1442 c 0,15,16
 1512 1618 1512 1618 1511 1798 c 0,17,18
 1511 1900 1511 1900 1529.5 2109 c 128,-1,19
 1548 2318 1548 2318 1548 2425 c 0,20,21
 1548 2822 1548 2822 1327 2986 c 0,22,23
 1134 3129 1134 3129 725 3129 c 2,24,-1
 332 3129 l 1,25,-1
 332 2957 l 1,26,27
 414 2957 414 2957 573.5 2949 c 128,-1,28
 733 2941 733 2941 807 2707 c 0,29,30
 860 2539 860 2539 860 2322 c 0,31,32
 860 2252 860 2252 854 2111 c 128,-1,33
 848 1970 848 1970 848 1901 c 0,34,35
 848 1684 848 1684 1018 1483 c 128,-1,36
 1188 1282 1188 1282 1401 1217 c 1,37,38
 1057 1119 1057 1119 942 684 c 1,39,40
 889 303 889 303 835.5 -86 c 128,-1,41
 782 -475 782 -475 569 -500 c 1,42,-1
 336 -512 l 1,43,-1
 336 -688 l 1,0,1
EndSplineSet
Validated: 9
EndChar

StartChar: asciitilde
Encoding: 126 126 94
Width: 2269
Flags: W
LayerCount: 2
Fore
SplineSet
2081 1008 m 1,0,1
 1848 656 1848 656 1569 655 c 0,2,3
 1409 655 1409 655 1118 798.5 c 128,-1,4
 827 942 827 942 680 942 c 0,5,6
 438 942 438 942 336 639 c 1,7,-1
 188 1085 l 1,8,9
 372 1437 372 1437 700 1438 c 0,10,11
 852 1438 852 1438 1153 1294.5 c 128,-1,12
 1454 1151 1454 1151 1573 1151 c 0,13,14
 1770 1151 1770 1151 1933 1458 c 1,15,-1
 2081 1008 l 1,0,1
EndSplineSet
Validated: 1
EndChar

StartChar: Alpha
Encoding: 913 913 95
Width: 3872
VWidth: 0
Flags: W
HStem: 0 40G<176 296>
VStem: 1240 568<2680 3000>
LayerCount: 2
Fore
SplineSet
3832 132 m 1,0,1
 3652 132 3652 132 3506 182 c 128,-1,2
 3360 232 3360 232 3196 366 c 128,-1,3
 3032 500 3032 500 2860 706 c 128,-1,4
 2688 912 2688 912 2440 1256 c 1,5,-1
 992 616 l 1,6,7
 824 408 824 408 704 284 c 128,-1,8
 584 160 584 160 492 98 c 128,-1,9
 400 36 400 36 340 18 c 128,-1,10
 280 0 280 0 200 0 c 0,11,12
 176 0 176 0 124 6 c 128,-1,13
 72 12 72 12 40 12 c 1,14,15
 1264 1464 1264 1464 1492 2412 c 1,16,17
 1464 2456 1464 2456 1428 2512 c 128,-1,18
 1392 2568 1392 2568 1380 2588 c 128,-1,19
 1368 2608 1368 2608 1348 2640 c 128,-1,20
 1328 2672 1328 2672 1316 2704 c 128,-1,21
 1304 2736 1304 2736 1286 2782 c 128,-1,22
 1268 2828 1268 2828 1240 2904 c 1,23,24
 1240 2944 1240 2944 1268 2972 c 128,-1,25
 1296 3000 1296 3000 1356 3012 c 128,-1,26
 1416 3024 1416 3024 1470 3026 c 128,-1,27
 1524 3028 1524 3028 1608 3028 c 2,28,-1
 1672 3028 l 2,29,30
 1808 3028 1808 3028 1856 3036 c 1,31,32
 1808 2996 1808 2996 1808 2916 c 0,33,34
 1808 2792 1808 2792 1968 2580 c 2,35,-1
 3832 132 l 1,0,1
1768 2080 m 25,36,-1
 1276 1048 l 1,37,-1
 2248 1480 l 1,38,-1
 1768 2080 l 25,36,-1
EndSplineSet
Validated: 1
EndChar

StartChar: Beta
Encoding: 914 914 96
Width: 2628
VWidth: 0
Flags: W
HStem: 48 128<1024 2168> 2828 152<1096 1600>
VStem: 184 648<260 1444 1724 2724> 1756 468<2260 2696>
LayerCount: 2
Fore
SplineSet
2592 256 m 0,0,1
 2592 168 2592 168 2336 116 c 128,-1,2
 2080 64 2080 64 1820 56 c 2,3,-1
 1564 48 l 1,4,5
 920 48 920 48 184 236 c 1,6,-1
 184 2504 l 2,7,8
 184 2672 184 2672 40 2768 c 1,9,10
 204 2880 204 2880 364 2912 c 0,11,12
 528 2944 528 2944 816 2944 c 1,13,-1
 816 2800 l 1,14,-1
 1256 2964 l 1,15,16
 1340 2980 1340 2980 1424 2980 c 0,17,18
 1560 2980 1560 2980 1700 2948 c 128,-1,19
 1840 2916 1840 2916 1956 2858 c 128,-1,20
 2072 2800 2072 2800 2148 2702 c 0,21,22
 2224 2608 2224 2608 2224 2488 c 0,23,24
 2224 2344 2224 2344 2126 2220 c 0,25,26
 2024 2096 2024 2096 1856 2012 c 2,27,28
 1856 2008 1856 2008 1008 1608 c 1,29,-1
 2524 368 l 2,30,31
 2592 312 2592 312 2592 256 c 0,0,1
1756 2520 m 0,32,33
 1756 2624 1756 2624 1640 2726 c 128,-1,34
 1524 2828 1524 2828 1396 2828 c 0,35,36
 1248 2832 1248 2832 824 2728 c 1,37,-1
 824 1724 l 1,38,39
 1432 1928 1432 1928 1600 2144 c 0,40,41
 1656 2216 1656 2216 1692 2310 c 128,-1,42
 1728 2404 1728 2404 1742 2456 c 128,-1,43
 1756 2508 1756 2508 1756 2520 c 0,32,33
1680 176 m 2,44,-1
 1816 176 l 2,45,46
 2048 176 2048 176 2168 200 c 1,47,-1
 2192 312 l 1,48,-1
 832 1444 l 1,49,50
 832 1448 832 1448 832 280 c 1,51,52
 1272 176 1272 176 1680 176 c 2,44,-1
EndSplineSet
Validated: 33
EndChar

StartChar: Gamma
Encoding: 915 915 97
Width: 2332
VWidth: 0
Flags: W
HStem: 8 3052<144 720> 2864 196<748 2292>
VStem: 40 708<104 2864>
LayerCount: 2
Fore
SplineSet
2272 3060 m 1,0,1
 2296 3020 2296 3020 2296 2980 c 128,-1,2
 2296 2940 2296 2940 2268 2864 c 1,3,4
 2264 2864 2264 2864 824 2864 c 2,5,6
 744 2864 744 2864 748 2772 c 2,7,-1
 748 120 l 1,8,9
 624 8 624 8 452 8 c 0,10,11
 236 8 236 8 40 164 c 1,12,-1
 40 2900 l 2,13,14
 40 3060 40 3060 184 3060 c 2,15,-1
 2272 3060 l 1,0,1
EndSplineSet
Validated: 1
EndChar

StartChar: Delta
Encoding: 916 916 98
Width: 3852
VWidth: 0
Flags: W
HStem: 40 336<604 3104>
LayerCount: 2
Fore
SplineSet
1772 3136 m 1,0,1
 1836 2888 1836 2888 1892 2840 c 1,2,-1
 3796 392 l 1,3,4
 3812 336 3812 336 3812 296 c 0,5,6
 3812 224 3812 224 3770 172 c 128,-1,7
 3728 120 3728 120 3628 40 c 1,8,-1
 40 40 l 1,9,10
 168 240 168 240 388 512 c 2,11,-1
 1228 1480 l 2,12,13
 1264 1528 1264 1528 1284 1554 c 128,-1,14
 1304 1580 1304 1580 1386 1700 c 128,-1,15
 1468 1820 1468 1820 1518 1914 c 128,-1,16
 1568 2008 1568 2008 1614 2138 c 128,-1,17
 1660 2268 1660 2268 1660 2368 c 0,18,19
 1660 2472 1660 2472 1624 2576 c 1,20,-1
 1312 3096 l 1,21,22
 1348 3124 1348 3124 1418 3142 c 128,-1,23
 1488 3160 1488 3160 1552 3160 c 0,24,25
 1608 3160 1608 3160 1670 3148 c 128,-1,26
 1732 3136 1732 3136 1772 3136 c 1,0,1
2992 376 m 1,27,28
 2992 376 2992 376 3036 412 c 128,-1,29
 3080 448 3080 448 3112 480 c 128,-1,30
 3144 512 3144 512 3144 536 c 1,31,-1
 2024 1832 l 1,32,33
 1904 1664 1904 1664 1768 1502 c 128,-1,34
 1632 1340 1632 1340 1516 1216 c 128,-1,35
 1400 1092 1400 1092 1228 934 c 128,-1,36
 1056 776 1056 776 936 668 c 128,-1,37
 816 560 816 560 604 376 c 1,38,-1
 2992 376 l 1,27,28
EndSplineSet
Validated: 1
EndChar

StartChar: Epsilon
Encoding: 917 917 99
Width: 3876
VWidth: 0
Flags: W
HStem: 996 504<2808 3068> 2840 304<1832 2864>
VStem: 40 688<864 1580>
LayerCount: 2
Fore
SplineSet
3160 1256 m 0,0,1
 3160 1184 3160 1184 3090 1090 c 128,-1,2
 3020 996 3020 996 2948 996 c 0,3,4
 2900 996 2900 996 2762 1098 c 128,-1,5
 2624 1200 2624 1200 2620 1200 c 0,6,7
 2244 1344 2244 1344 1986 1420 c 128,-1,8
 1728 1496 1728 1496 1336 1552 c 1,9,-1
 884 1632 l 1,10,11
 820 1568 820 1568 774 1382 c 128,-1,12
 728 1196 728 1196 728 1012 c 0,13,14
 728 724 728 724 844 648 c 1,15,16
 1012 348 1012 348 1370 208 c 128,-1,17
 1728 68 1728 68 2216 68 c 0,18,19
 2296 68 2296 68 2484 48 c 128,-1,20
 2672 28 2672 28 2776 28 c 0,21,22
 2984 28 2984 28 3280 -72 c 1,23,24
 2072 -72 2072 -72 1564 0 c 0,25,26
 1284 40 1284 40 1060 108 c 128,-1,27
 836 176 836 176 680 260 c 128,-1,28
 524 344 524 344 406 456 c 128,-1,29
 288 568 288 568 220 676 c 128,-1,30
 152 784 152 784 110 916 c 128,-1,31
 68 1048 68 1048 54 1164 c 128,-1,32
 40 1280 40 1280 40 1408 c 0,33,34
 40 1420 40 1420 46 1502 c 128,-1,35
 52 1584 52 1584 52 1656 c 0,36,37
 52 1980 52 1980 166 2234 c 128,-1,38
 280 2488 280 2488 476 2658 c 128,-1,39
 672 2828 672 2828 952 2938 c 128,-1,40
 1232 3048 1232 3048 1544 3096 c 128,-1,41
 1856 3144 1856 3144 2224 3144 c 0,42,43
 2608 3144 2608 3144 2936 3052 c 128,-1,44
 3264 2960 3264 2960 3502 2772 c 128,-1,45
 3740 2584 3740 2584 3836 2320 c 1,46,47
 3660 2056 3660 2056 3444 2056 c 0,48,49
 3364 2056 3364 2056 3280 2088 c 1,50,51
 3208 2464 3208 2464 3010 2652 c 128,-1,52
 2812 2840 2812 2840 2428 2840 c 0,53,54
 2060 2840 2060 2840 1778 2738 c 0,55,56
 1496 2632 1496 2632 1288 2408 c 1,57,58
 1016 2136 1016 2136 1016 1960 c 0,59,60
 1016 1928 1016 1928 1036 1904 c 1,61,62
 1900 1904 1900 1904 2900 1500 c 1,63,64
 3160 1408 3160 1408 3160 1256 c 0,0,1
EndSplineSet
Validated: 1
EndChar

StartChar: Zeta
Encoding: 918 918 100
Width: 4016
VWidth: 0
Flags: W
HStem: 0 40G<3536 3736> 392 512<1184 2792> 2616 528<924 1480>
LayerCount: 2
Fore
SplineSet
2240 904 m 0,0,1
 2672 904 2672 904 3260 768 c 0,2,3
 3432 728 3432 728 3544 688 c 128,-1,4
 3656 648 3656 648 3768 600 c 128,-1,5
 3880 552 3880 552 3976 516 c 1,6,7
 3944 420 3944 420 3924 362 c 128,-1,8
 3904 304 3904 304 3862 228 c 128,-1,9
 3820 152 3820 152 3762 96 c 128,-1,10
 3704 40 3704 40 3624 0 c 1,11,-1
 3260 160 l 2,12,13
 3132 212 3132 212 3034 242 c 128,-1,14
 2936 272 2936 272 2760 312 c 128,-1,15
 2584 352 2584 352 2344 372 c 128,-1,16
 2104 392 2104 392 1800 392 c 0,17,18
 1332 392 1332 392 1000 324 c 128,-1,19
 668 256 668 256 40 48 c 1,20,21
 880 736 880 736 2884 2504 c 1,22,23
 2344 2616 2344 2616 1712 2616 c 0,24,25
 1136 2616 1136 2616 580 2712 c 1,26,27
 864 3040 864 3040 920 3084 c 0,28,29
 992 3144 992 3144 1204 3144 c 1,30,-1
 3036 2952 l 1,31,32
 3464 2952 3464 2952 3744 3144 c 1,33,-1
 1280 800 l 1,34,35
 2128 904 2128 904 2240 904 c 0,0,1
EndSplineSet
Validated: 1
EndChar

StartChar: Eta
Encoding: 919 919 101
Width: 3180
VWidth: 0
Flags: W
HStem: 40 40G<192 320> 1608 184<1580 2548> 1800 184<736 1452>
VStem: 40 696<156 1800 1984 2888> 2548 592<1808 3028> 2636 504<316 1288>
LayerCount: 2
Fore
SplineSet
736 200 m 1,0,1
 432 40 432 40 228 40 c 0,2,3
 116 40 116 40 40 88 c 1,4,-1
 40 2888 l 1,5,6
 40 2888 40 2888 48 2888 c 2,7,8
 96 2888 96 2888 292 2956 c 128,-1,9
 488 3024 488 3024 544 3024 c 2,10,-1
 556 3024 l 2,11,12
 660 3024 660 3024 736 2960 c 1,13,-1
 736 1984 l 1,14,15
 888 1984 888 1984 1522 1888 c 128,-1,16
 2156 1792 2156 1792 2308 1792 c 0,17,18
 2332 1792 2332 1792 2410 1800 c 128,-1,19
 2488 1808 2488 1808 2548 1808 c 1,20,21
 2548 1844 2548 1844 2534 2022 c 128,-1,22
 2520 2200 2520 2200 2520 2344 c 0,23,24
 2520 2488 2520 2488 2506 2666 c 128,-1,25
 2492 2844 2492 2844 2492 2880 c 2,26,-1
 2492 3032 l 1,27,-1
 2676 3032 l 1,28,29
 2708 3040 2708 3040 2766 3056 c 128,-1,30
 2824 3072 2824 3072 2854 3080 c 128,-1,31
 2884 3088 2884 3088 2934 3096 c 128,-1,32
 2984 3104 2984 3104 3040 3104 c 0,33,34
 3104 3104 3104 3104 3140 3096 c 1,35,-1
 3140 400 l 1,36,37
 3100 376 3100 376 3038 296 c 128,-1,38
 2976 216 2976 216 2904 160 c 128,-1,39
 2832 104 2832 104 2744 104 c 0,40,41
 2720 104 2720 104 2636 112 c 1,42,43
 2636 968 2636 968 2564 1624 c 1,44,45
 2432 1608 2432 1608 2284 1608 c 0,46,47
 2140 1608 2140 1608 1512 1704 c 128,-1,48
 884 1800 884 1800 736 1800 c 1,49,-1
 736 200 l 1,0,1
EndSplineSet
Validated: 1
EndChar

StartChar: Theta
Encoding: 920 920 102
Width: 3848
VWidth: 0
Flags: W
HStem: 40 228<1472 2256> 1604 272<772 3052> 2952 216<1540 2304>
VStem: 40 732<1148 1604 1872 2096> 3052 756<1204 1604 1872 2128>
LayerCount: 2
Fore
SplineSet
40 1632 m 0,0,1
 40 1904 40 1904 148 2152 c 128,-1,2
 256 2400 256 2400 440 2580 c 128,-1,3
 624 2760 624 2760 864 2896 c 128,-1,4
 1104 3032 1104 3032 1374 3100 c 128,-1,5
 1644 3168 1644 3168 1916 3168 c 0,6,7
 2188 3168 2188 3168 2460 3104 c 128,-1,8
 2732 3040 2732 3040 2974 2912 c 128,-1,9
 3216 2784 3216 2784 3404 2608 c 128,-1,10
 3592 2432 3592 2432 3700 2192 c 128,-1,11
 3808 1952 3808 1952 3808 1688 c 0,12,13
 3808 1440 3808 1440 3728 1216 c 128,-1,14
 3648 992 3648 992 3508 812 c 128,-1,15
 3368 632 3368 632 3176 484 c 128,-1,16
 2984 336 2984 336 2762 240 c 128,-1,17
 2540 144 2540 144 2294 92 c 128,-1,18
 2048 40 2048 40 1808 40 c 0,19,20
 1440 40 1440 40 1108 168 c 128,-1,21
 776 296 776 296 544 516 c 128,-1,22
 312 736 312 736 176 1026 c 128,-1,23
 40 1316 40 1316 40 1632 c 0,0,1
1844 264 m 0,24,25
 2032 264 2032 264 2204 328 c 128,-1,26
 2376 392 2376 392 2504 496 c 128,-1,27
 2632 600 2632 600 2740 734 c 128,-1,28
 2848 868 2848 868 2914 1010 c 128,-1,29
 2980 1152 2980 1152 3016 1288 c 128,-1,30
 3052 1424 3052 1424 3052 1536 c 2,31,-1
 3052 1604 l 1,32,-1
 772 1604 l 1,33,34
 772 1308 772 1308 862 1054 c 128,-1,35
 952 800 952 800 1100 630 c 128,-1,36
 1248 460 1248 460 1442 362 c 128,-1,37
 1636 264 1636 264 1844 264 c 0,24,25
1904 2952 m 0,38,39
 1732 2952 1732 2952 1554 2872 c 128,-1,40
 1376 2792 1376 2792 1240 2668 c 128,-1,41
 1104 2544 1104 2544 996 2404 c 128,-1,42
 888 2264 888 2264 828 2138 c 128,-1,43
 768 2012 768 2012 768 1932 c 0,44,45
 768 1888 768 1888 772 1872 c 1,46,-1
 3064 1872 l 1,47,48
 3064 2184 3064 2184 2740 2556 c 0,49,50
 2612 2716 2612 2716 2380 2834 c 128,-1,51
 2148 2952 2148 2952 1904 2952 c 0,38,39
EndSplineSet
Validated: 1
EndChar

StartChar: Iota
Encoding: 921 921 103
Width: 980
VWidth: 0
Flags: W
VStem: 300 640<208 2792>
LayerCount: 2
Fore
SplineSet
944 664 m 2,0,1
 944 500 944 500 914 374 c 128,-1,2
 884 248 884 248 840 176 c 128,-1,3
 796 104 796 104 736 60 c 128,-1,4
 676 16 676 16 622 0 c 128,-1,5
 568 -16 568 -16 512 -16 c 0,6,7
 464 -16 464 -16 448 8 c 1,8,9
 296 8 296 8 300 1292 c 0,10,11
 300 1492 300 1492 306 1962 c 128,-1,12
 312 2432 312 2432 312 2696 c 0,13,14
 312 2704 312 2704 176 2820 c 128,-1,15
 40 2936 40 2936 40 2976 c 0,16,17
 40 2980 40 2980 40 2984 c 0,18,19
 40 3012 40 3012 72 3032 c 1,20,21
 124 3100 124 3100 248 3138 c 128,-1,22
 372 3176 372 3176 532 3176 c 0,23,24
 580 3176 580 3176 638 3168 c 128,-1,25
 696 3160 696 3160 764 3148 c 128,-1,26
 832 3136 832 3136 856 3136 c 0,27,28
 904 3136 904 3136 944 3112 c 1,29,-1
 944 664 l 2,0,1
EndSplineSet
Validated: 33
EndChar

StartChar: Kappa
Encoding: 922 922 104
Width: 3052
VWidth: 0
Flags: W
HStem: -40 456<2500 2932>
VStem: 76 560<80 1168> 120 548<160 1360> 160 540<356 1408 1792 2968> 2436 540<2820 3072>
LayerCount: 2
Fore
SplineSet
2388 3072 m 1,0,1
 2472 3128 2472 3128 2648 3128 c 0,2,3
 2784 3128 2784 3128 2880 3084 c 128,-1,4
 2976 3040 2976 3040 2976 2952 c 0,5,6
 2976 2888 2976 2888 2884 2752 c 128,-1,7
 2792 2616 2792 2616 2680 2496 c 0,8,9
 2656 2472 2656 2472 2608 2416 c 128,-1,10
 2560 2360 2560 2360 2528 2328 c 128,-1,11
 2496 2296 2496 2296 2450 2260 c 128,-1,12
 2404 2224 2404 2224 2360 2200 c 2,13,-1
 1256 1640 l 1,14,15
 1440 1584 1440 1584 1692 1448 c 128,-1,16
 1944 1312 1944 1312 2024 1224 c 2,17,-1
 2812 352 l 1,18,19
 2896 416 2896 416 2932 416 c 0,20,21
 2980 416 2980 416 3012 360 c 1,22,23
 2972 168 2972 168 2840 64 c 128,-1,24
 2708 -40 2708 -40 2500 -40 c 1,25,-1
 1728 944 l 1,26,27
 1612 1072 1612 1072 1400 1232 c 128,-1,28
 1188 1392 1188 1392 964 1484 c 1,29,30
 884 1460 884 1460 700 1364 c 1,31,32
 700 1312 700 1312 684 1110 c 128,-1,33
 668 908 668 908 668 756 c 128,-1,34
 668 604 668 604 652 402 c 128,-1,35
 636 200 636 200 636 152 c 1,36,37
 556 72 556 72 404 0 c 128,-1,38
 252 -72 252 -72 120 -72 c 1,39,-1
 76 -64 l 1,40,41
 76 0 76 0 98 268 c 128,-1,42
 120 536 120 536 120 740 c 0,43,44
 120 944 120 944 140 1220 c 128,-1,45
 160 1496 160 1496 160 1572 c 0,46,47
 160 1624 160 1624 146 1836 c 128,-1,48
 132 2048 132 2048 132 2208 c 128,-1,49
 132 2368 132 2368 116 2586 c 128,-1,50
 100 2804 100 2804 100 2864 c 0,51,52
 100 2884 100 2884 70 2978 c 128,-1,53
 40 3072 40 3072 40 3084 c 1,54,55
 184 3164 184 3164 328 3164 c 0,56,57
 504 3164 504 3164 624 3056 c 1,58,59
 712 2360 712 2360 712 1944 c 0,60,61
 712 1940 712 1940 712 1912 c 128,-1,62
 712 1884 712 1884 712 1860 c 0,63,64
 712 1840 712 1840 706 1820 c 128,-1,65
 700 1800 700 1800 700 1792 c 1,66,-1
 1660 2280 l 2,67,68
 1872 2392 1872 2392 2060 2544 c 128,-1,69
 2248 2696 2248 2696 2342 2808 c 128,-1,70
 2436 2920 2436 2920 2436 2960 c 0,71,72
 2436 3008 2436 3008 2388 3072 c 1,0,1
EndSplineSet
Validated: 1
EndChar

StartChar: Lambda
Encoding: 923 923 105
Width: 3600
VWidth: 0
Flags: W
HStem: 0 40G<3104 3240>
LayerCount: 2
Fore
SplineSet
3560 288 m 1,0,1
 3480 140 3480 140 3384 70 c 128,-1,2
 3288 0 3288 0 3132 0 c 0,3,4
 3048 0 3048 0 2952 20 c 1,5,-1
 1584 1544 l 1,6,7
 1512 1284 1512 1284 1384 1062 c 128,-1,8
 1256 840 1256 840 1112 680 c 128,-1,9
 968 520 968 520 784 380 c 128,-1,10
 600 240 600 240 424 148 c 128,-1,11
 248 56 248 56 40 -28 c 1,12,-1
 652 712 l 2,13,14
 680 752 680 752 722 818 c 128,-1,15
 764 884 764 884 840 1026 c 128,-1,16
 916 1168 916 1168 980 1318 c 128,-1,17
 1044 1468 1044 1468 1102 1670 c 128,-1,18
 1160 1872 1160 1872 1180 2060 c 1,19,20
 1064 2180 1064 2180 968 2404 c 1,21,22
 728 2784 728 2784 640 2996 c 1,23,24
 784 3112 784 3112 1032 3112 c 0,25,26
 1240 3112 1240 3112 1400 3040 c 1,27,28
 1392 3024 1392 3024 1392 2996 c 0,29,30
 1392 2980 1392 2980 1396 2938 c 128,-1,31
 1400 2896 1400 2896 1400 2880 c 2,32,-1
 1492 2420 l 1,33,34
 1488 2420 1488 2420 1552 2212 c 1,35,36
 1736 1996 1736 1996 2174 1550 c 0,37,38
 2608 1104 2608 1104 2752 984 c 2,39,-1
 3560 288 l 1,0,1
EndSplineSet
Validated: 33
EndChar

StartChar: Mu
Encoding: 924 924 106
Width: 4592
VWidth: 0
Flags: W
HStem: 20 40G<128 300>
VStem: 40 804<2264 3072> 124 720<356 1720 2264 3044> 3796 756<188 2368> 3796 660<140 1100 1708 2396>
LayerCount: 2
Fore
SplineSet
124 2672 m 0,0,1
 124 2832 124 2832 40 3048 c 1,2,3
 224 3120 224 3120 420 3120 c 0,4,5
 612 3120 612 3120 844 3048 c 1,6,-1
 844 2720 l 2,7,8
 844 2488 844 2488 926 2274 c 0,9,10
 1008 2056 1008 2056 1128 1912 c 0,11,12
 1148 1888 1148 1888 1200 1814 c 128,-1,13
 1252 1740 1252 1740 1298 1690 c 128,-1,14
 1344 1640 1344 1640 1400 1608 c 2,15,-1
 2216 1128 l 1,16,17
 2416 1304 2416 1304 2592 1488 c 128,-1,18
 2768 1672 2768 1672 2900 1828 c 128,-1,19
 3032 1984 3032 1984 3202 2208 c 128,-1,20
 3372 2432 3372 2432 3488 2592 c 128,-1,21
 3604 2752 3604 2752 3808 3048 c 1,22,23
 3940 3096 3940 3096 4100 3096 c 0,24,25
 4252 3096 4252 3096 4432 3048 c 1,26,27
 4432 2872 4432 2872 4492 2254 c 128,-1,28
 4552 1636 4552 1636 4552 1460 c 0,29,30
 4552 720 4552 720 4456 152 c 1,31,32
 4116 -28 4116 -28 3796 -28 c 1,33,-1
 3796 2396 l 1,34,-1
 3052 1528 l 2,35,36
 2892 1344 2892 1344 2662 1152 c 128,-1,37
 2432 960 2432 960 2236 864 c 1,38,39
 1532 1144 1532 1144 748 1772 c 1,40,41
 820 1224 820 1224 820 528 c 2,42,-1
 820 356 l 1,43,44
 636 196 636 196 576 152 c 0,45,46
 384 20 384 20 128 20 c 1,47,48
 128 108 128 108 126 1244 c 128,-1,49
 124 2380 124 2380 124 2672 c 0,0,1
EndSplineSet
Validated: 1
EndChar

StartChar: Nu
Encoding: 925 925 107
Width: 4124
VWidth: 0
Flags: W
VStem: 40 616<64 2036> 3328 680<1740 2780> 3344 700<700 2780>
LayerCount: 2
Fore
SplineSet
656 216 m 1,0,1
 644 144 644 144 606 96 c 128,-1,2
 568 48 568 48 504 26 c 128,-1,3
 440 4 440 4 372 -4 c 128,-1,4
 304 -12 304 -12 208 -12 c 0,5,6
 152 -12 152 -12 48 -28 c 1,7,8
 48 4 48 4 44 136 c 0,9,10
 40 272 40 272 40 368 c 2,11,-1
 40 760 l 2,12,13
 40 1884 40 1884 144 2840 c 1,14,15
 272 2904 272 2904 424 2904 c 128,-1,16
 576 2904 576 2904 736 2840 c 1,17,18
 916 2600 916 2600 1178 2346 c 128,-1,19
 1440 2092 1440 2092 1618 1948 c 0,20,21
 1792 1808 1792 1808 1952 1696 c 2,22,-1
 2632 1204 l 2,23,24
 3016 916 3016 916 3264 692 c 1,25,26
 3344 1060 3344 1060 3344 1308 c 2,27,28
 3344 1312 3344 1312 3344 2120 c 2,29,30
 3344 2312 3344 2312 3336 2532 c 128,-1,31
 3328 2752 3328 2752 3328 2780 c 1,32,-1
 3196 3072 l 1,33,34
 3376 3160 3376 3160 3600 3160 c 0,35,36
 3816 3160 3816 3160 4008 3084 c 1,37,38
 4008 2964 4008 2964 4028 2498 c 128,-1,39
 4048 2032 4048 2032 4048 1684 c 128,-1,40
 4048 1336 4048 1336 4066 880 c 128,-1,41
 4084 424 4084 424 4084 312 c 2,42,-1
 4084 260 l 1,43,44
 4072 244 4072 244 4044 230 c 128,-1,45
 4016 216 4016 216 4004 208 c 0,46,47
 3992 192 3992 192 3960 152 c 2,48,-1
 3908 96 l 2,49,50
 3856 48 3856 48 3772 -8 c 1,51,52
 3484 152 3484 152 3046 428 c 128,-1,53
 2608 704 2608 704 2456 832 c 2,54,-1
 832 2200 l 1,55,56
 768 2184 768 2184 712 2118 c 128,-1,57
 656 2052 656 2052 656 1976 c 2,58,-1
 656 216 l 1,0,1
EndSplineSet
Validated: 1
EndChar

StartChar: Xi
Encoding: 926 926 108
Width: 3788
VWidth: 0
Flags: W
HStem: 24 420<1624 2720> 24 384<1632 3684> 24 348<2616 3700> 2664 368<1320 2104> 2784 368<68 732> 2896 136<3252 3424>
LayerCount: 2
Fore
SplineSet
144 3152 m 0,0,1
 152 3152 152 3152 244 3140 c 128,-1,2
 336 3128 336 3128 512 3110 c 128,-1,3
 688 3092 688 3092 928 3074 c 128,-1,4
 1168 3056 1168 3056 1548 3044 c 128,-1,5
 1928 3032 1928 3032 2352 3032 c 2,6,-1
 3344 3032 l 2,7,8
 3376 3032 3376 3032 3400 3010 c 128,-1,9
 3424 2988 3424 2988 3424 2960 c 0,10,11
 3424 2916 3424 2916 3384 2896 c 0,12,13
 3224 2816 3224 2816 2908 2684 c 128,-1,14
 2592 2552 2592 2552 2326 2424 c 128,-1,15
 2060 2296 2060 2296 1888 2164 c 1,16,17
 2488 1932 2488 1932 2896 1684 c 0,18,19
 3052 1592 3052 1592 3052 1440 c 128,-1,20
 3052 1288 3052 1288 2896 1200 c 1,21,22
 2824 1148 2824 1148 2534 992 c 128,-1,23
 2244 836 2244 836 1974 680 c 0,24,25
 1704 520 1704 520 1624 440 c 1,26,27
 1704 440 1704 440 2036 424 c 128,-1,28
 2368 408 2368 408 2616 408 c 128,-1,29
 2864 408 2864 408 3204 388 c 128,-1,30
 3544 368 3544 368 3632 368 c 0,31,32
 3692 368 3692 368 3720 312 c 128,-1,33
 3748 256 3748 256 3748 184 c 0,34,35
 3748 148 3748 148 3724 102 c 128,-1,36
 3700 56 3700 56 3700 24 c 1,37,38
 3704 24 3704 24 528 24 c 2,39,40
 496 24 496 24 472 46 c 0,41,42
 448 64 448 64 448 96 c 128,-1,43
 448 128 448 128 480 152 c 0,44,45
 1336 824 1336 824 2260 1360 c 1,46,47
 2280 1392 2280 1392 2280 1416 c 0,48,49
 2272 1416 2272 1416 2272 1424 c 0,50,51
 2256 1440 2256 1440 2204 1486 c 128,-1,52
 2152 1532 2152 1532 2108 1562 c 128,-1,53
 2064 1592 2064 1592 2016 1608 c 2,54,-1
 1044 1900 l 1,55,56
 1028 1976 1028 1976 1028 2024 c 0,57,58
 1032 2120 1032 2120 1104 2188 c 0,59,60
 1400 2444 1400 2444 2120 2728 c 1,61,62
 1624 2664 1624 2664 1264 2664 c 0,63,64
 824 2664 824 2664 168 2784 c 0,65,66
 112 2792 112 2792 76 2854 c 0,67,68
 40 2912 40 2912 40 2984 c 0,69,70
 40 3028 40 3028 72 3090 c 128,-1,71
 104 3152 104 3152 144 3152 c 0,0,1
EndSplineSet
Validated: 37
EndChar

StartChar: Omicron
Encoding: 927 927 109
Width: 3848
VWidth: 0
Flags: W
HStem: 40 228<1524 2276> 2952 216<1572 2260>
VStem: 40 732<1288 2020> 3072 736<1200 2068>
LayerCount: 2
Fore
SplineSet
40 1632 m 0,0,1
 40 1904 40 1904 148 2152 c 128,-1,2
 256 2400 256 2400 440 2580 c 128,-1,3
 624 2760 624 2760 864 2896 c 128,-1,4
 1104 3032 1104 3032 1374 3100 c 128,-1,5
 1644 3168 1644 3168 1916 3168 c 128,-1,6
 2188 3168 2188 3168 2460 3104 c 128,-1,7
 2732 3040 2732 3040 2974 2912 c 128,-1,8
 3216 2784 3216 2784 3404 2608 c 128,-1,9
 3592 2432 3592 2432 3700 2192 c 128,-1,10
 3808 1952 3808 1952 3808 1688 c 0,11,12
 3808 1440 3808 1440 3728 1216 c 128,-1,13
 3648 992 3648 992 3508 812 c 128,-1,14
 3368 632 3368 632 3176 484 c 128,-1,15
 2984 336 2984 336 2762 240 c 128,-1,16
 2540 144 2540 144 2294 92 c 128,-1,17
 2048 40 2048 40 1808 40 c 0,18,19
 1440 40 1440 40 1108 168 c 128,-1,20
 776 296 776 296 544 516 c 128,-1,21
 312 736 312 736 176 1026 c 128,-1,22
 40 1316 40 1316 40 1632 c 0,0,1
1912 2952 m 0,23,24
 1760 2952 1760 2952 1608 2884 c 128,-1,25
 1456 2816 1456 2816 1334 2704 c 128,-1,26
 1212 2592 1212 2592 1106 2452 c 128,-1,27
 1000 2312 1000 2312 928 2168 c 128,-1,28
 856 2024 856 2024 814 1896 c 128,-1,29
 772 1768 772 1768 772 1672 c 0,30,31
 772 1604 772 1604 798 1486 c 128,-1,32
 824 1368 824 1368 884 1206 c 128,-1,33
 944 1044 944 1044 1028 888 c 128,-1,34
 1112 732 1112 732 1240 584 c 0,35,36
 1368 440 1368 440 1520 352 c 0,37,38
 1668 264 1668 264 1868 264 c 0,39,40
 1964 264 1964 264 2062 282 c 128,-1,41
 2160 300 2160 300 2280 348 c 128,-1,42
 2400 396 2400 396 2508 472 c 128,-1,43
 2616 548 2616 548 2724 678 c 128,-1,44
 2832 808 2832 808 2904 976 c 1,45,46
 3072 1408 3072 1408 3072 1676 c 0,47,48
 3072 1948 3072 1948 2904 2246 c 128,-1,49
 2736 2544 2736 2544 2464 2748 c 128,-1,50
 2192 2952 2192 2952 1912 2952 c 0,23,24
EndSplineSet
Validated: 1
EndChar

StartChar: Pi
Encoding: 928 928 110
Width: 3844
VWidth: 0
Flags: W
HStem: 40 40G<552 640 3008 3120> 2744 360<1032 2916 3492 3752> 2804 300<56 420>
VStem: 420 612<248 2744> 2916 576<168 2744>
LayerCount: 2
Fore
SplineSet
3660 3104 m 1,0,1
 3668 3088 3668 3088 3710 3056 c 128,-1,2
 3752 3024 3752 3024 3778 2988 c 128,-1,3
 3804 2952 3804 2952 3804 2912 c 0,4,5
 3804 2848 3804 2848 3720 2744 c 1,6,-1
 3492 2744 l 1,7,-1
 3492 212 l 1,8,9
 3480 204 3480 204 3374 148 c 128,-1,10
 3268 92 3268 92 3190 66 c 128,-1,11
 3112 40 3112 40 3028 40 c 0,12,13
 2972 40 2972 40 2916 56 c 1,14,-1
 2916 2744 l 1,15,-1
 1032 2744 l 1,16,-1
 1032 248 l 1,17,-1
 900 144 l 1,18,19
 740 32 740 32 576 32 c 0,20,21
 504 32 504 32 420 56 c 1,22,-1
 420 2804 l 1,23,-1
 120 2804 l 1,24,25
 40 2876 40 2876 40 2960 c 0,26,27
 40 3004 40 3004 64 3054 c 128,-1,28
 88 3104 88 3104 120 3104 c 2,29,-1
 3660 3104 l 1,0,1
EndSplineSet
Validated: 1
EndChar

StartChar: Rho
Encoding: 929 929 111
Width: 3060
VWidth: 0
Flags: W
HStem: 3004 196<928 1424 1440 1564 1580 1984> 3016 248<932 1908>
VStem: 248 680<-984 880 1324 3000> 320 608<-440 2248> 2188 832<2296 2728>
LayerCount: 2
Fore
SplineSet
240 3436 m 1,0,1
 416 3524 416 3524 560 3524 c 0,2,3
 696 3524 696 3524 912 3452 c 1,4,-1
 912 3200 l 1,5,6
 1192 3264 1192 3264 1432 3264 c 0,7,8
 1616 3264 1616 3264 2140 3200 c 1,9,10
 2520 3068 2520 3068 2772 2888 c 128,-1,11
 3024 2708 3024 2708 3024 2516 c 0,12,13
 3024 2408 3024 2408 2944 2296 c 0,14,15
 2352 1464 2352 1464 892 884 c 1,16,17
 928 708 928 708 928 368 c 0,18,19
 928 200 928 200 916 -136 c 128,-1,20
 904 -472 904 -472 904 -600 c 0,21,22
 904 -720 904 -720 896 -810 c 128,-1,23
 888 -900 888 -900 876 -946 c 128,-1,24
 864 -992 864 -992 848 -992 c 0,25,26
 844 -992 844 -992 844 -988 c 0,27,28
 784 -1108 784 -1108 720 -1190 c 128,-1,29
 656 -1272 656 -1272 566 -1344 c 128,-1,30
 476 -1416 476 -1416 398 -1462 c 128,-1,31
 320 -1508 320 -1508 172 -1588 c 1,32,33
 172 -1484 172 -1484 210 -1064 c 128,-1,34
 248 -644 248 -644 248 -324 c 0,35,36
 248 -12 248 -12 284 424 c 128,-1,37
 320 860 320 860 320 976 c 0,38,39
 320 1796 320 1796 240 2432 c 1,40,41
 240 2756 240 2756 184 2938 c 128,-1,42
 128 3120 128 3120 40 3120 c 1,43,-1
 240 3436 l 1,0,1
928 3004 m 9,44,-1
 928 1324 l 1,45,46
 1192 1436 1192 1436 1354 1518 c 0,47,48
 1520 1600 1520 1600 1696 1724 c 0,49,50
 2192 2044 2192 2044 2188 2564 c 0,51,52
 2188 2644 2188 2644 2166 2706 c 128,-1,53
 2144 2768 2144 2768 2098 2816 c 128,-1,54
 2052 2864 2052 2864 2008 2900 c 128,-1,55
 1964 2936 1964 2936 1884 2984 c 0,56,57
 1860 2996 1860 2996 1852 3004 c 0,58,59
 1768 3016 1768 3016 1576 3016 c 0,60,61
 1460 3016 1460 3016 1232 3010 c 128,-1,62
 1004 3004 1004 3004 928 3004 c 9,44,-1
EndSplineSet
Validated: 33
EndChar

StartChar: Sigma
Encoding: 931 931 112
Width: 3472
VWidth: 0
Flags: W
HStem: 40 396<1320 2488> 2844 340<1436 2248>
VStem: 40 636<1032 1964>
LayerCount: 2
Fore
SplineSet
3376 2632 m 1,0,1
 3412 2592 3412 2592 3422 2572 c 128,-1,2
 3432 2552 3432 2552 3432 2524 c 0,3,4
 3432 2516 3432 2516 3432 2482 c 128,-1,5
 3432 2448 3432 2448 3432 2416 c 0,6,7
 3432 2344 3432 2344 3336 2236 c 128,-1,8
 3240 2128 3240 2128 3128 2064 c 1,9,10
 3104 2024 3104 2024 3064 2024 c 0,11,12
 3028 2024 3028 2024 3006 2046 c 128,-1,13
 2984 2068 2984 2068 2964 2106 c 128,-1,14
 2944 2144 2944 2144 2874 2230 c 128,-1,15
 2804 2316 2804 2316 2704 2412 c 0,16,17
 2696 2424 2696 2424 2628 2488 c 2,18,19
 2632 2488 2632 2488 2488 2608 c 2,20,21
 2388 2696 2388 2696 2218 2770 c 128,-1,22
 2048 2844 2048 2844 1828 2844 c 0,23,24
 1416 2844 1416 2844 1040 2476 c 0,25,26
 832 2284 832 2284 754 2048 c 128,-1,27
 676 1812 676 1812 676 1392 c 0,28,29
 676 1328 676 1328 692 1248 c 128,-1,30
 708 1168 708 1168 750 1058 c 128,-1,31
 792 948 792 948 888 828 c 128,-1,32
 984 708 984 708 1128 604 c 1,33,34
 1448 436 1448 436 2008 436 c 0,35,36
 2680 436 2680 436 3344 640 c 1,37,38
 3220 536 3220 536 3118 460 c 128,-1,39
 3016 384 3016 384 2874 300 c 128,-1,40
 2732 216 2732 216 2594 162 c 128,-1,41
 2456 108 2456 108 2276 74 c 128,-1,42
 2096 40 2096 40 1904 40 c 0,43,44
 1460 40 1460 40 1036 152 c 128,-1,45
 612 264 612 264 496 400 c 1,46,47
 296 596 296 596 168 864 c 128,-1,48
 40 1132 40 1132 40 1444 c 0,49,50
 40 1816 40 1816 196 2144 c 128,-1,51
 352 2472 352 2472 556 2652 c 1,52,53
 740 2832 740 2832 1132 3048 c 1,54,55
 1352 3184 1352 3184 1872 3184 c 0,56,57
 2056 3184 2056 3184 2544 3056 c 1,58,-1
 2672 3056 l 2,59,60
 2696 3056 2696 3056 2740 3032 c 128,-1,61
 2784 3008 2784 3008 2888 2944 c 128,-1,62
 2992 2880 2992 2880 3064 2844 c 0,63,64
 3376 2668 3376 2668 3376 2632 c 1,0,1
EndSplineSet
Validated: 33
EndChar

StartChar: Tau
Encoding: 932 932 113
Width: 4256
VWidth: 0
Flags: W
HStem: 2704 368<484 1984 2632 2888 2904 4172> 2720 352<2640 3488>
VStem: 1984 648<248 2704>
LayerCount: 2
Fore
SplineSet
200 2584 m 1,0,1
 200 2592 200 2592 158 2674 c 128,-1,2
 116 2756 116 2756 78 2846 c 128,-1,3
 40 2936 40 2936 40 2968 c 0,4,5
 40 2976 40 2976 40 2980 c 0,6,7
 40 3072 40 3072 176 3072 c 2,8,-1
 4136 3072 l 1,9,10
 4216 2880 4216 2880 4216 2808 c 0,11,12
 4216 2680 4216 2680 4048 2680 c 0,13,14
 4000 2680 4000 2680 3818 2692 c 0,15,16
 3640 2704 3640 2704 3504 2704 c 0,17,18
 3352 2704 3352 2704 3160 2712 c 128,-1,19
 2968 2720 2968 2720 2896 2720 c 0,20,21
 2768 2720 2768 2720 2632 2704 c 1,22,-1
 2632 292 l 1,23,24
 2556 156 2556 156 2378 68 c 128,-1,25
 2200 -20 2200 -20 1984 -20 c 1,26,-1
 1984 2704 l 1,27,-1
 1524 2704 l 2,28,29
 648 2704 648 2704 200 2584 c 1,0,1
EndSplineSet
Validated: 1
EndChar

StartChar: Upsilon
Encoding: 933 933 114
Width: 5468
VWidth: 0
Flags: W
HStem: 2480 652<496 988>
VStem: 2560 536<-40 1200>
LayerCount: 2
Fore
SplineSet
40 2480 m 1,0,1
 40 2756 40 2756 220 2946 c 128,-1,2
 400 3136 400 3136 676 3136 c 0,3,4
 928 3136 928 3136 1184 3024 c 0,5,6
 1200 3016 1200 3016 1284 2984 c 128,-1,7
 1368 2952 1368 2952 1400 2938 c 128,-1,8
 1432 2924 1432 2924 1492 2894 c 128,-1,9
 1552 2864 1552 2864 1596 2830 c 0,10,11
 1640 2800 1640 2800 1680 2760 c 2,12,-1
 2872 1572 l 1,13,14
 2872 1576 2872 1576 4496 3360 c 1,15,16
 4668 3424 4668 3424 4828 3424 c 0,17,18
 4956 3424 4956 3424 5054 3388 c 128,-1,19
 5152 3352 5152 3352 5274 3264 c 128,-1,20
 5396 3176 5396 3176 5428 3160 c 1,21,22
 5192 3048 5192 3048 4896 2848 c 2,23,-1
 4656 2688 l 1,24,25
 4392 2504 4392 2504 4204 2356 c 128,-1,26
 4016 2208 4016 2208 3826 2032 c 128,-1,27
 3636 1856 3636 1856 3482 1660 c 128,-1,28
 3328 1464 3328 1464 3200 1240 c 0,29,30
 3096 1040 3096 1040 3096 720 c 0,31,32
 3096 360 3096 360 2936 -408 c 128,-1,33
 2776 -1176 2776 -1176 2648 -1568 c 1,34,35
 2592 -1304 2592 -1304 2576 -1024 c 128,-1,36
 2560 -744 2560 -744 2560 -360 c 2,37,-1
 2560 8 l 1,38,-1
 2560 896 l 2,39,40
 2560 1136 2560 1136 2480 1296 c 0,41,42
 2352 1564 2352 1564 2052 1816 c 128,-1,43
 1752 2068 1752 2068 1380 2242 c 128,-1,44
 1008 2416 1008 2416 648 2480 c 1,45,-1
 40 2480 l 1,0,1
EndSplineSet
Validated: 1
EndChar

StartChar: Phi
Encoding: 934 934 115
Width: 4836
VWidth: 0
Flags: W
VStem: 40 616<1448 1768> 2152 580<2716 3696> 2152 552<-512 304 648 2468> 4228 568<1276 1688>
LayerCount: 2
Fore
SplineSet
4712 1712 m 0,0,1
 4796 1644 4796 1644 4796 1532 c 0,2,3
 4796 1416 4796 1416 4712 1268 c 1,4,5
 3712 696 3712 696 2680 328 c 1,6,-1
 2680 -512 l 1,7,8
 2592 -624 2592 -624 2468 -686 c 0,9,10
 2344 -752 2344 -752 2152 -792 c 1,11,-1
 2152 304 l 1,12,-1
 1312 664 l 1,13,14
 580 1040 580 1040 128 1448 c 0,15,16
 40 1528 40 1528 40 1624 c 0,17,18
 40 1704 40 1704 104 1760 c 0,19,20
 520 2060 520 2060 978 2270 c 128,-1,21
 1436 2480 1436 2480 2152 2744 c 1,22,-1
 2152 4032 l 1,23,24
 2192 4048 2192 4048 2228 4048 c 0,25,26
 2284 4048 2284 4048 2342 4024 c 128,-1,27
 2400 4000 2400 4000 2458 3956 c 128,-1,28
 2516 3912 2516 3912 2546 3884 c 128,-1,29
 2576 3856 2576 3856 2624 3808 c 2,30,-1
 2732 3696 l 1,31,-1
 2732 2732 l 1,32,33
 3784 2408 3784 2408 4712 1712 c 0,0,1
2152 648 m 9,34,-1
 2152 2504 l 1,35,36
 2064 2472 2064 2472 1876 2414 c 128,-1,37
 1688 2356 1688 2356 1564 2314 c 128,-1,38
 1440 2272 1440 2272 1284 2208 c 128,-1,39
 1128 2144 1128 2144 1002 2064 c 128,-1,40
 876 1984 876 1984 784 1888 c 0,41,42
 656 1752 656 1752 656 1640 c 0,43,44
 656 1360 656 1360 940 1168 c 0,45,46
 956 1156 956 1156 1006 1120 c 128,-1,47
 1056 1084 1056 1084 1084 1064 c 128,-1,48
 1112 1044 1112 1044 1160 1018 c 128,-1,49
 1208 992 1208 992 1256 976 c 2,50,-1
 2152 648 l 9,34,-1
3712 956 m 1,51,52
 3768 980 3768 980 3844 1030 c 128,-1,53
 3920 1080 3920 1080 4012 1150 c 128,-1,54
 4104 1220 4104 1220 4166 1310 c 128,-1,55
 4228 1400 4228 1400 4228 1480 c 0,56,57
 4228 1592 4228 1592 4124 1708 c 0,58,59
 4084 1752 4084 1752 4042 1792 c 128,-1,60
 4000 1832 4000 1832 3942 1874 c 128,-1,61
 3884 1916 3884 1916 3838 1946 c 128,-1,62
 3792 1976 3792 1976 3716 2016 c 128,-1,63
 3640 2056 3640 2056 3600 2080 c 128,-1,64
 3560 2104 3560 2104 3472 2144 c 128,-1,65
 3384 2184 3384 2184 3352 2200 c 128,-1,66
 3320 2216 3320 2216 3224 2258 c 128,-1,67
 3128 2300 3128 2300 3108 2308 c 2,68,-1
 2704 2468 l 1,69,-1
 2704 620 l 1,70,-1
 3712 956 l 1,51,52
EndSplineSet
Validated: 1
EndChar

StartChar: Chi
Encoding: 935 935 116
Width: 4396
VWidth: 0
Flags: W
HStem: 2752 464<3280 3860> 2752 412<3280 3852>
LayerCount: 2
Fore
SplineSet
4056 -72 m 0,0,1
 3832 -72 3832 -72 3556 52 c 128,-1,2
 3280 176 3280 176 2996 394 c 128,-1,3
 2712 612 2712 612 2444 866 c 128,-1,4
 2176 1120 2176 1120 1908 1424 c 1,5,6
 1496 712 1496 712 976 456 c 2,7,-1
 136 48 l 1,8,-1
 1096 936 l 1,9,10
 1400 1288 1400 1288 1636 1720 c 1,11,12
 1632 1720 1632 1720 1312 2180 c 2,13,14
 1288 2204 1288 2204 1236 2238 c 128,-1,15
 1184 2272 1184 2272 1172 2280 c 0,16,17
 1036 2400 1036 2400 834 2478 c 128,-1,18
 632 2556 632 2556 420 2556 c 0,19,20
 216 2560 216 2560 40 2480 c 1,21,22
 40 2960 40 2960 444 3176 c 1,23,24
 504 3156 504 3156 678 3142 c 0,25,26
 848 3128 848 3128 912 3104 c 0,27,28
 1032 3072 1032 3072 1152 2980 c 128,-1,29
 1272 2888 1272 2888 1380 2760 c 128,-1,30
 1488 2632 1488 2632 1576 2508 c 128,-1,31
 1664 2384 1664 2384 1762 2248 c 128,-1,32
 1860 2112 1860 2112 1920 2040 c 1,33,34
 1992 2120 1992 2120 2092 2256 c 128,-1,35
 2192 2392 2192 2392 2268 2498 c 128,-1,36
 2344 2604 2344 2604 2458 2714 c 128,-1,37
 2572 2824 2572 2824 2688 2888 c 0,38,39
 2812 2960 2812 2960 2876 2996 c 128,-1,40
 2940 3032 2940 3032 3046 3080 c 128,-1,41
 3152 3128 3152 3128 3252 3148 c 128,-1,42
 3352 3168 3352 3168 3464 3168 c 0,43,44
 3540 3168 3540 3168 3892 3216 c 1,45,-1
 3892 3080 l 2,46,47
 3892 3020 3892 3020 3886 2966 c 128,-1,48
 3880 2912 3880 2912 3874 2892 c 128,-1,49
 3868 2872 3868 2872 3852 2820 c 128,-1,50
 3836 2768 3836 2768 3832 2752 c 1,51,-1
 3720 2752 l 2,52,53
 3568 2752 3568 2752 3482 2740 c 0,54,55
 3400 2728 3400 2728 3280 2672 c 0,56,57
 3192 2632 3192 2632 3116 2584 c 128,-1,58
 3040 2536 3040 2536 2956 2470 c 128,-1,59
 2872 2404 2872 2404 2824 2362 c 128,-1,60
 2776 2320 2776 2320 2668 2222 c 0,61,62
 2560 2128 2560 2128 2508 2080 c 2,63,-1
 2224 1816 l 1,64,65
 2488 1320 2488 1320 2932 956 c 0,66,67
 2972 924 2972 924 3058 842 c 128,-1,68
 3144 760 3144 760 3216 700 c 128,-1,69
 3288 640 3288 640 3368 592 c 2,70,-1
 4356 0 l 1,71,72
 4216 -72 4216 -72 4056 -72 c 0,0,1
EndSplineSet
Validated: 33
EndChar

StartChar: Psi
Encoding: 936 936 117
Width: 4788
VWidth: 0
Flags: W
HStem: 1596 40G<4420 4572> 1716 324<560 1460> 1764 396<3832 4352>
VStem: 2092 900<3512 4032> 2236 528<-1440 940> 2300 464<188 1364 1560 3244>
LayerCount: 2
Fore
SplineSet
2300 2460 m 2,0,1
 2300 2792 2300 2792 2268 3060 c 128,-1,2
 2236 3328 2236 3328 2196 3458 c 128,-1,3
 2156 3588 2156 3588 2124 3686 c 128,-1,4
 2092 3784 2092 3784 2092 3816 c 0,5,6
 2092 3968 2092 3968 2214 4104 c 128,-1,7
 2336 4240 2336 4240 2472 4240 c 0,8,9
 2480 4240 2480 4240 2488 4240 c 128,-1,10
 2496 4240 2496 4240 2500 4240 c 0,11,12
 2716 4240 2716 4240 2944 4032 c 0,13,14
 2944 4024 2944 4024 2968 3920 c 128,-1,15
 2992 3816 2992 3816 2992 3784 c 0,16,17
 2992 3656 2992 3656 2932 3528 c 1,18,19
 2784 3336 2784 3336 2784 3016 c 0,20,21
 2784 2908 2784 2908 2768 2602 c 128,-1,22
 2752 2296 2752 2296 2752 2100 c 2,23,-1
 2752 1536 l 1,24,25
 3192 1836 3192 1836 3808 2064 c 0,26,27
 4080 2160 4080 2160 4468 2160 c 2,28,-1
 4684 2160 l 1,29,30
 4748 2024 4748 2024 4748 1904 c 0,31,32
 4748 1776 4748 1776 4682 1700 c 128,-1,33
 4616 1624 4616 1624 4516 1596 c 1,34,35
 4232 1764 4232 1764 3920 1764 c 0,36,37
 3368 1764 3368 1764 2764 1308 c 1,38,-1
 2764 -1308 l 1,39,40
 2548 -1692 2548 -1692 2176 -1692 c 1,41,42
 2176 -1596 2176 -1596 2206 -1118 c 128,-1,43
 2236 -640 2236 -640 2236 -260 c 0,44,45
 2236 112 2236 112 2268 638 c 128,-1,46
 2300 1164 2300 1164 2300 1320 c 1,47,48
 1688 1716 1688 1716 1124 1716 c 0,49,50
 968 1716 968 1716 812 1688 c 128,-1,51
 656 1660 656 1660 556 1630 c 128,-1,52
 456 1600 456 1600 292 1536 c 1,53,54
 40 1656 40 1656 40 1864 c 0,55,56
 40 1992 40 1992 136 2160 c 0,57,58
 144 2160 144 2160 168 2160 c 0,59,60
 272 2160 272 2160 624 2100 c 128,-1,61
 976 2040 976 2040 1012 2040 c 0,62,63
 1252 2040 1252 2040 1562 1916 c 128,-1,64
 1872 1792 1872 1792 2300 1560 c 1,65,-1
 2300 2460 l 2,0,1
EndSplineSet
Validated: 1
EndChar

StartChar: Omega
Encoding: 937 937 118
Width: 4424
VWidth: 0
Flags: W
HStem: 8 196<1048 1692 2744 3404>
VStem: 40 544<956 2052> 1896 616<1500 3032> 1968 488<532 2396> 3844 540<916 2068>
LayerCount: 2
Fore
SplineSet
1084 2832 m 0,0,1
 1084 2776 1084 2776 1046 2716 c 128,-1,2
 1008 2656 1008 2656 954 2600 c 128,-1,3
 900 2544 900 2544 834 2450 c 128,-1,4
 768 2356 768 2356 714 2246 c 128,-1,5
 660 2136 660 2136 622 1956 c 128,-1,6
 584 1776 584 1776 584 1556 c 0,7,8
 584 1052 584 1052 692 734 c 128,-1,9
 800 416 800 416 1072 276 c 0,10,11
 1216 204 1216 204 1408 204 c 0,12,13
 1664 204 1664 204 1816 406 c 128,-1,14
 1968 608 1968 608 1968 896 c 0,15,16
 1968 896 1968 896 1964 928 c 128,-1,17
 1960 960 1960 960 1960 1020 c 128,-1,18
 1960 1080 1960 1080 1956 1158 c 128,-1,19
 1952 1236 1952 1236 1952 1354 c 128,-1,20
 1952 1472 1952 1472 1952 1600 c 0,21,22
 1952 1720 1952 1720 1950 1808 c 128,-1,23
 1948 1896 1948 1896 1948 1960 c 128,-1,24
 1948 2024 1948 2024 1944 2084 c 128,-1,25
 1940 2144 1940 2144 1938 2172 c 128,-1,26
 1936 2200 1936 2200 1930 2248 c 128,-1,27
 1924 2296 1924 2296 1922 2308 c 128,-1,28
 1920 2320 1920 2320 1908 2380 c 128,-1,29
 1896 2440 1896 2440 1896 2460 c 2,30,-1
 1896 2772 l 2,31,32
 1896 3108 1896 3108 2200 3108 c 2,33,-1
 2256 3108 l 2,34,35
 2300 3108 2300 3108 2308 3092 c 0,36,37
 2320 3076 2320 3076 2364 3062 c 128,-1,38
 2408 3048 2408 3048 2408 3044 c 0,39,40
 2512 2948 2512 2948 2512 2772 c 0,41,42
 2512 2616 2512 2616 2476 2400 c 0,43,44
 2452 2256 2452 2256 2452 896 c 0,45,46
 2452 616 2452 616 2614 410 c 128,-1,47
 2776 204 2776 204 3028 204 c 0,48,49
 3228 204 3228 204 3376 278 c 128,-1,50
 3524 352 3524 352 3612 472 c 128,-1,51
 3700 592 3700 592 3754 776 c 128,-1,52
 3808 960 3808 960 3826 1144 c 128,-1,53
 3844 1328 3844 1328 3844 1556 c 0,54,55
 3844 1860 3844 1860 3754 2122 c 128,-1,56
 3664 2384 3664 2384 3512 2556 c 1,57,58
 3448 2688 3448 2688 3448 2756 c 0,59,60
 3448 2856 3448 2856 3544 2856 c 0,61,62
 3696 2856 3696 2856 3936 2628 c 1,63,64
 4144 2444 4144 2444 4264 2154 c 128,-1,65
 4384 1864 4384 1864 4384 1512 c 0,66,67
 4384 1204 4384 1204 4308 950 c 128,-1,68
 4232 696 4232 696 4104 524 c 128,-1,69
 3976 352 3976 352 3800 234 c 128,-1,70
 3624 116 3624 116 3432 62 c 128,-1,71
 3240 8 3240 8 3028 8 c 0,72,73
 2520 8 2520 8 2212 504 c 1,74,75
 1924 8 1924 8 1408 8 c 0,76,77
 1132 8 1132 8 902 92 c 128,-1,78
 672 176 672 176 516 320 c 128,-1,79
 360 464 360 464 250 660 c 128,-1,80
 140 856 140 856 90 1068 c 128,-1,81
 40 1280 40 1280 40 1508 c 0,82,83
 40 1700 40 1700 78 1874 c 128,-1,84
 116 2048 116 2048 166 2164 c 128,-1,85
 216 2280 216 2280 288 2384 c 128,-1,86
 360 2488 360 2488 404 2538 c 128,-1,87
 448 2588 448 2588 488 2628 c 0,88,89
 792 2916 792 2916 988 2916 c 0,90,91
 1084 2916 1084 2916 1084 2832 c 0,0,1
EndSplineSet
Validated: 1
EndChar

StartChar: alpha
Encoding: 945 945 119
Width: 1620
Flags: W
LayerCount: 2
Fore
SplineSet
1384 -16 m 0,0,1
 1160 -16 1160 -16 1016 316 c 1,2,3
 940 124 940 124 804 52 c 0,4,5
 688 -8 688 -8 464 -8 c 0,6,7
 268 -8 268 -8 152 136 c 0,8,9
 40 272 40 272 40 472 c 0,10,11
 40 684 40 684 200 856 c 0,12,13
 288 952 288 952 492 1088 c 0,14,15
 648 1192 648 1192 648 1240 c 0,16,17
 648 1448 648 1448 368 1696 c 1,18,19
 472 1768 472 1768 540 1768 c 0,20,21
 720 1768 720 1768 872 1352 c 0,22,23
 1004 968 1004 968 1136 584 c 1,24,25
 1320 168 1320 168 1584 168 c 1,26,27
 1580 88 1580 88 1522 36 c 128,-1,28
 1464 -16 1464 -16 1384 -16 c 0,0,1
328 560 m 0,29,30
 328 208 328 208 580 208 c 0,31,32
 848 208 848 208 928 512 c 1,33,-1
 720 1040 l 1,34,35
 328 864 328 864 328 560 c 0,29,30
EndSplineSet
Validated: 1
EndChar

StartChar: beta
Encoding: 946 946 120
Width: 1956
Flags: W
LayerCount: 2
Fore
SplineSet
1920 800 m 0,0,1
 1920 440 1920 440 1728 224 c 0,2,3
 1528 0 1528 0 1168 -4 c 0,4,5
 960 -4 960 -4 684 256 c 1,6,7
 560 12 560 12 504 -56 c 0,8,9
 368 -224 368 -224 204 -224 c 0,10,11
 96 -224 96 -224 56 -168 c 0,12,13
 40 -144 40 -144 40 -128 c 0,14,15
 40 -88 40 -88 108 -56 c 0,16,17
 172 -24 172 -24 212 -20 c 0,18,19
 244 -20 244 -20 300 -60 c 1,20,21
 480 8 480 8 480 536 c 0,22,23
 480 696 480 696 456 1022 c 0,24,25
 432 1352 432 1352 432 1512 c 0,26,27
 432 1964 432 1964 568 2260 c 0,28,29
 748 2668 748 2668 1140 2668 c 0,30,31
 1636 2668 1636 2668 1636 2056 c 0,32,33
 1640 1816 1640 1816 1408 1608 c 1,34,35
 1676 1568 1676 1568 1808 1312 c 0,36,37
 1920 1104 1920 1104 1920 800 c 0,0,1
1664 772 m 0,38,39
 1664 984 1664 984 1544 1192 c 0,40,41
 1408 1432 1408 1432 1208 1432 c 0,42,43
 1120 1432 1120 1432 904 1368 c 1,44,45
 816 1400 816 1400 816 1444 c 0,46,47
 816 1480 816 1480 852 1496 c 1,48,49
 884 1504 884 1504 948 1524 c 0,50,51
 1120 1576 1120 1576 1252 1656 c 1,52,-1
 1252 1656 l 1,53,-1
 1252 1656 l 1,54,55
 1408 1816 1408 1816 1408 2148 c 0,56,57
 1408 2500 1408 2500 1160 2500 c 0,58,59
 928 2496 928 2496 800 2152 c 0,60,61
 704 1896 704 1896 708 1612 c 0,62,63
 708 1416 708 1416 732 760 c 0,64,65
 736 496 736 496 872 332 c 0,66,67
 1016 152 1016 152 1280 152 c 0,68,69
 1472 152 1472 152 1580 376 c 0,70,71
 1664 552 1664 552 1664 772 c 0,38,39
EndSplineSet
Validated: 33
EndChar

StartChar: gamma
Encoding: 947 947 121
Width: 2068
Flags: W
LayerCount: 2
Fore
SplineSet
904 16 m 0,0,1
 904 80 904 80 740 304 c 0,2,3
 544 580 544 580 528 612 c 0,4,5
 496 672 496 672 376 1208 c 0,6,7
 296 1584 296 1584 120 1664 c 1,8,9
 40 1656 40 1656 40 1760 c 1,10,-1
 40 1784 l 1,11,12
 108 1848 108 1848 172 1848 c 0,13,14
 416 1848 416 1848 536 1528 c 1,15,16
 616 1208 616 1208 700 884 c 0,17,18
 808 488 808 488 1008 376 c 1,19,20
 1144 800 1144 800 1296 1212 c 0,21,22
 1536 1856 1536 1856 1796 1856 c 0,23,24
 1884 1856 1884 1856 1956 1788 c 128,-1,25
 2028 1720 2028 1720 2028 1632 c 0,26,27
 2028 1584 2028 1584 1980 1584 c 0,28,29
 1956 1584 1956 1584 1906 1602 c 128,-1,30
 1856 1620 1856 1620 1832 1620 c 0,31,32
 1644 1620 1644 1620 1308 464 c 2,33,-1
 884 -992 l 2,34,35
 872 -1052 872 -1052 784 -1096 c 0,36,37
 712 -1136 712 -1136 640 -1136 c 0,38,39
 576 -1136 576 -1136 496 -1088 c 0,40,41
 416 -1040 416 -1040 416 -976 c 0,42,43
 416 -920 416 -920 472 -920 c 0,44,45
 488 -920 488 -920 516 -928 c 128,-1,46
 544 -936 544 -936 560 -936 c 0,47,48
 672 -936 672 -936 792 -504 c 0,49,50
 904 -128 904 -128 904 16 c 0,0,1
EndSplineSet
Validated: 1
EndChar

StartChar: delta
Encoding: 948 948 122
Width: 1616
Flags: W
LayerCount: 2
Fore
SplineSet
1056 3000 m 0,0,1
 1264 2952 1264 2952 1432 2584 c 0,2,3
 1576 2252 1576 2252 1576 1968 c 0,4,5
 1576 1856 1576 1856 1552 1828 c 0,6,7
 1552 1824 1552 1824 1484 1824 c 0,8,9
 1436 1824 1436 1824 1332 2176 c 0,10,11
 1168 2716 1168 2716 960 2736 c 0,12,13
 864 2744 864 2744 792 2712 c 0,14,15
 712 2672 712 2672 712 2592 c 0,16,17
 712 2568 712 2568 720 2536 c 0,18,19
 728 2480 728 2480 844 2224 c 0,20,21
 896 2136 896 2136 1024 1908 c 1,22,23
 1296 1612 1296 1612 1352 1524 c 0,24,25
 1520 1264 1520 1264 1520 912 c 0,26,27
 1520 504 1520 504 1364 268 c 0,28,29
 1180 -20 1180 -20 796 -20 c 0,30,31
 416 -16 416 -16 216 256 c 0,32,33
 40 500 40 500 40 892 c 0,34,35
 40 1256 40 1256 244 1502 c 0,36,37
 448 1744 448 1744 816 1824 c 1,38,39
 716 2024 716 2024 612 2224 c 0,40,41
 464 2536 464 2536 472 2640 c 0,42,43
 488 2840 488 2840 624 2936 c 0,44,45
 736 3016 736 3016 912 3016 c 0,46,47
 984 3016 984 3016 1056 3000 c 0,0,1
784 1648 m 0,48,49
 512 1648 512 1648 392 1352 c 0,50,51
 304 1140 304 1140 304 824 c 0,52,53
 304 608 304 608 436 384 c 0,54,55
 584 128 584 128 784 128 c 0,56,57
 1040 128 1040 128 1164 376 c 0,58,59
 1260 568 1260 568 1260 852 c 0,60,61
 1260 1120 1260 1120 1156 1352 c 0,62,63
 1020 1648 1020 1648 784 1648 c 0,48,49
EndSplineSet
Validated: 33
EndChar

StartChar: epsilon
Encoding: 949 949 123
Width: 1308
Flags: W
LayerCount: 2
Fore
SplineSet
40 576 m 0,0,1
 40 680 40 680 104 800 c 128,-1,2
 168 920 168 920 260 972 c 1,3,4
 136 1172 136 1172 136 1292 c 0,5,6
 136 1540 136 1540 312 1684 c 0,7,8
 480 1820 480 1820 728 1820 c 1,9,10
 728 1696 728 1696 900 1600 c 0,11,12
 1048 1512 1048 1512 1176 1508 c 1,13,14
 1176 1428 1176 1428 1112 1378 c 128,-1,15
 1048 1328 1048 1328 968 1328 c 0,16,17
 844 1328 844 1328 728 1400 c 0,18,19
 608 1480 608 1480 576 1600 c 1,20,21
 488 1600 488 1600 428 1504 c 0,22,23
 376 1416 376 1416 376 1320 c 0,24,25
 376 1152 376 1152 516 1108 c 0,26,27
 556 1092 556 1092 780 1080 c 0,28,29
 920 1072 920 1072 920 992 c 0,30,31
 920 904 920 904 752 888 c 0,32,33
 472 864 472 864 444 856 c 0,34,35
 276 808 276 808 276 632 c 0,36,37
 276 400 276 400 388 304 c 0,38,39
 488 224 488 224 728 224 c 0,40,41
 872 224 872 224 984 280 c 0,42,43
 1056 316 1056 316 1128 388 c 0,44,45
 1192 444 1192 444 1208 444 c 0,46,47
 1272 440 1272 440 1268 360 c 0,48,49
 1268 184 1268 184 1016 72 c 0,50,51
 816 -16 816 -16 604 -16 c 0,52,53
 40 -16 40 -16 40 576 c 0,0,1
EndSplineSet
Validated: 1
EndChar

StartChar: zeta
Encoding: 950 950 124
Width: 2072
Flags: W
LayerCount: 2
Fore
SplineSet
1216 100 m 0,0,1
 1120 100 1120 100 934 42 c 128,-1,2
 748 -16 748 -16 652 -16 c 0,3,4
 352 -16 352 -16 216 64 c 0,5,6
 40 168 40 168 40 448 c 0,7,8
 40 832 40 832 460 1420 c 0,9,10
 680 1728 680 1728 1168 2264 c 1,11,12
 1008 2368 1008 2368 936 2400 c 0,13,14
 840 2440 840 2440 680 2460 c 1,15,16
 680 2552 680 2552 848 2552 c 0,17,18
 928 2552 928 2552 1252 2380 c 1,19,20
 1432 2652 1432 2652 1792 2652 c 0,21,22
 2032 2656 2032 2656 2032 2464 c 0,23,24
 2032 2324 2032 2324 1864 2240 c 0,25,26
 1728 2172 1728 2172 1576 2172 c 0,27,28
 1480 2172 1480 2172 1348 2208 c 1,29,30
 832 1584 832 1584 720 1432 c 0,31,32
 352 904 352 904 352 538 c 128,-1,33
 352 172 352 172 816 172 c 0,34,35
 920 172 920 172 1124 234 c 128,-1,36
 1328 296 1328 296 1432 296 c 0,37,38
 1540 296 1540 296 1600 200 c 0,39,40
 1648 120 1648 120 1648 8 c 0,41,42
 1648 -184 1648 -184 1544 -352 c 0,43,44
 1424 -540 1424 -540 1248 -544 c 1,45,-1
 1204 -508 l 1,46,47
 1212 -496 1212 -496 1340 -332 c 0,48,49
 1412 -244 1412 -244 1412 -116 c 0,50,51
 1412 -28 1412 -28 1358 36 c 128,-1,52
 1304 100 1304 100 1216 100 c 0,0,1
1408 2332 m 1,53,54
 1568 2296 1568 2296 1596 2296 c 0,55,56
 1672 2296 1672 2296 1736 2336 c 0,57,58
 1816 2376 1816 2376 1816 2448 c 0,59,60
 1816 2504 1816 2504 1664 2508 c 0,61,62
 1504 2508 1504 2508 1408 2332 c 1,53,54
EndSplineSet
Validated: 33
EndChar

StartChar: eta
Encoding: 951 951 125
Width: 2156
Flags: W
LayerCount: 2
Fore
SplineSet
160 1720 m 1,0,-1
 152 1720 l 1,1,2
 272 1808 272 1808 408 1808 c 0,3,4
 552 1808 552 1808 628 1760 c 0,5,6
 680 1720 680 1720 776 1584 c 1,7,8
 1088 1824 1088 1824 1432 1824 c 0,9,10
 1736 1824 1736 1824 1932 1600 c 0,11,12
 2120 1388 2120 1388 2120 1084 c 1,13,14
 2120 1088 2120 1088 2112 -360 c 0,15,16
 2112 -472 2112 -472 2104 -496 c 0,17,18
 2088 -560 2088 -560 2000 -560 c 2,19,-1
 1964 -560 l 1,20,21
 1812 -480 1812 -480 1812 -344 c 0,22,23
 1812 -260 1812 -260 1816 -94 c 128,-1,24
 1820 72 1820 72 1820 160 c 2,25,-1
 1820 848 l 2,26,27
 1824 1672 1824 1672 1288 1668 c 0,28,29
 1144 1668 1144 1668 996 1604 c 0,30,31
 816 1520 816 1520 816 1400 c 0,32,33
 816 1176 816 1176 820 732 c 128,-1,34
 824 288 824 288 824 64 c 0,35,36
 824 -32 824 -32 752 -32 c 1,37,38
 768 -32 768 -32 648 -16 c 1,39,-1
 600 24 l 1,40,41
 592 96 592 96 592 112 c 2,42,-1
 592 1160 l 2,43,44
 592 1616 592 1616 320 1616 c 0,45,46
 248 1616 248 1616 40 1488 c 1,47,48
 48 1536 48 1536 72 1632 c 1,49,-1
 160 1720 l 1,0,-1
EndSplineSet
Validated: 33
EndChar

StartChar: theta
Encoding: 952 952 126
Width: 1992
Flags: W
LayerCount: 2
Fore
SplineSet
1952 1248 m 0,0,1
 1952 752 1952 752 1728 400 c 0,2,3
 1464 -16 1464 -16 1000 -16 c 0,4,5
 568 -16 568 -16 288 368 c 0,6,7
 40 712 40 712 40 1160 c 0,8,9
 40 1696 40 1696 240 2120 c 0,10,11
 496 2656 496 2656 972 2652 c 0,12,13
 1468 2652 1468 2652 1736 2176 c 0,14,15
 1952 1784 1952 1784 1952 1248 c 0,0,1
1632 1372 m 1,16,17
 1560 2528 1560 2528 988 2528 c 0,18,19
 640 2528 640 2528 488 2092 c 0,20,21
 408 1868 408 1868 352 1368 c 1,22,-1
 1632 1372 l 1,16,17
1648 1148 m 1,23,-1
 368 1144 l 1,24,25
 432 92 432 92 984 92 c 0,26,27
 1328 92 1328 92 1496 472 c 0,28,29
 1592 692 1592 692 1648 1148 c 1,23,-1
EndSplineSet
Validated: 33
EndChar

StartChar: iota
Encoding: 953 953 127
Width: 500
Flags: W
LayerCount: 2
Fore
SplineSet
456 120 m 1,0,-1
 456 120 l 1,1,-1
 464 88 l 1,2,3
 424 -16 424 -16 280 -16 c 0,4,5
 88 -16 88 -16 88 140 c 0,6,7
 88 184 88 184 128 258 c 128,-1,8
 168 332 168 332 168 400 c 2,9,-1
 152 1516 l 2,10,11
 152 1536 152 1536 72 1584 c 1,12,-1
 40 1664 l 1,13,14
 40 1736 40 1736 104 1776 c 0,15,16
 160 1816 160 1816 232 1812 c 0,17,18
 448 1808 448 1808 448 1632 c 0,19,20
 448 1584 448 1584 412 1504 c 128,-1,21
 376 1424 376 1424 376 1376 c 2,22,-1
 376 256 l 2,23,24
 376 232 376 232 396 196 c 128,-1,25
 416 160 416 160 436 160 c 1,26,27
 448 152 448 152 456 120 c 1,0,-1
EndSplineSet
Validated: 37
EndChar

StartChar: kappa
Encoding: 954 954 128
Width: 1580
Flags: W
LayerCount: 2
Fore
SplineSet
736 1048 m 0,0,1
 848 1048 848 1048 984 812 c 0,2,3
 1104 592 1104 592 1224 376 c 1,4,5
 1384 152 1384 152 1544 168 c 1,6,-1
 1408 -8 l 2,7,8
 1400 -8 1400 -8 1374 -12 c 128,-1,9
 1348 -16 1348 -16 1336 -16 c 0,10,11
 1192 -16 1192 -16 1040 212 c 1,12,13
 920 424 920 424 796 640 c 0,14,15
 656 872 656 872 536 872 c 0,16,17
 456 872 456 872 400 840 c 0,18,19
 328 800 328 800 324 728 c 0,20,21
 324 672 324 672 328 392 c 0,22,23
 332 192 332 192 332 64 c 0,24,25
 332 -12 332 -12 128 -12 c 0,26,27
 104 -12 104 -12 78 18 c 128,-1,28
 52 48 52 48 52 72 c 0,29,30
 52 1088 52 1088 40 1664 c 0,31,32
 40 1760 40 1760 104 1792 c 0,33,34
 140 1808 140 1808 252 1808 c 0,35,36
 324 1808 324 1808 328 1504 c 2,37,-1
 328 1016 l 1,38,39
 472 1128 472 1128 800 1516 c 0,40,41
 928 1668 928 1668 1032 1728 c 0,42,43
 1152 1800 1152 1800 1336 1800 c 1,44,-1
 672 1048 l 1,45,46
 696 1048 696 1048 736 1048 c 0,0,1
EndSplineSet
Validated: 33
EndChar

StartChar: lambda
Encoding: 955 955 129
Width: 2124
Flags: W
LayerCount: 2
Fore
SplineSet
1880 -12 m 0,0,1
 1672 -12 1672 -12 1416 428 c 0,2,3
 1336 564 1336 564 1108 1056 c 1,4,5
 972 984 972 984 900 728 c 0,6,7
 848 528 848 528 800 328 c 1,8,9
 760 220 760 220 620 98 c 128,-1,10
 480 -24 480 -24 364 -24 c 0,11,12
 224 -24 224 -24 224 40 c 0,13,14
 224 64 224 64 248 108 c 1,15,16
 408 112 408 112 568 464 c 0,17,18
 600 536 600 536 632 684 c 128,-1,19
 664 832 664 832 696 904 c 0,20,21
 736 996 736 996 848 1144 c 0,22,23
 960 1296 960 1296 1000 1376 c 1,24,25
 996 1464 996 1464 872 1736 c 0,26,27
 760 1980 760 1980 684 2100 c 0,28,29
 568 2284 568 2284 432 2364 c 0,30,31
 360 2408 360 2408 256 2424 c 0,32,33
 168 2436 168 2436 72 2452 c 0,34,35
 40 2460 40 2460 40 2500 c 0,36,37
 40 2552 40 2552 152 2600 c 0,38,39
 248 2648 248 2648 312 2648 c 0,40,41
 656 2648 656 2648 968 2128 c 0,42,43
 1192 1752 1192 1752 1320 1276 c 0,44,45
 1368 1084 1368 1084 1532 756 c 0,46,47
 1776 280 1776 280 1928 224 c 1,48,-1
 1944 224 l 2,49,50
 2088 224 2088 224 2088 152 c 0,51,52
 2088 100 2088 100 2012 44 c 128,-1,53
 1936 -12 1936 -12 1880 -12 c 0,0,1
EndSplineSet
Validated: 1
EndChar

StartChar: mu
Encoding: 956 956 130
Width: 1876
Flags: W
LayerCount: 2
Fore
SplineSet
96 -1072 m 1,0,1
 128 -1008 128 -1008 178 -844 c 128,-1,2
 228 -680 228 -680 228 -616 c 2,3,-1
 212 1448 l 2,4,5
 212 1656 212 1656 176 1656 c 2,6,-1
 112 1652 l 2,7,8
 64 1652 64 1652 40 1664 c 1,9,10
 152 1836 152 1836 312 1836 c 0,11,12
 480 1836 480 1836 480 1528 c 0,13,14
 480 1412 480 1412 462 1182 c 128,-1,15
 444 952 444 952 444 840 c 0,16,17
 440 144 440 144 984 140 c 0,18,19
 1248 136 1248 136 1392 376 c 0,20,21
 1520 576 1520 576 1520 856 c 0,22,23
 1520 1040 1520 1040 1456 1296 c 0,24,25
 1376 1616 1376 1616 1264 1656 c 2,26,-1
 1152 1696 l 1,27,28
 1184 1736 1184 1736 1456 1860 c 1,29,30
 1640 1856 1640 1856 1752 1520 c 0,31,32
 1840 1264 1840 1264 1840 1032 c 0,33,34
 1840 576 1840 576 1560 288 c 128,-1,35
 1280 0 1280 0 832 0 c 0,36,37
 712 0 712 0 496 104 c 1,38,39
 472 32 472 32 472 -384 c 0,40,41
 472 -524 472 -524 492 -560 c 0,42,43
 496 -576 496 -576 560 -704 c 1,44,45
 648 -736 648 -736 644 -784 c 0,46,47
 644 -872 644 -872 474 -1008 c 128,-1,48
 304 -1144 304 -1144 208 -1144 c 0,49,50
 88 -1144 88 -1144 96 -1072 c 1,0,1
EndSplineSet
Validated: 33
EndChar

StartChar: nu
Encoding: 957 957 131
Width: 2108
Flags: W
LayerCount: 2
Fore
SplineSet
1220 -16 m 0,0,1
 1160 -16 1160 -16 656 1032 c 0,2,3
 592 1168 592 1168 456 1448 c 0,4,5
 408 1536 408 1536 296 1536 c 0,6,7
 188 1536 188 1536 100 1376 c 0,8,9
 88 1368 88 1368 64 1360 c 1,10,11
 40 1400 40 1400 40 1448 c 0,12,13
 40 1604 40 1604 146 1710 c 128,-1,14
 252 1816 252 1816 408 1816 c 0,15,16
 584 1816 584 1816 752 1448 c 0,17,18
 932 1048 932 1048 1264 392 c 1,19,-1
 1676 1296 l 2,20,21
 1704 1344 1704 1344 1896 1788 c 0,22,23
 1912 1816 1912 1816 1948 1816 c 0,24,25
 2072 1816 2072 1816 2072 1772 c 0,26,27
 2072 1752 2072 1752 1292 64 c 0,28,29
 1260 -16 1260 -16 1220 -16 c 0,0,1
EndSplineSet
Validated: 1
EndChar

StartChar: xi
Encoding: 958 958 132
Width: 2156
Flags: W
LayerCount: 2
Fore
SplineSet
1104 -672 m 1,0,-1
 1044 -600 l 1,1,2
 1116 -472 1116 -472 1304 -396 c 1,3,4
 1456 -344 1456 -344 1608 -296 c 1,5,6
 1752 -240 1752 -240 1752 -136 c 0,7,8
 1752 56 1752 56 1496 56 c 0,9,10
 1376 56 1376 56 1148 16 c 128,-1,11
 920 -24 920 -24 800 -24 c 0,12,13
 464 -24 464 -24 272 104 c 0,14,15
 40 256 40 256 40 568 c 0,16,17
 40 1112 40 1112 432 1308 c 1,18,19
 312 1360 312 1360 240 1504 c 0,20,21
 172 1632 172 1632 172 1776 c 0,22,23
 176 2040 176 2040 408 2208 c 0,24,25
 616 2352 616 2352 892 2352 c 0,26,27
 996 2352 996 2352 1194 2316 c 128,-1,28
 1392 2280 1392 2280 1496 2280 c 0,29,30
 1608 2280 1608 2280 1656 2324 c 1,31,-1
 1672 2392 l 1,32,-1
 1648 2440 l 1,33,34
 1576 2504 1576 2504 1480 2504 c 0,35,36
 1448 2504 1448 2504 1376 2496 c 128,-1,37
 1304 2488 1304 2488 1272 2488 c 1,38,39
 1640 2636 1640 2636 1816 2636 c 0,40,41
 2048 2636 2048 2636 2048 2480 c 0,42,43
 2048 2272 2048 2272 1808 2168 c 0,44,45
 1636 2096 1636 2096 1392 2096 c 0,46,47
 1292 2096 1292 2096 1100 2152 c 0,48,49
 904 2208 904 2208 808 2208 c 0,50,51
 648 2208 648 2208 556 2102 c 0,52,53
 464 1992 464 1992 464 1832 c 0,54,55
 464 1568 464 1568 664 1472 c 0,56,57
 780 1412 780 1412 1052 1400 c 0,58,59
 1296 1388 1296 1388 1336 1340 c 1,60,61
 1336 1344 1336 1344 1328 1280 c 1,62,63
 1264 1192 1264 1192 1076 1188 c 0,64,65
 1028 1188 1028 1188 934 1196 c 128,-1,66
 840 1204 840 1204 792 1204 c 0,67,68
 588 1204 588 1204 466 1070 c 128,-1,69
 344 936 344 936 344 728 c 0,70,71
 344 436 344 436 488 304 c 0,72,73
 624 176 624 176 920 176 c 0,74,75
 1060 176 1060 176 1342 208 c 128,-1,76
 1624 240 1624 240 1760 240 c 0,77,78
 2112 240 2112 240 2116 -16 c 0,79,80
 2116 -180 2116 -180 1948 -268 c 1,81,82
 1768 -336 1768 -336 1592 -404 c 0,83,84
 1360 -496 1360 -496 1264 -664 c 1,85,-1
 1104 -672 l 1,0,-1
EndSplineSet
Validated: 5
EndChar

StartChar: omicron
Encoding: 959 959 133
Width: 1892
Flags: W
LayerCount: 2
Fore
SplineSet
920 -16 m 0,0,1
 508 -16 508 -16 268 260 c 0,2,3
 40 524 40 524 40 940 c 0,4,5
 40 1340 40 1340 304 1584 c 0,6,7
 560 1820 560 1820 964 1820 c 0,8,9
 1364 1820 1364 1820 1612 1560 c 0,10,11
 1852 1304 1852 1304 1852 904 c 0,12,13
 1852 480 1852 480 1598 232 c 128,-1,14
 1344 -16 1344 -16 920 -16 c 0,0,1
948 96 m 128,-1,16
 1200 96 1200 96 1392 360 c 0,17,18
 1568 608 1568 608 1568 872 c 0,19,20
 1568 1144 1568 1144 1396 1400 c 0,21,22
 1204 1692 1204 1692 950 1694 c 128,-1,23
 696 1696 696 1696 504 1436 c 0,24,25
 328 1200 328 1200 328 936 c 0,26,27
 328 668 328 668 504 396 c 0,28,15
 696 96 696 96 948 96 c 128,-1,16
EndSplineSet
Validated: 33
EndChar

StartChar: pi
Encoding: 960 960 134
Width: 1996
Flags: W
LayerCount: 2
Fore
SplineSet
1620 1452 m 1,0,1
 1620 1456 1620 1456 1816 128 c 2,2,3
 1824 80 1824 80 1824 56 c 2,4,-1
 1824 44 l 1,5,6
 1792 16 1792 16 1724 -16 c 1,7,-1
 1620 -16 l 2,8,9
 1584 -16 1584 -16 1576 40 c 0,10,11
 1576 80 1576 80 1568 120 c 2,12,-1
 1400 1440 l 1,13,14
 1168 1488 1168 1488 684 1552 c 1,15,16
 628 608 628 608 580 64 c 0,17,18
 584 32 584 32 552 -8 c 1,19,-1
 400 -16 l 2,20,21
 352 -16 352 -16 352 48 c 1,22,23
 352 32 352 32 368 224 c 0,24,25
 384 456 384 456 464 1544 c 1,26,27
 408 1544 408 1544 288 1528 c 1,28,29
 160 1456 160 1456 64 1264 c 1,30,31
 40 1368 40 1368 40 1488 c 0,32,33
 40 1624 40 1624 184 1720 c 0,34,35
 312 1804 312 1804 456 1804 c 2,36,-1
 648 1804 l 2,37,38
 800 1800 800 1800 1088 1752 c 0,39,40
 1416 1696 1416 1696 1544 1688 c 1,41,-1
 1540 1688 l 1,42,43
 1692 1696 1692 1696 1760 1712 c 0,44,45
 1848 1736 1848 1736 1952 1816 c 1,46,-1
 1960 1816 l 1,47,48
 1928 1600 1928 1600 1880 1552 c 0,49,50
 1828 1488 1828 1488 1620 1452 c 1,0,1
EndSplineSet
Validated: 37
EndChar

StartChar: rho
Encoding: 961 961 135
Width: 1972
Flags: W
LayerCount: 2
Fore
SplineSet
1936 864 m 0,0,1
 1936 -16 1936 -16 1096 -20 c 0,2,3
 856 -20 856 -20 728 28 c 0,4,5
 548 96 548 96 460 288 c 1,6,7
 448 224 448 224 448 136 c 0,8,9
 448 -312 448 -312 480 -664 c 1,10,11
 600 -704 600 -704 600 -760 c 0,12,13
 600 -872 600 -872 432 -1008 c 128,-1,14
 264 -1144 264 -1144 144 -1144 c 0,15,16
 64 -1144 64 -1144 40 -1072 c 1,17,18
 176 -808 176 -808 216 -612 c 0,19,20
 248 -452 248 -452 248 -120 c 0,21,22
 248 80 248 80 232 484 c 128,-1,23
 216 888 216 888 216 1092 c 0,24,25
 216 1392 216 1392 472 1632 c 0,26,27
 720 1864 720 1864 1024 1864 c 0,28,29
 1936 1864 1936 1864 1936 864 c 0,0,1
1656 888 m 0,30,31
 1656 1204 1656 1204 1528 1424 c 0,32,33
 1376 1696 1376 1696 1088 1696 c 0,34,35
 808 1696 808 1696 632 1444 c 0,36,37
 472 1216 472 1216 472 928 c 0,38,39
 472 600 472 600 620 384 c 0,40,41
 788 136 788 136 1100 136 c 0,42,43
 1388 136 1388 136 1536 376 c 0,44,45
 1656 576 1656 576 1656 888 c 0,30,31
EndSplineSet
Validated: 1
EndChar

StartChar: sigma1
Encoding: 962 962 136
Width: 1644
Flags: W
LayerCount: 2
Fore
SplineSet
1312 -296 m 1,0,1
 1344 -256 1344 -256 1344 -192 c 0,2,3
 1344 24 1344 24 1212 24 c 0,4,5
 1172 24 1172 24 1090 6 c 128,-1,6
 1008 -12 1008 -12 964 -12 c 0,7,8
 564 -8 564 -8 324 152 c 0,9,10
 40 344 40 344 40 720 c 0,11,12
 40 1112 40 1112 266 1404 c 128,-1,13
 492 1696 492 1696 872 1804 c 0,14,15
 908 1816 908 1816 940 1816 c 0,16,17
 1132 1816 1132 1816 1292 1656 c 0,18,19
 1476 1472 1476 1472 1604 1440 c 1,20,21
 1540 1292 1540 1292 1332 1292 c 0,22,23
 1208 1288 1208 1288 1140 1352 c 0,24,25
 1100 1392 1100 1392 1058 1484 c 128,-1,26
 1016 1576 1016 1576 984 1604 c 1,27,-1
 944 1612 l 1,28,29
 376 1496 376 1496 376 768 c 0,30,31
 376 488 376 488 528 320 c 0,32,33
 688 140 688 140 960 140 c 0,34,35
 1020 140 1020 140 1138 158 c 128,-1,36
 1256 176 1256 176 1320 176 c 0,37,38
 1440 176 1440 176 1504 40 c 0,39,40
 1552 -64 1552 -64 1552 -200 c 0,41,42
 1552 -360 1552 -360 1406 -488 c 128,-1,43
 1260 -616 1260 -616 1100 -616 c 0,44,45
 1008 -616 1008 -616 952 -560 c 1,46,-1
 928 -464 l 1,47,48
 936 -400 936 -400 960 -384 c 0,49,50
 968 -384 968 -384 1032 -360 c 1,51,52
 1112 -360 1112 -360 1312 -296 c 1,0,1
EndSplineSet
Validated: 33
EndChar

StartChar: sigma
Encoding: 963 963 137
Width: 2104
Flags: W
LayerCount: 2
Fore
SplineSet
336 948 m 0,0,1
 336 652 336 652 440 412 c 0,2,3
 576 104 576 104 836 104 c 0,4,5
 1060 104 1060 104 1204 384 c 0,6,7
 1328 616 1328 616 1328 864 c 0,8,9
 1328 1136 1328 1136 1200 1384 c 0,10,11
 1048 1688 1048 1688 808 1692 c 0,12,13
 608 1688 608 1688 464 1408 c 0,14,15
 336 1168 336 1168 336 948 c 0,0,1
1808 1548 m 0,16,17
 1548 1544 1548 1544 1312 1592 c 1,18,19
 1608 1256 1608 1256 1608 924 c 0,20,21
 1608 516 1608 516 1416 264 c 0,22,23
 1200 -16 1200 -16 808 -16 c 0,24,25
 448 -16 448 -16 272 224 c 0,26,27
 40 528 40 528 40 872 c 0,28,29
 40 1232 40 1232 256 1516 c 0,30,31
 492 1832 492 1832 840 1832 c 0,32,33
 856 1832 856 1832 1008 1808 c 0,34,35
 1056 1800 1056 1800 1360 1804 c 0,36,37
 1744 1804 1744 1804 2064 1784 c 1,38,39
 2036 1624 2036 1624 1998 1586 c 128,-1,40
 1960 1548 1960 1548 1808 1548 c 0,16,17
EndSplineSet
Validated: 33
EndChar

StartChar: tau
Encoding: 964 964 138
Width: 2008
Flags: W
LayerCount: 2
Fore
SplineSet
204 1824 m 2,0,-1
 1812 1828 l 2,1,2
 1884 1824 1884 1824 1928 1760 c 0,3,4
 1968 1704 1968 1704 1968 1628 c 128,-1,5
 1968 1552 1968 1552 1928 1496 c 0,6,7
 1884 1432 1884 1432 1812 1428 c 0,8,9
 1712 1432 1712 1432 1680 1560 c 1,10,11
 1644 1608 1644 1608 1608 1616 c 0,12,13
 1564 1632 1564 1632 1272 1632 c 0,14,15
 1168 1632 1168 1632 1144 1568 c 0,16,17
 1136 1544 1136 1544 1136 1408 c 2,18,-1
 1136 104 l 2,19,20
 1136 64 1136 64 1100 24 c 128,-1,21
 1064 -16 1064 -16 1028 -16 c 0,22,23
 896 -16 896 -16 888 96 c 0,24,25
 888 112 888 112 884 504 c 2,26,-1
 884 1560 l 2,27,28
 880 1576 880 1576 872 1608 c 1,29,30
 844 1616 844 1616 804 1636 c 1,31,-1
 792 1636 l 2,32,33
 552 1636 552 1636 416 1616 c 0,34,35
 376 1608 376 1608 340 1508 c 128,-1,36
 304 1408 304 1408 200 1408 c 0,37,38
 124 1408 124 1408 80 1476 c 0,39,40
 40 1536 40 1536 40 1616 c 0,41,42
 40 1820 40 1820 200 1824 c 0,43,44
 208 1828 208 1828 204 1824 c 2,0,-1
EndSplineSet
Validated: 1
EndChar

StartChar: upsilon
Encoding: 965 965 139
Width: 1852
Flags: W
LayerCount: 2
Fore
SplineSet
832 -16 m 0,0,1
 512 -16 512 -16 324 284 c 0,2,3
 168 536 168 536 168 880 c 1,4,-1
 216 1560 l 1,5,6
 192 1592 192 1592 144 1596 c 0,7,8
 128 1596 128 1596 92 1592 c 0,9,10
 52 1584 52 1584 40 1584 c 1,11,12
 64 1632 64 1632 168 1708 c 128,-1,13
 272 1784 272 1784 320 1784 c 0,14,15
 472 1784 472 1784 472 1472 c 0,16,17
 472 1360 472 1360 452 1134 c 0,18,19
 432 904 432 904 432 792 c 0,20,21
 432 128 432 128 936 128 c 0,22,23
 1480 128 1480 128 1480 976 c 0,24,25
 1480 1264 1480 1264 1344 1588 c 0,26,27
 1320 1640 1320 1640 1232 1640 c 0,28,29
 1192 1640 1192 1640 1136 1632 c 1,30,31
 1288 1832 1288 1832 1496 1832 c 0,32,33
 1632 1832 1632 1832 1732 1468 c 0,34,35
 1812 1180 1812 1180 1812 972 c 0,36,37
 1812 556 1812 556 1530 270 c 128,-1,38
 1248 -16 1248 -16 832 -16 c 0,0,1
EndSplineSet
Validated: 1
EndChar

StartChar: phi
Encoding: 966 966 140
Width: 1824
Flags: W
LayerCount: 2
Fore
SplineSet
788 1808 m 1,0,-1
 776 2440 l 2,1,2
 776 2496 776 2496 912 2496 c 0,3,4
 1016 2496 1016 2496 1016 2416 c 2,5,-1
 1032 1808 l 1,6,7
 1376 1752 1376 1752 1580 1504 c 128,-1,8
 1784 1256 1784 1256 1784 904 c 0,9,10
 1784 560 1784 560 1584 304 c 0,11,12
 1376 40 1376 40 1036 0 c 1,13,14
 1032 -16 1032 -16 1032 -624 c 0,15,16
 1032 -720 1032 -720 928 -720 c 0,17,18
 792 -720 792 -720 792 -640 c 2,19,-1
 792 -16 l 1,20,21
 40 296 40 296 40 1040 c 0,22,23
 40 1312 40 1312 288 1536 c 0,24,25
 504 1740 504 1740 788 1808 c 1,0,-1
1032 132 m 1,26,27
 1256 244 1256 244 1380 450 c 128,-1,28
 1504 656 1504 656 1504 904 c 0,29,30
 1504 1136 1504 1136 1376 1364 c 0,31,32
 1232 1628 1232 1628 1032 1668 c 1,33,34
 1040 1248 1040 1248 1040 952 c 2,35,-1
 1040 796 l 2,36,37
 1040 472 1040 472 1032 132 c 1,26,27
328 904 m 0,38,39
 328 672 328 672 456 444 c 0,40,41
 600 192 600 192 800 128 c 1,42,43
 780 520 780 520 792 1668 c 1,44,45
 576 1564 576 1564 452 1358 c 128,-1,46
 328 1152 328 1152 328 904 c 0,38,39
EndSplineSet
Validated: 33
EndChar

StartChar: chi
Encoding: 967 967 141
Width: 2136
Flags: W
LayerCount: 2
Fore
SplineSet
1980 1832 m 1,0,1
 1984 1832 1984 1832 2048 1824 c 1,2,3
 2080 1800 2080 1800 2080 1756 c 0,4,5
 2080 1676 2080 1676 1360 360 c 1,6,-1
 2096 -1032 l 1,7,-1
 2096 -1072 l 2,8,9
 2096 -1096 2096 -1096 2092 -1112 c 1,10,-1
 2040 -1144 l 1,11,-1
 2032 -1152 l 1,12,-1
 1888 -1136 l 1,13,14
 1744 -992 1744 -992 1512 -540 c 0,15,16
 1364 -244 1364 -244 1216 56 c 1,17,18
 960 -384 960 -384 720 -848 c 0,19,20
 692 -908 692 -908 628 -1024 c 0,21,22
 544 -1148 544 -1148 496 -1148 c 2,23,24
 496 -1152 496 -1152 400 -1136 c 1,25,-1
 396 -1064 l 1,26,-1
 1104 276 l 1,27,28
 896 664 896 664 476 1432 c 0,29,30
 404 1560 404 1560 324 1560 c 0,31,32
 188 1560 188 1560 132 1368 c 1,33,34
 40 1400 40 1400 40 1464 c 0,35,36
 40 1616 40 1616 176 1728 c 0,37,38
 304 1832 304 1832 456 1832 c 0,39,40
 560 1832 560 1832 640 1688 c 0,41,42
 848 1304 848 1304 1260 552 c 1,43,-1
 1924 1800 l 1,44,-1
 1980 1832 l 1,0,1
EndSplineSet
Validated: 1
EndChar

StartChar: psi
Encoding: 968 968 142
Width: 1760
Flags: W
LayerCount: 2
Fore
SplineSet
1720 992 m 0,0,1
 1708 616 1708 616 1476 320 c 0,2,3
 1252 32 1252 32 952 -16 c 1,4,-1
 952 -592 l 1,5,6
 936 -648 936 -648 888 -648 c 2,7,-1
 784 -648 l 1,8,9
 752 -636 752 -636 712 -596 c 1,10,-1
 712 -16 l 1,11,12
 392 104 392 104 264 320 c 0,13,14
 144 512 144 512 144 872 c 0,15,16
 144 952 144 952 150 1112 c 128,-1,17
 156 1272 156 1272 156 1352 c 0,18,19
 156 1544 156 1544 140 1608 c 1,20,21
 76 1632 76 1632 40 1624 c 1,22,23
 152 1792 152 1792 256 1788 c 1,24,-1
 312 1760 l 1,25,26
 408 1648 408 1648 408 1392 c 0,27,28
 408 1292 408 1292 396 1092 c 128,-1,29
 384 892 384 892 384 792 c 0,30,31
 384 272 384 272 712 136 c 1,32,-1
 712 2152 l 2,33,34
 712 2176 712 2176 768 2216 c 0,35,36
 800 2232 800 2232 864 2224 c 1,37,38
 952 2224 952 2224 948 2160 c 2,39,40
 952 2160 952 2160 952 116 c 1,41,42
 996 112 996 112 1118 124 c 128,-1,43
 1240 136 1240 136 1372 488 c 0,44,45
 1468 748 1468 748 1468 1048 c 0,46,47
 1472 1200 1472 1200 1408 1412 c 0,48,49
 1328 1680 1328 1680 1224 1672 c 2,50,-1
 1176 1668 l 1,51,52
 1352 1832 1352 1832 1456 1832 c 0,53,54
 1568 1832 1568 1832 1580 1768 c 1,55,56
 1632 1680 1632 1680 1680 1392 c 0,57,58
 1720 1128 1720 1128 1720 992 c 0,0,1
EndSplineSet
Validated: 33
EndChar

StartChar: omega
Encoding: 969 969 143
Width: 2828
Flags: W
LayerCount: 2
Fore
SplineSet
40 608 m 0,0,1
 40 920 40 920 244 1288 c 0,2,3
 464 1680 464 1680 728 1796 c 1,4,-1
 780 1784 l 1,5,6
 776 1784 776 1784 808 1744 c 1,7,-1
 816 1704 l 1,8,9
 568 1464 568 1464 464 1256 c 0,10,11
 344 1016 344 1016 344 700 c 0,12,13
 344 468 344 468 482 326 c 128,-1,14
 620 184 620 184 852 184 c 0,15,16
 1168 184 1168 184 1272 492 c 0,17,18
 1336 676 1336 676 1336 1060 c 0,19,20
 1336 1208 1336 1208 1464 1208 c 0,21,22
 1600 1208 1600 1208 1596 892 c 2,23,24
 1596 888 1596 888 1596 792 c 2,25,26
 1592 512 1592 512 1656 388 c 0,27,28
 1752 192 1752 192 2024 192 c 0,29,30
 2268 192 2268 192 2408 384 c 0,31,32
 2536 552 2536 552 2536 808 c 0,33,34
 2536 1184 2536 1184 2260 1544 c 0,35,36
 2148 1688 2148 1688 2076 1720 c 1,37,38
 2072 1740 2072 1740 2072 1778 c 128,-1,39
 2072 1816 2072 1816 2136 1816 c 0,40,41
 2232 1816 2232 1816 2400 1632 c 0,42,43
 2792 1232 2792 1232 2792 656 c 0,44,45
 2792 320 2792 320 2564 144 c 0,46,47
 2360 -16 2360 -16 2008 -16 c 0,48,49
 1648 -16 1648 -16 1436 264 c 1,50,51
 1300 100 1300 100 1196 48 c 0,52,53
 1080 -16 1080 -16 880 -16 c 0,54,55
 40 -16 40 -16 40 608 c 0,0,1
EndSplineSet
Validated: 33
EndChar

StartChar: uni0800
Encoding: 2048 2048 144
Width: 3472
VWidth: 2768
Flags: W
HStem: -60 200<268 656> 1140 536<2812 3120> 1740 392<2124 2568>
LayerCount: 2
Fore
SplineSet
3256 1344 m 0,0,1
 3256 1312 3256 1312 3248 1280 c 0,2,3
 3240 1248 3240 1248 3212 1216 c 0,4,5
 3188 1184 3188 1184 3128 1160 c 0,6,7
 3072 1140 3072 1140 2988 1140 c 2,8,-1
 2796 1140 l 1,9,-1
 2768 1140 l 1,10,-1
 2312 180 l 1,11,12
 2296 180 2296 180 2260 176 c 0,13,14
 2224 176 2224 176 2208 176 c 0,15,16
 2080 176 2080 176 2080 260 c 0,17,18
 2080 276 2080 276 2080 288 c 2,19,-1
 2184 504 l 1,20,21
 1880 832 1880 832 1808 900 c 0,22,23
 1512 1188 1512 1188 1240 1284 c 0,24,25
 1128 1324 1128 1324 1008 1336 c 1,26,27
 904 1316 904 1316 816 1256 c 0,28,29
 728 1196 728 1196 676 1120 c 0,30,31
 620 1040 620 1040 560 920 c 0,32,33
 504 800 504 800 464 696 c 0,34,35
 424 592 424 592 368 436 c 0,36,37
 312 276 312 276 264 168 c 1,38,39
 308 140 308 140 400 140 c 0,40,41
 584 140 584 140 656 104 c 0,42,43
 712 64 712 64 716 36 c 0,44,45
 712 -60 712 -60 232 -60 c 0,46,47
 16 -60 16 -60 20 88 c 0,48,49
 20 104 20 104 28 136 c 0,50,51
 112 448 112 448 224 712 c 0,52,53
 336 976 336 976 488 1304 c 0,54,55
 640 1628 640 1628 736 1868 c 1,56,57
 820 1936 820 1936 912 1936 c 0,58,59
 1000 1936 1000 1936 1064 1880 c 1,60,61
 1200 1792 1200 1792 1356 1624 c 1,62,63
 1428 1560 1428 1560 1488 1512 c 0,64,65
 1548 1464 1548 1464 1572 1452 c 0,66,67
 1596 1436 1596 1436 1680 1384 c 1,68,69
 1776 1496 1776 1496 1836 1628 c 0,70,71
 1900 1760 1900 1760 1960 1868 c 0,72,73
 2020 1976 2020 1976 2124 2072 c 1,74,75
 2208 2128 2208 2128 2352 2128 c 2,76,-1
 2416 2128 l 2,77,78
 2504 2128 2504 2128 2548 2080 c 0,79,80
 2600 2028 2600 2028 2600 1944 c 0,81,82
 2600 1856 2600 1856 2548 1800 c 0,83,84
 2496 1740 2496 1740 2416 1740 c 0,85,86
 2384 1740 2384 1740 2312 1752 c 0,87,88
 2240 1768 2240 1768 2200 1768 c 1,89,90
 2132 1696 2132 1696 2100 1592 c 0,91,92
 2068 1492 2068 1492 2024 1396 c 0,93,94
 1980 1300 1980 1300 1884 1216 c 1,95,96
 2012 1128 2012 1128 2092 1044 c 0,97,98
 2172 960 2172 960 2240 860 c 0,99,100
 2312 760 2312 760 2328 736 c 1,101,102
 2400 848 2400 848 2460 1000 c 0,103,104
 2524 1152 2524 1152 2568 1248 c 0,105,106
 2608 1348 2608 1348 2696 1464 c 0,107,108
 2784 1576 2784 1576 2904 1656 c 0,109,110
 2932 1680 2932 1680 2968 1680 c 0,111,112
 3064 1680 3064 1680 3160 1548 c 0,113,114
 3256 1420 3256 1420 3256 1344 c 0,0,1
EndSplineSet
Validated: 33
EndChar

StartChar: uni0801
Encoding: 2049 2049 145
Width: 2948
VWidth: 2768
Flags: W
HStem: -40 272<136 2392> 656 320<1264 2264> 1760 364<1272 1868>
LayerCount: 2
Fore
SplineSet
1068 1288 m 0,0,1
 1072 1224 1072 1224 1136 1160 c 0,2,3
 1200 1092 1200 1092 1260 1068 c 0,4,5
 1564 976 1564 976 1780 976 c 0,6,7
 1956 976 1956 976 2224 1016 c 1,8,9
 2128 1408 2128 1408 1856 1720 c 1,10,11
 1784 1760 1784 1760 1656 1760 c 0,12,13
 1504 1760 1504 1760 1376 1720 c 0,14,15
 1308 1688 1308 1688 1264 1664 c 128,-1,16
 1220 1640 1220 1640 1168 1592 c 128,-1,17
 1116 1544 1116 1544 1092 1468 c 128,-1,18
 1068 1392 1068 1392 1068 1288 c 0,0,1
256 924 m 17,19,20
 276 944 276 944 348 1004 c 0,21,22
 416 1064 416 1064 444 1112 c 128,-1,23
 472 1160 472 1160 488 1248 c 0,24,25
 512 1360 512 1360 720 1600 c 128,-1,26
 928 1840 928 1840 1144 2008 c 1,27,28
 1320 2120 1320 2120 1552 2124 c 0,29,30
 1580 2124 1580 2124 1612 2120 c 0,31,32
 1644 2120 1644 2120 1664 2112 c 0,33,34
 1688 2108 1688 2108 1724 2092 c 0,35,36
 1760 2080 1760 2080 1776 2072 c 128,-1,37
 1792 2064 1792 2064 1840 2052 c 0,38,39
 1884 2036 1884 2036 1896 2028 c 0,40,41
 2096 1916 2096 1916 2176 1820 c 128,-1,42
 2256 1724 2256 1724 2360 1472 c 0,43,44
 2416 1328 2416 1328 2464 1200 c 128,-1,45
 2512 1072 2512 1072 2544 944 c 128,-1,46
 2576 816 2576 816 2596 740 c 0,47,48
 2616 660 2616 660 2640 528 c 0,49,50
 2664 392 2664 392 2668 348 c 0,51,52
 2676 304 2676 304 2696 148 c 128,-1,53
 2716 -8 2716 -8 2720 -40 c 1,54,-1
 68 -40 l 1,55,56
 44 0 44 0 20 68 c 0,57,58
 0 136 0 136 0 168 c 0,59,60
 0 256 0 256 48 352 c 1,61,62
 56 352 56 352 108 332 c 0,63,64
 160 316 160 316 180 308 c 0,65,66
 200 304 200 304 252 288 c 128,-1,67
 304 272 304 272 336 264 c 128,-1,68
 368 256 368 256 424 248 c 0,69,70
 472 240 472 240 520 236 c 128,-1,71
 568 232 568 232 624 232 c 2,72,-1
 2392 232 l 1,73,-1
 2316 664 l 1,74,75
 2220 664 2220 664 2072 660 c 0,76,77
 1920 656 1920 656 1856 656 c 0,78,79
 1620 656 1620 656 1404 708 c 2,80,81
 1408 704 1408 704 896 832 c 1,82,83
 584 832 584 832 496 840 c 0,84,85
 408 840 408 840 272 856 c 1,86,-1
 256 924 l 17,19,20
EndSplineSet
Validated: 33
EndChar

StartChar: uni0802
Encoding: 2050 2050 146
Width: 3432
VWidth: 2768
Flags: W
HStem: -40 40<2804 2888> 32 108<2136 2380> 1384 208<388 640> 1800 428<1160 1724>
VStem: 2364 220<888 1340> 2364 836<1060 1716>
LayerCount: 2
Fore
SplineSet
344 1528 m 0,0,1
 344 1592 344 1592 408 1592 c 0,2,3
 424 1592 424 1592 464 1584 c 0,4,5
 504 1576 504 1576 520 1576 c 0,6,7
 544 1576 544 1576 560 1592 c 0,8,9
 640 1664 640 1664 716 1808 c 0,10,11
 784 1952 784 1952 848 2016 c 0,12,13
 860 2032 860 2032 892 2064 c 0,14,15
 928 2096 928 2096 936 2112 c 0,16,17
 948 2124 948 2124 972 2148 c 0,18,19
 996 2172 996 2172 1016 2184 c 0,20,21
 1032 2192 1032 2192 1060 2204 c 0,22,23
 1088 2216 1088 2216 1112 2224 c 0,24,25
 1140 2228 1140 2228 1176 2228 c 0,26,27
 1256 2228 1256 2228 1376 2168 c 0,28,29
 1496 2112 1496 2112 1536 2096 c 0,30,31
 1768 2032 1768 2032 1984 1992 c 0,32,33
 2200 1960 2200 1960 2468 1920 c 0,34,35
 2736 1884 2736 1884 2932 1848 c 0,36,37
 2992 1840 2992 1840 3016 1832 c 0,38,39
 3040 1824 3040 1824 3084 1808 c 0,40,41
 3128 1792 3128 1792 3144 1776 c 0,42,43
 3164 1760 3164 1760 3184 1720 c 0,44,45
 3200 1684 3200 1684 3200 1632 c 0,46,47
 3200 1520 3200 1520 3080 1428 c 0,48,49
 2960 1336 2960 1336 2800 1336 c 0,50,51
 2768 1336 2768 1336 2696 1340 c 0,52,53
 2624 1344 2624 1344 2584 1344 c 1,54,55
 2608 1224 2608 1224 2648 984 c 0,56,57
 2684 748 2684 748 2708 608 c 0,58,59
 2732 468 2732 468 2792 316 c 0,60,61
 2848 164 2848 164 2932 96 c 1,62,-1
 2872 -40 l 1,63,64
 2716 32 2716 32 2456 32 c 2,65,-1
 2236 32 l 1,66,67
 2136 56 2136 56 2136 80 c 0,68,69
 2136 104 2136 104 2236 136 c 1,70,-1
 2596 208 l 1,71,72
 2556 260 2556 260 2524 304 c 0,73,74
 2492 348 2492 348 2472 396 c 0,75,76
 2448 444 2448 444 2436 476 c 0,77,78
 2420 508 2420 508 2408 564 c 0,79,80
 2400 620 2400 620 2392 652 c 0,81,82
 2384 684 2384 684 2372 760 c 0,83,84
 2360 840 2360 840 2352 880 c 1,85,86
 2352 952 2352 952 2356 1068 c 0,87,88
 2364 1184 2364 1184 2364 1232 c 0,89,90
 2364 1400 2364 1400 2308 1548 c 0,91,92
 2276 1636 2276 1636 2208 1680 c 0,93,94
 2136 1724 2136 1724 2024 1752 c 0,95,96
 1840 1800 1840 1800 1664 1800 c 0,97,98
 1476 1800 1476 1800 1356 1776 c 0,99,100
 1236 1752 1236 1752 1188 1728 c 0,101,102
 1144 1704 1144 1704 1080 1648 c 0,103,104
 1048 1620 1048 1620 1012 1552 c 0,105,106
 980 1480 980 1480 948 1432 c 0,107,108
 912 1384 912 1384 856 1384 c 0,109,110
 712 1384 712 1384 608 1408 c 0,111,112
 504 1424 504 1424 368 1480 c 0,113,114
 344 1488 344 1488 344 1528 c 0,0,1
EndSplineSet
Validated: 1
EndChar

StartChar: uni0803
Encoding: 2051 2051 147
Width: 3260
VWidth: 2768
Flags: W
HStem: 888 236<1228 2076> 1640 432<2560 2992> 1864 192<2084 2456> 1984 216<864 1664>
LayerCount: 2
Fore
SplineSet
2076 1136 m 1,0,1
 2068 1168 2068 1168 2048 1256 c 128,-1,2
 2028 1344 2028 1344 2016 1388 c 0,3,4
 2000 1432 2000 1432 1976 1508 c 0,5,6
 1952 1580 1952 1580 1912 1652 c 0,7,8
 1872 1720 1872 1720 1812 1792 c 1,9,10
 1732 1872 1732 1872 1596 1928 c 128,-1,11
 1460 1984 1460 1984 1340 1984 c 1,12,13
 1012 1936 1012 1936 812 1632 c 1,14,15
 748 1520 748 1520 728 1440 c 128,-1,16
 708 1360 708 1360 708 1256 c 1,17,18
 912 1256 912 1256 1380 1192 c 128,-1,19
 1848 1128 1848 1128 1968 1124 c 0,20,21
 2048 1124 2048 1124 2076 1136 c 1,0,1
2660 2068 m 0,22,23
 2840 2068 2840 2068 2960 2004 c 128,-1,24
 3080 1940 3080 1940 3076 1832 c 0,25,26
 3076 1800 3076 1800 3060 1768 c 0,27,28
 3036 1724 3036 1724 2996 1700 c 128,-1,29
 2956 1676 2956 1676 2928 1668 c 128,-1,30
 2900 1660 2900 1660 2828 1652 c 0,31,32
 2756 1648 2756 1648 2732 1640 c 2,33,34
 2728 1640 2728 1640 2704 1640 c 2,35,36
 2672 1640 2672 1640 2624 1656 c 0,37,38
 2576 1676 2576 1676 2556 1680 c 1,39,40
 2428 1816 2428 1816 2356 1840 c 128,-1,41
 2284 1864 2284 1864 2084 1864 c 1,42,43
 2152 1716 2152 1716 2228 1484 c 128,-1,44
 2304 1252 2304 1252 2368 1048 c 0,45,46
 2432 848 2432 848 2500 656 c 0,47,48
 2572 464 2572 464 2660 336 c 0,49,50
 2748 212 2748 212 2844 184 c 1,51,-1
 2780 64 l 1,52,-1
 2196 -88 l 1,53,-1
 2220 56 l 1,54,-1
 2548 176 l 1,55,56
 2448 320 2448 320 2388 412 c 128,-1,57
 2328 504 2328 504 2248 640 c 0,58,59
 2172 772 2172 772 2124 888 c 1,60,61
 1220 888 1220 888 404 1104 c 1,62,63
 296 1144 296 1144 296 1240 c 2,64,-1
 296 1272 l 1,65,66
 344 1376 344 1376 400 1528 c 128,-1,67
 456 1680 456 1680 508 1800 c 0,68,69
 560 1916 560 1916 644 2040 c 0,70,71
 752 2200 752 2200 924 2200 c 0,72,73
 1256 2200 1256 2200 1704 2128 c 128,-1,74
 2152 2056 2152 2056 2364 2056 c 0,75,76
 2424 2056 2424 2056 2520 2064 c 0,77,78
 2620 2072 2620 2072 2660 2068 c 0,22,23
EndSplineSet
Validated: 33
EndChar

StartChar: uni0804
Encoding: 2052 2052 148
Width: 3144
VWidth: 2768
Flags: W
HStem: -144 144<2120 2384> 384 288<1520 2192> 860 316<840 1312> 1400 656<2336 2756> 1456 592<2336 2552> 1864 188<1316 1820>
VStem: 2016 888<1544 1832> 2392 180<60 308>
LayerCount: 2
Fore
SplineSet
2032 1072 m 24,0,1
 1856 1072 1856 1072 1688 1040 c 0,2,3
 1524 1008 1524 1008 1332 952 c 0,4,5
 1136 904 1136 904 1000 880 c 0,6,7
 920 864 920 864 864 860 c 0,8,9
 824 860 824 860 800 880 c 0,10,11
 776 900 776 900 776 936 c 0,12,13
 776 1088 776 1088 1000 1176 c 0,14,15
 1144 1232 1144 1232 1380 1244 c 0,16,17
 1624 1260 1624 1260 1760 1312 c 0,18,19
 1840 1344 1840 1344 1884 1368 c 0,20,21
 1932 1392 1932 1392 1972 1440 c 0,22,23
 2016 1488 2016 1488 2016 1552 c 0,24,25
 2016 1640 2016 1640 1952 1696 c 0,26,27
 1888 1752 1888 1752 1776 1792 c 0,28,29
 1592 1864 1592 1864 1472 1864 c 0,30,31
 1348 1864 1348 1864 1236 1808 c 0,32,33
 1124 1752 1124 1752 1040 1672 c 0,34,35
 960 1592 960 1592 880 1520 c 0,36,37
 800 1440 800 1440 700 1384 c 0,38,39
 608 1328 608 1328 504 1328 c 0,40,41
 436 1328 436 1328 388 1352 c 0,42,43
 340 1376 340 1376 340 1424 c 0,44,45
 344 1436 344 1436 344 1440 c 0,46,47
 360 1520 360 1520 384 1584 c 0,48,49
 412 1648 412 1648 456 1704 c 0,50,51
 504 1760 504 1760 536 1800 c 0,52,53
 568 1840 568 1840 640 1908 c 0,54,55
 712 1976 712 1976 752 2016 c 0,56,57
 760 2024 760 2024 792 2060 c 0,58,59
 824 2096 824 2096 836 2108 c 0,60,61
 844 2120 844 2120 872 2144 c 0,62,63
 900 2168 900 2168 920 2176 c 0,64,65
 936 2184 936 2184 964 2196 c 0,66,67
 992 2216 992 2216 1024 2216 c 0,68,69
 1056 2216 1056 2216 1088 2216 c 0,70,71
 1144 2216 1144 2216 1188 2200 c 0,72,73
 1232 2184 1232 2184 1272 2160 c 0,74,75
 1312 2136 1312 2136 1376 2108 c 0,76,77
 1440 2084 1440 2084 1568 2068 c 0,78,79
 1700 2048 1700 2048 1892 2048 c 0,80,81
 1964 2048 1964 2048 2092 2052 c 0,82,83
 2224 2056 2224 2056 2288 2056 c 0,84,85
 2488 2056 2488 2056 2656 2032 c 1,86,87
 2784 1976 2784 1976 2840 1920 c 0,88,89
 2904 1864 2904 1864 2904 1752 c 0,90,91
 2904 1616 2904 1616 2784 1512 c 0,92,93
 2664 1400 2664 1400 2556 1400 c 0,94,95
 2504 1400 2504 1400 2432 1432 c 0,96,97
 2360 1456 2360 1456 2352 1456 c 2,98,-1
 2336 1456 l 1,99,100
 2336 1448 2336 1448 2396 1236 c 0,101,102
 2456 1020 2456 1020 2516 724 c 0,103,104
 2576 428 2576 428 2576 216 c 1,105,106
 2584 168 2584 168 2608 128 c 0,107,108
 2632 88 2632 88 2660 64 c 0,109,110
 2684 40 2684 40 2724 0 c 0,111,112
 2768 -40 2768 -40 2784 -56 c 1,113,-1
 2208 -144 l 1,114,115
 2096 -144 2096 -144 2096 -112 c 0,116,117
 2096 -96 2096 -96 2112 -80 c 0,118,119
 2128 -64 2128 -64 2152 -40 c 0,120,121
 2176 -16 2176 -16 2192 0 c 1,122,-1
 2328 0 l 1,123,124
 2360 8 2360 8 2376 52 c 0,125,126
 2392 96 2392 96 2392 144 c 0,127,128
 2392 232 2392 232 2328 308 c 0,129,130
 2264 384 2264 384 2168 384 c 0,131,132
 1944 384 1944 384 1600 312 c 0,133,134
 1256 240 1256 240 1032 240 c 0,135,136
 1000 240 1000 240 972 244 c 0,137,138
 944 248 944 248 920 256 c 0,139,140
 892 268 892 268 876 296 c 0,141,142
 856 324 856 324 848 368 c 1,143,144
 984 456 984 456 1112 512 c 0,145,146
 1240 568 1240 568 1352 600 c 0,147,148
 1464 632 1464 632 1612 648 c 0,149,150
 1760 664 1760 664 1880 668 c 0,151,152
 2000 672 2000 672 2192 672 c 1,153,154
 2192 704 2192 704 2200 760 c 0,155,156
 2208 816 2208 816 2208 840 c 0,157,158
 2208 916 2208 916 2156 996 c 0,159,160
 2112 1072 2112 1072 2032 1072 c 24,0,1
EndSplineSet
Validated: 1
EndChar

StartChar: uni0805
Encoding: 2053 2053 149
Width: 3624
VWidth: 2768
Flags: W
HStem: 616 156<1236 1556> 1384 276<1848 2268> 1572 560<1184 1496>
VStem: 2912 288<40 196>
LayerCount: 2
Fore
SplineSet
2768 -56 m 0,0,1
 2768 -32 2768 -32 2792 0 c 0,2,3
 2816 28 2816 28 2852 68 c 0,4,5
 2892 108 2892 108 2912 132 c 1,6,-1
 2912 140 l 2,7,8
 2912 152 2912 152 2904 168 c 0,9,10
 2896 184 2896 184 2896 192 c 0,11,12
 2888 200 2888 200 2872 220 c 0,13,14
 2856 240 2856 240 2848 248 c 2,15,-1
 2360 856 l 1,16,17
 2272 832 2272 832 2104 784 c 0,18,19
 1936 732 1936 732 1828 700 c 0,20,21
 1724 668 1724 668 1580 644 c 0,22,23
 1436 616 1436 616 1320 616 c 1,24,25
 1224 628 1224 628 1224 664 c 0,26,27
 1224 696 1224 696 1304 776 c 1,28,29
 1872 920 1872 920 2292 1248 c 1,30,-1
 2268 1384 l 1,31,32
 2124 1384 2124 1384 1976 1432 c 0,33,34
 1832 1480 1832 1480 1688 1528 c 0,35,36
 1544 1576 1544 1576 1404 1572 c 1,37,38
 1360 1564 1360 1564 1328 1552 c 0,39,40
 1296 1540 1296 1540 1272 1532 c 0,41,42
 1248 1524 1248 1524 1216 1504 c 0,43,44
 1184 1480 1184 1480 1168 1472 c 0,45,46
 1152 1464 1152 1464 1124 1436 c 0,47,48
 1092 1408 1092 1408 1084 1396 c 0,49,50
 1072 1384 1072 1384 1036 1352 c 0,51,52
 1000 1320 1000 1320 992 1304 c 2,53,-1
 640 880 l 1,54,55
 556 824 556 824 484 824 c 0,56,57
 424 824 424 824 384 864 c 0,58,59
 372 880 372 880 360 896 c 0,60,61
 348 912 348 912 328 928 c 0,62,63
 312 944 312 944 300 952 c 0,64,65
 292 960 292 960 264 976 c 0,66,67
 236 992 236 992 232 996 c 0,68,69
 224 1000 224 1000 192 1016 c 0,70,71
 160 1032 160 1032 152 1040 c 2,72,-1
 152 1140 l 1,73,74
 188 1156 188 1156 240 1176 c 0,75,76
 292 1192 292 1192 332 1212 c 0,77,78
 372 1232 372 1232 408 1264 c 0,79,80
 520 1372 520 1372 660 1572 c 0,81,82
 800 1776 800 1776 912 1880 c 0,83,84
 936 1904 936 1904 984 1952 c 0,85,86
 1028 2000 1028 2000 1052 2024 c 0,87,88
 1080 2048 1080 2048 1120 2076 c 0,89,90
 1160 2104 1160 2104 1200 2116 c 0,91,92
 1244 2128 1244 2128 1296 2128 c 0,93,94
 1368 2128 1368 2128 1424 2096 c 0,95,96
 1484 2064 1484 2064 1520 2020 c 0,97,98
 1556 1976 1556 1976 1612 1916 c 0,99,100
 1668 1856 1668 1856 1716 1816 c 0,101,102
 1972 1664 1972 1664 2316 1664 c 0,103,104
 2400 1664 2400 1664 2480 1680 c 1,105,106
 2508 1724 2508 1724 2536 1792 c 0,107,108
 2568 1860 2568 1860 2596 1912 c 0,109,110
 2624 1960 2624 1960 2680 2000 c 0,111,112
 2832 2112 2832 2112 2940 2108 c 0,113,114
 3044 2108 3044 2108 3140 2024 c 0,115,116
 3240 1944 3240 1944 3296 1832 c 0,117,118
 3352 1720 3352 1720 3352 1628 c 0,119,120
 3352 1516 3352 1516 3252 1448 c 0,121,122
 3152 1380 3152 1380 3004 1380 c 2,123,-1
 2712 1380 l 1,124,125
 2608 1264 2608 1264 2568 1208 c 0,126,127
 2528 1144 2528 1144 2512 1072 c 1,128,129
 2584 976 2584 976 2728 784 c 0,130,131
 2868 592 2868 592 2980 448 c 0,132,133
 3096 304 3096 304 3200 200 c 0,134,135
 3200 188 3200 188 3200 164 c 0,136,137
 3200 92 3200 92 3144 36 c 0,138,139
 3064 -32 3064 -32 3000 -60 c 0,140,141
 2936 -88 2936 -88 2824 -88 c 1,142,143
 2768 -80 2768 -80 2768 -56 c 0,0,1
EndSplineSet
Validated: 33
EndChar

StartChar: uni0806
Encoding: 2054 2054 150
Width: 4560
VWidth: 2768
Flags: W
HStem: -8 40<3264 3496> 24 280<3388 3796> 376 208<408 736> 1068 236<2844 3652> 1936 352<2992 3660>
VStem: 88 312<520 852> 3708 424<1352 1924> 3808 216<684 976>
LayerCount: 2
Fore
SplineSet
3604 1936 m 9,0,1
 2772 1936 2772 1936 2504 1752 c 0,2,3
 2496 1748 2496 1748 2492 1744 c 0,4,5
 2492 1680 2492 1680 2512 1624 c 128,-1,6
 2532 1568 2532 1568 2556 1532 c 128,-1,7
 2580 1496 2580 1496 2644 1448 c 0,8,9
 2704 1404 2704 1404 2744 1380 c 128,-1,10
 2784 1356 2784 1356 2876 1304 c 1,11,12
 2880 1304 2880 1304 3024 1304 c 2,13,14
 3308 1304 3308 1304 3668 1352 c 1,15,16
 3708 1424 3708 1424 3708 1560 c 0,17,18
 3708 1688 3708 1688 3672 1812 c 0,19,20
 3636 1932 3636 1932 3604 1936 c 9,0,1
712 584 m 0,21,22
 752 584 752 584 768 576 c 0,23,24
 788 568 788 568 792 560 c 0,25,26
 792 552 792 552 792 536 c 0,27,28
 792 536 792 536 792 528 c 128,-1,29
 792 520 792 520 792 516 c 0,30,31
 792 508 792 508 796 488 c 1,32,33
 684 448 684 448 636 428 c 128,-1,34
 588 408 588 408 504 392 c 0,35,36
 424 376 424 376 352 376 c 0,37,38
 216 376 216 376 152 432 c 128,-1,39
 88 488 88 488 88 568 c 0,40,41
 88 620 88 620 108 672 c 0,42,43
 244 1040 244 1040 480 1512 c 128,-1,44
 716 1984 716 1984 812 2208 c 1,45,46
 812 2276 812 2276 924 2364 c 0,47,48
 1036 2456 1036 2456 1132 2456 c 0,49,50
 1156 2456 1156 2456 1172 2448 c 2,51,-1
 1700 2064 l 1,52,53
 1888 1992 1888 1992 2076 1992 c 0,54,55
 2260 1992 2260 1992 2540 2064 c 0,56,57
 2608 2084 2608 2084 2704 2116 c 0,58,59
 2800 2144 2800 2144 2872 2168 c 0,60,61
 2948 2192 2948 2192 3036 2208 c 0,62,63
 3096 2216 3096 2216 3224 2240 c 0,64,65
 3352 2260 3352 2260 3408 2268 c 0,66,67
 3460 2276 3460 2276 3580 2280 c 0,68,69
 3700 2288 3700 2288 3844 2288 c 1,70,71
 3900 2272 3900 2272 3936 2236 c 0,72,73
 3972 2204 3972 2204 3996 2156 c 128,-1,74
 4020 2108 4020 2108 4032 2064 c 128,-1,75
 4044 2020 4044 2020 4060 1952 c 128,-1,76
 4076 1884 4076 1884 4092 1840 c 0,77,78
 4136 1716 4136 1716 4136 1608 c 0,79,80
 4136 1496 4136 1496 4120 1428 c 0,81,82
 4104 1364 4104 1364 4068 1296 c 128,-1,83
 4032 1228 4032 1228 4020 1192 c 1,84,85
 4020 968 4020 968 4104 696 c 128,-1,86
 4188 424 4188 424 4212 240 c 1,87,88
 4204 216 4204 216 4204 176 c 0,89,90
 4204 168 4204 168 4204 156 c 0,91,92
 4208 144 4208 144 4208 136 c 0,93,94
 4208 56 4208 56 4156 48 c 0,95,96
 3776 -8 3776 -8 3376 -8 c 0,97,98
 3272 -8 3272 -8 3032 -4 c 128,-1,99
 2792 0 2792 0 2644 0 c 0,100,101
 2624 0 2624 0 2584 12 c 128,-1,102
 2544 24 2544 24 2532 24 c 0,103,104
 2508 24 2508 24 2508 0 c 0,105,106
 2504 -32 2504 -32 2528 -52 c 0,107,108
 2552 -80 2552 -80 2576 -88 c 0,109,110
 2600 -100 2600 -100 2624 -124 c 0,111,112
 2648 -144 2648 -144 2648 -184 c 0,113,114
 2648 -216 2648 -216 2632 -244 c 128,-1,115
 2616 -272 2616 -272 2592 -272 c 2,116,-1
 2580 -272 l 1,117,118
 2416 -236 2416 -236 2320 -192 c 128,-1,119
 2224 -148 2224 -148 2140 -48 c 0,120,121
 2124 -32 2124 -32 2124 0 c 0,122,123
 2128 40 2128 40 2160 80 c 128,-1,124
 2192 120 2192 120 2236 128 c 0,125,126
 2500 184 2500 184 2736 212 c 128,-1,127
 2972 240 2972 240 3272 260 c 128,-1,128
 3572 280 3572 280 3780 304 c 1,129,130
 3808 416 3808 416 3808 512 c 0,131,132
 3808 616 3808 616 3772 776 c 1,133,134
 3756 808 3756 808 3748 868 c 128,-1,135
 3740 928 3740 928 3720 968 c 0,136,137
 3704 1008 3704 1008 3660 1024 c 0,138,139
 3560 1068 3560 1068 3448 1068 c 0,140,141
 3408 1064 3408 1064 3304 1056 c 0,142,143
 3204 1048 3204 1048 3140 1048 c 0,144,145
 3048 1048 3048 1048 2908 1000 c 128,-1,146
 2768 952 2768 952 2676 952 c 0,147,148
 2656 952 2656 952 2632 960 c 128,-1,149
 2608 968 2608 968 2592 976 c 128,-1,150
 2576 984 2576 984 2560 1000 c 0,151,152
 2544 1024 2544 1024 2536 1032 c 128,-1,153
 2528 1040 2528 1040 2504 1068 c 0,154,155
 2484 1096 2484 1096 2476 1104 c 0,156,157
 2456 1132 2456 1132 2448 1200 c 128,-1,158
 2440 1268 2440 1268 2404 1296 c 0,159,160
 2272 1392 2272 1392 2152 1464 c 128,-1,161
 2032 1536 2032 1536 1876 1616 c 128,-1,162
 1720 1696 1720 1696 1612 1760 c 1,163,164
 1496 1792 1496 1792 1400 1792 c 0,165,166
 1248 1792 1248 1792 1136 1716 c 0,167,168
 1020 1640 1020 1640 900 1488 c 0,169,170
 868 1448 868 1448 720 1256 c 128,-1,171
 572 1064 572 1064 488 928 c 0,172,173
 400 792 400 792 400 712 c 0,174,175
 400 636 400 636 452 600 c 128,-1,176
 504 564 504 564 552 564 c 0,177,178
 576 568 576 568 628 576 c 128,-1,179
 680 584 680 584 712 584 c 0,21,22
EndSplineSet
Validated: 1
EndChar

StartChar: uni0807
Encoding: 2055 2055 151
Width: 4140
VWidth: 2768
Flags: W
HStem: 432 216<1944 3148> 488 240<2512 3172> 1232 208<1920 3164> 1896 152<2692 3016> 1896 464<1972 2364>
VStem: 3172 248<732 1192>
LayerCount: 2
Fore
SplineSet
3172 732 m 9,0,1
 3172 736 3172 736 3172 1184 c 1,2,3
 2760 1232 2760 1232 2472 1232 c 0,4,5
 2032 1232 2032 1232 1800 1128 c 1,6,7
 1800 1032 1800 1032 1804 980 c 128,-1,8
 1808 928 1808 928 1844 852 c 128,-1,9
 1880 776 1880 776 1948 728 c 1,10,11
 2232 648 2232 648 2464 648 c 0,12,13
 2576 648 2576 648 2800 692 c 0,14,15
 3024 732 3024 732 3172 732 c 9,0,1
3232 1424 m 1,16,-1
 3232 1464 l 2,17,18
 3232 1544 3232 1544 3208 1604 c 0,19,20
 3180 1664 3180 1664 3112 1744 c 128,-1,21
 3044 1824 3044 1824 3028 1848 c 1,22,23
 2784 1896 2784 1896 2484 1896 c 2,24,-1
 2248 1896 l 2,25,26
 2152 1896 2152 1896 2084 1876 c 128,-1,27
 2016 1856 2016 1856 1912 1808 c 0,28,29
 1912 1808 1912 1808 1884 1792 c 0,30,31
 1860 1784 1860 1784 1844 1776 c 128,-1,32
 1828 1768 1828 1768 1800 1752 c 0,33,34
 1768 1736 1768 1736 1752 1716 c 0,35,36
 1736 1700 1736 1700 1716 1676 c 0,37,38
 1696 1648 1696 1648 1688 1624 c 0,39,40
 1680 1596 1680 1596 1676 1568 c 0,41,42
 1676 1540 1676 1540 1692 1480 c 128,-1,43
 1708 1420 1708 1420 1708 1380 c 1,44,45
 1904 1376 1904 1376 2292 1408 c 128,-1,46
 2680 1440 2680 1440 2880 1440 c 128,-1,47
 3080 1440 3080 1440 3232 1424 c 1,16,-1
3192 -48 m 0,48,49
 3192 -8 3192 -8 3224 8 c 0,50,51
 3252 24 3252 24 3288 16 c 0,52,53
 3324 12 3324 12 3352 24 c 0,54,55
 3384 32 3384 32 3384 60 c 0,56,57
 3384 136 3384 136 3360 200 c 0,58,59
 3340 264 3340 264 3304 340 c 0,60,61
 3264 416 3264 416 3248 472 c 1,62,63
 3200 488 3200 488 3144 488 c 0,64,65
 3096 488 3096 488 2888 464 c 0,66,67
 2680 432 2680 432 2496 432 c 0,68,69
 2200 432 2200 432 1876 488 c 0,70,71
 1760 508 1760 508 1600 648 c 1,72,73
 1536 752 1536 752 1508 880 c 0,74,75
 1484 1008 1484 1008 1484 1116 c 0,76,77
 1480 1224 1480 1224 1472 1352 c 0,78,79
 1456 1480 1456 1480 1424 1572 c 1,80,81
 1380 1580 1380 1580 1032 1640 c 0,82,83
 680 1700 680 1700 392 1776 c 0,84,85
 360 1784 360 1784 340 1808 c 0,86,87
 316 1832 316 1832 316 1860 c 0,88,89
 316 1872 316 1872 328 1888 c 0,90,91
 384 1932 384 1932 456 2004 c 128,-1,92
 528 2076 528 2076 588 2124 c 0,93,94
 648 2176 648 2176 728 2216 c 0,95,96
 884 2288 884 2288 976 2288 c 0,97,98
 1060 2288 1060 2288 1128 2256 c 128,-1,99
 1196 2224 1196 2224 1232 2176 c 0,100,101
 1268 2132 1268 2132 1316 2064 c 0,102,103
 1360 2000 1360 2000 1400 1968 c 0,104,105
 1416 1956 1416 1956 1440 1928 c 128,-1,106
 1464 1900 1464 1900 1484 1884 c 0,107,108
 1504 1872 1504 1872 1536 1872 c 0,109,110
 1564 1872 1564 1872 1588 1912 c 128,-1,111
 1612 1952 1612 1952 1624 1960 c 0,112,113
 1648 1984 1648 1984 1744 2072 c 0,114,115
 1836 2160 1836 2160 1892 2212 c 128,-1,116
 1948 2264 1948 2264 2032 2312 c 0,117,118
 2112 2360 2112 2360 2168 2360 c 2,119,-1
 2232 2360 l 2,120,121
 2304 2360 2304 2360 2368 2340 c 1,122,123
 2436 2304 2436 2304 2516 2248 c 128,-1,124
 2596 2192 2596 2192 2648 2152 c 128,-1,125
 2700 2112 2700 2112 2772 2080 c 128,-1,126
 2844 2048 2844 2048 2916 2048 c 0,127,128
 2992 2048 2992 2048 3072 2076 c 1,129,-1
 3208 2076 l 2,130,131
 3432 2076 3432 2076 3608 2052 c 0,132,133
 3624 2052 3624 2052 3692 2044 c 0,134,135
 3756 2036 3756 2036 3780 2032 c 0,136,137
 3804 2024 3804 2024 3844 2008 c 128,-1,138
 3884 1992 3884 1992 3916 1960 c 0,139,140
 3956 1920 3956 1920 3956 1872 c 0,141,142
 3956 1800 3956 1800 3916 1736 c 128,-1,143
 3876 1672 3876 1672 3800 1600 c 2,144,-1
 3724 1528 l 2,145,146
 3672 1480 3672 1480 3580 1452 c 0,147,148
 3488 1420 3488 1420 3416 1380 c 1,149,150
 3416 1376 3416 1376 3416 664 c 1,151,152
 3448 488 3448 488 3540 284 c 128,-1,153
 3632 80 3632 80 3672 40 c 1,154,155
 3672 24 3672 24 3680 -8 c 128,-1,156
 3688 -40 3688 -40 3688 -52 c 0,157,158
 3688 -72 3688 -72 3672 -80 c 0,159,160
 3576 -104 3576 -104 3488 -100 c 0,161,162
 3416 -96 3416 -96 3208 -64 c 0,163,164
 3192 -64 3192 -64 3192 -48 c 0,48,49
EndSplineSet
Validated: 33
EndChar

StartChar: uni0808
Encoding: 2056 2056 152
Width: 3304
VWidth: 2768
Flags: W
HStem: -40 388<1644 2168> 1784 412<840 1652> 1988 40<2784 2852>
VStem: 376 464<1392 1800>
LayerCount: 2
Fore
SplineSet
376 1972 m 0,0,1
 376 2068 376 2068 464 2112 c 0,2,3
 632 2196 632 2196 840 2196 c 0,4,5
 908 2196 908 2196 1052 2184 c 0,6,7
 1200 2168 1200 2168 1280 2168 c 0,8,9
 1408 2168 1408 2168 1488 2192 c 0,10,11
 1568 2216 1568 2216 1596 2240 c 0,12,13
 1620 2264 1620 2264 1656 2288 c 0,14,15
 1688 2312 1688 2312 1736 2308 c 0,16,17
 1800 2312 1800 2312 1900 2232 c 0,18,19
 2000 2152 2000 2152 2000 2056 c 0,20,21
 2000 2056 2000 2056 2000 2048 c 0,22,23
 2000 2040 2000 2040 2000 2040 c 0,24,25
 2000 1976 2000 1976 1924 1932 c 0,26,27
 1848 1892 1848 1892 1720 1876 c 0,28,29
 1588 1860 1588 1860 1444 1852 c 0,30,31
 1304 1840 1304 1840 1128 1824 c 0,32,33
 952 1808 952 1808 840 1784 c 1,34,35
 840 1496 840 1496 936 1232 c 0,36,37
 1036 968 1036 968 1204 772 c 0,38,39
 1368 580 1368 580 1592 464 c 0,40,41
 1816 348 1816 348 2048 348 c 0,42,43
 2112 348 2112 348 2144 352 c 1,44,45
 2320 600 2320 600 2424 888 c 0,46,47
 2528 1176 2528 1176 2528 1408 c 0,48,49
 2528 1488 2528 1488 2512 1560 c 1,50,51
 2184 1512 2184 1512 1824 1288 c 1,52,53
 1876 1176 1876 1176 1940 1072 c 0,54,55
 2008 968 2008 968 2040 908 c 0,56,57
 2072 848 2072 848 2072 792 c 0,58,59
 2072 712 2072 712 2004 716 c 0,60,61
 1996 720 1996 720 1972 720 c 0,62,63
 1952 720 1952 720 1944 720 c 0,64,65
 1816 732 1816 732 1720 780 c 0,66,67
 1624 828 1624 828 1544 916 c 0,68,69
 1468 1004 1468 1004 1420 1084 c 0,70,71
 1368 1164 1368 1164 1300 1292 c 0,72,73
 1280 1336 1280 1336 1264 1360 c 1,74,75
 1536 1576 1536 1576 1888 1728 c 0,76,77
 2248 1880 2248 1880 2752 2024 c 0,78,79
 2768 2028 2768 2028 2788 2028 c 0,80,81
 2876 2028 2876 2028 2956 1952 c 0,82,83
 3040 1876 3040 1876 3080 1784 c 1,84,85
 2912 1192 2912 1192 2744 816 c 0,86,87
 2576 440 2576 440 2288 104 c 1,88,89
 2096 -40 2096 -40 1904 -40 c 0,90,91
 1720 -40 1720 -40 1432 128 c 1,92,93
 376 904 376 904 376 1972 c 0,0,1
EndSplineSet
Validated: 33
EndChar

StartChar: uni0809
Encoding: 2057 2057 153
Width: 3772
VWidth: 2768
Flags: W
HStem: -24 40<2352 2432> 792 128<480 580> 1540 216<2324 2632> 1808 340<1268 1840>
VStem: 1248 264<576 760>
LayerCount: 2
Fore
SplineSet
552 792 m 1,0,1
 512 784 512 784 464 788 c 0,2,3
 304 792 304 792 212 840 c 0,4,5
 172 864 172 864 148 900 c 0,6,7
 124 944 124 944 124 984 c 128,-1,8
 124 1024 124 1024 144 1040 c 0,9,10
 368 1288 368 1288 472 1396 c 128,-1,11
 576 1504 576 1504 780 1692 c 128,-1,12
 984 1880 984 1880 1188 2044 c 0,13,14
 1248 2092 1248 2092 1344 2120 c 128,-1,15
 1440 2148 1440 2148 1528 2148 c 0,16,17
 1568 2148 1568 2148 1640 2132 c 0,18,19
 1776 2100 1776 2100 1840 2076 c 0,20,21
 1908 2052 1908 2052 1940 2028 c 128,-1,22
 1972 2004 1972 2004 2088 1944 c 0,23,24
 2208 1884 2208 1884 2404 1808 c 0,25,26
 2544 1756 2544 1756 2840 1756 c 0,27,28
 2892 1756 2892 1756 2920 1764 c 1,29,30
 2968 1796 2968 1796 3000 1868 c 128,-1,31
 3032 1940 3032 1940 3032 2004 c 1,32,33
 3148 2080 3148 2080 3296 2080 c 1,34,35
 3392 2068 3392 2068 3504 1964 c 128,-1,36
 3616 1860 3616 1860 3616 1728 c 0,37,38
 3616 1584 3616 1584 3552 1480 c 128,-1,39
 3488 1376 3488 1376 3360 1280 c 0,40,41
 3320 1248 3320 1248 3260 1220 c 128,-1,42
 3200 1192 3200 1192 3172 1168 c 0,43,44
 3144 1148 3144 1148 3140 1112 c 1,45,46
 2752 464 2752 464 2384 144 c 1,47,48
 2392 128 2392 128 2408 104 c 128,-1,49
 2424 80 2424 80 2436 64 c 0,50,51
 2448 44 2448 44 2448 16 c 0,52,53
 2448 -24 2448 -24 2420 -24 c 0,54,55
 2304 -24 2304 -24 2232 -8 c 128,-1,56
 2160 8 2160 8 2080 64 c 0,57,58
 2056 80 2056 80 2056 112 c 0,59,60
 2056 184 2056 184 2072 216 c 1,61,62
 2136 280 2136 280 2260 400 c 128,-1,63
 2384 520 2384 520 2444 580 c 128,-1,64
 2504 640 2504 640 2584 752 c 128,-1,65
 2664 864 2664 864 2728 992 c 0,66,67
 2728 992 2728 992 2776 1088 c 128,-1,68
 2824 1184 2824 1184 2824 1248 c 0,69,70
 2824 1304 2824 1304 2796 1352 c 1,71,72
 2740 1376 2740 1376 2668 1432 c 0,73,74
 2596 1484 2596 1484 2532 1512 c 128,-1,75
 2468 1540 2468 1540 2376 1540 c 0,76,77
 2288 1540 2288 1540 2224 1484 c 0,78,79
 2080 1356 2080 1356 1904 1148 c 128,-1,80
 1728 940 1728 940 1620 792 c 2,81,82
 1616 792 1616 792 1512 648 c 1,83,84
 1512 632 1512 632 1536 620 c 0,85,86
 1556 608 1556 608 1576 596 c 0,87,88
 1600 584 1600 584 1620 552 c 128,-1,89
 1640 520 1640 520 1640 480 c 128,-1,90
 1640 440 1640 440 1612 440 c 0,91,92
 1592 440 1592 440 1556 440 c 0,93,94
 1520 432 1520 432 1504 432 c 0,95,96
 1400 432 1400 432 1328 480 c 0,97,98
 1248 524 1248 524 1248 596 c 0,99,100
 1248 672 1248 672 1308 776 c 128,-1,101
 1368 880 1368 880 1432 952 c 128,-1,102
 1496 1024 1496 1024 1608 1144 c 0,103,104
 1624 1160 1624 1160 1656 1192 c 128,-1,105
 1688 1224 1688 1224 1700 1240 c 0,106,107
 1716 1256 1716 1256 1736 1284 c 0,108,109
 1760 1312 1760 1312 1780 1336 c 0,110,111
 1800 1368 1800 1368 1820 1400 c 0,112,113
 1888 1512 1888 1512 1888 1608 c 0,114,115
 1888 1664 1888 1664 1856 1704 c 0,116,117
 1780 1808 1780 1808 1592 1808 c 0,118,119
 1464 1808 1464 1808 1308 1744 c 1,120,121
 1052 1600 1052 1600 868 1424 c 128,-1,122
 684 1248 684 1248 476 976 c 1,123,124
 524 932 524 932 584 920 c 0,125,126
 588 912 588 912 588 904 c 0,127,128
 588 880 588 880 576 840 c 0,129,130
 560 800 560 800 552 792 c 1,0,1
EndSplineSet
Validated: 1
EndChar

StartChar: uni080A
Encoding: 2058 2058 154
Width: 3684
VWidth: 2768
Flags: W
HStem: -176 400<2076 2336> 272 736<880 1328> 1652 228<1480 2440>
LayerCount: 2
Fore
SplineSet
568 272 m 0,0,1
 464 272 464 272 428 304 c 0,2,3
 392 344 392 344 392 408 c 0,4,5
 392 416 392 416 392 436 c 0,6,7
 392 456 392 456 396 468 c 0,8,9
 396 492 396 492 436 504 c 0,10,11
 476 516 476 516 488 528 c 0,12,13
 528 560 528 560 616 664 c 0,14,15
 708 768 708 768 772 832 c 0,16,17
 836 896 836 896 936 948 c 0,18,19
 1036 1004 1036 1004 1132 1004 c 0,20,21
 1224 1004 1224 1004 1284 988 c 0,22,23
 1344 972 1344 972 1408 928 c 0,24,25
 1552 824 1552 824 1668 712 c 0,26,27
 1788 600 1788 600 1924 460 c 0,28,29
 2064 320 2064 320 2168 224 c 1,30,-1
 2296 224 l 1,31,32
 2512 720 2512 720 2880 1352 c 1,33,-1
 2952 1484 l 1,34,-1
 2712 1540 l 1,35,36
 2160 1652 2160 1652 1536 1652 c 0,37,38
 1168 1652 1168 1652 852 1608 c 1,39,-1
 584 1564 l 2,40,41
 576 1560 576 1560 568 1560 c 0,42,43
 512 1560 512 1560 452 1608 c 0,44,45
 396 1652 396 1652 396 1708 c 2,46,-1
 396 1720 l 1,47,48
 428 1776 428 1776 480 1856 c 0,49,50
 528 1940 528 1940 568 2004 c 0,51,52
 608 2068 608 2068 660 2136 c 0,53,54
 676 2156 676 2156 704 2208 c 0,55,56
 732 2260 732 2260 760 2296 c 0,57,58
 784 2332 784 2332 828 2372 c 0,59,60
 868 2412 868 2412 928 2432 c 0,61,62
 992 2456 992 2456 1064 2456 c 0,63,64
 1168 2456 1168 2456 1280 2396 c 0,65,66
 1336 2376 1336 2376 1376 2304 c 0,67,68
 1420 2236 1420 2236 1432 2184 c 0,69,70
 1448 2136 1448 2136 1448 2128 c 0,71,72
 1448 2120 1448 2120 1444 2096 c 0,73,74
 1440 2072 1440 2072 1440 2060 c 0,75,76
 1440 2036 1440 2036 1444 2020 c 0,77,78
 1448 2000 1448 2000 1448 1976 c 0,79,80
 1452 1952 1452 1952 1456 1936 c 1,81,82
 1896 1880 1896 1880 2384 1880 c 1,83,84
 2432 1904 2432 1904 2528 1960 c 0,85,86
 2620 2016 2620 2016 2680 2044 c 0,87,88
 2740 2076 2740 2076 2836 2100 c 0,89,90
 2932 2128 2932 2128 3040 2128 c 0,91,92
 3080 2128 3080 2128 3160 2124 c 0,93,94
 3240 2120 3240 2120 3292 2120 c 1,95,96
 3412 2088 3412 2088 3500 2000 c 0,97,98
 3592 1920 3592 1920 3592 1840 c 0,99,100
 3592 1804 3592 1804 3568 1772 c 2,101,-1
 3440 1580 l 2,102,103
 3408 1532 3408 1532 3300 1372 c 0,104,105
 3192 1208 3192 1208 3144 1128 c 0,106,107
 3092 1048 3092 1048 2996 896 c 0,108,109
 2896 744 2896 744 2840 640 c 0,110,111
 2780 536 2780 536 2712 400 c 0,112,113
 2640 264 2640 264 2592 148 c 0,114,115
 2584 116 2584 116 2584 68 c 0,116,117
 2580 16 2580 16 2572 -16 c 0,118,119
 2560 -52 2560 -52 2544 -88 c 0,120,121
 2532 -112 2532 -112 2516 -124 c 0,122,123
 2504 -136 2504 -136 2472 -152 c 0,124,125
 2440 -164 2440 -164 2424 -176 c 1,126,127
 2312 -176 2312 -176 2180 -136 c 0,128,129
 2044 -96 2044 -96 1948 -52 c 0,130,131
 1852 -8 1852 -8 1708 64 c 1,132,133
 1640 80 1640 80 1432 148 c 0,134,135
 1220 216 1220 216 1064 256 c 0,136,137
 908 296 908 296 824 296 c 0,138,139
 776 296 776 296 696 284 c 0,140,141
 608 272 608 272 568 272 c 0,0,1
EndSplineSet
Validated: 1
EndChar

StartChar: uni080B
Encoding: 2059 2059 155
Width: 3628
VWidth: 2768
Flags: W
HStem: -168 920<2828 3156> 2344 396<2520 2696>
VStem: 2920 512<1868 2168>
LayerCount: 2
Fore
SplineSet
376 2104 m 1,0,-1
 1544 2104 l 2,1,2
 1632 2104 1632 2104 1748 2044 c 0,3,4
 1864 1988 1864 1988 1972 1896 c 128,-1,5
 2080 1804 2080 1804 2156 1672 c 0,6,7
 2232 1536 2232 1536 2232 1400 c 2,8,-1
 2232 696 l 2,9,10
 2232 588 2232 588 2176 480 c 0,11,12
 2124 372 2124 372 2048 288 c 0,13,14
 1968 204 1968 204 1876 136 c 128,-1,15
 1784 68 1784 68 1696 36 c 0,16,17
 1608 0 1608 0 1552 0 c 2,18,-1
 780 0 l 1,19,20
 968 272 968 272 968 584 c 0,21,22
 968 600 968 600 964 640 c 128,-1,23
 960 680 960 680 960 704 c 1,24,-1
 1712 704 l 1,25,26
 1840 720 1840 720 1928 808 c 0,27,28
 2016 904 2016 904 2016 1048 c 0,29,30
 2016 1312 2016 1312 1712 1400 c 1,31,-1
 224 1400 l 1,32,33
 288 1580 288 1580 288 1720 c 0,34,35
 288 1824 288 1824 268 1968 c 128,-1,36
 248 2112 248 2112 208 2224 c 2,37,-1
 -104 3216 l 1,38,-1
 -468 3216 l 1,39,40
 -472 3216 -472 3216 -560 2972 c 1,41,42
 -544 3072 -544 3072 -524 3304 c 0,43,44
 -512 3536 -512 3536 -512 3660 c 128,-1,45
 -512 3784 -512 3784 -600 4184 c 1,46,47
 -600 4176 -600 4176 -576 4136 c 128,-1,48
 -552 4096 -552 4096 -540 4080 c 128,-1,49
 -528 4064 -528 4064 -504 4028 c 0,50,51
 -476 3996 -476 3996 -452 3976 c 0,52,53
 -424 3960 -424 3960 -392 3944 c 128,-1,54
 -360 3928 -360 3928 -320 3932 c 1,55,56
 -272 3968 -272 3968 -272 4040 c 0,57,58
 -272 4076 -272 4076 -284 4136 c 0,59,60
 -296 4192 -296 4192 -320 4300 c 128,-1,61
 -344 4408 -344 4408 -360 4504 c 1,62,63
 -336 4508 -336 4508 -328 4508 c 0,64,65
 -296 4508 -296 4508 -272 4488 c 1,66,67
 -152 4136 -152 4136 -152 3924 c 1,68,69
 56 3924 56 3924 104 3752 c 1,70,71
 224 3072 224 3072 244 2936 c 0,72,73
 268 2736 268 2736 312 2528 c 0,74,75
 352 2320 352 2320 376 2104 c 1,0,-1
EndSplineSet
Validated: 5
EndChar

StartChar: uni080C
Encoding: 2060 2060 156
Width: 3772
VWidth: 2768
Flags: W
HStem: -156 320<1992 2344> 348 208<284 560> 1628 116<2604 2736> 1628 272<1456 1696>
LayerCount: 2
Fore
SplineSet
2448 1628 m 2,0,-1
 1652 1628 l 2,1,2
 1260 1628 1260 1628 1068 1616 c 0,3,4
 876 1604 876 1604 704 1564 c 1,5,6
 624 1560 624 1560 520 1512 c 0,7,8
 416 1464 416 1464 404 1464 c 0,9,10
 392 1464 392 1464 392 1472 c 0,11,12
 392 1484 392 1484 408 1512 c 0,13,14
 460 1588 460 1588 536 1692 c 0,15,16
 608 1792 608 1792 672 1880 c 0,17,18
 728 1968 728 1968 792 2068 c 0,19,20
 816 2104 816 2104 864 2192 c 0,21,22
 912 2280 912 2280 936 2320 c 0,23,24
 964 2360 964 2360 1016 2420 c 0,25,26
 1064 2472 1064 2472 1124 2496 c 0,27,28
 1184 2520 1184 2520 1256 2520 c 0,29,30
 1376 2520 1376 2520 1476 2424 c 0,31,32
 1576 2328 1576 2328 1576 2264 c 0,33,34
 1576 2224 1576 2224 1528 2144 c 0,35,36
 1480 2064 1480 2064 1472 2024 c 0,37,38
 1456 1976 1456 1976 1456 1952 c 0,39,40
 1456 1932 1456 1932 1480 1916 c 0,41,42
 1504 1900 1504 1900 1528 1900 c 0,43,44
 1584 1900 1584 1900 1648 1948 c 0,45,46
 1712 1996 1712 1996 1808 2088 c 0,47,48
 1900 2180 1900 2180 1952 2224 c 0,49,50
 2060 2308 2060 2308 2140 2348 c 0,51,52
 2220 2388 2220 2388 2320 2388 c 0,53,54
 2424 2388 2424 2388 2504 2324 c 0,55,56
 2584 2260 2584 2260 2660 2140 c 0,57,58
 2680 2112 2680 2112 2680 2072 c 0,59,60
 2680 1968 2680 1968 2640 1920 c 0,61,62
 2592 1856 2592 1856 2592 1828 c 0,63,64
 2592 1812 2592 1812 2624 1776 c 0,65,66
 2656 1744 2656 1744 2704 1744 c 0,67,68
 2768 1744 2768 1744 2832 1820 c 0,69,70
 2896 1896 2896 1896 2928 1912 c 0,71,72
 2968 1932 2968 1932 3036 1972 c 0,73,74
 3104 2012 3104 2012 3144 2036 c 0,75,76
 3180 2056 3180 2056 3236 2072 c 0,77,78
 3292 2088 3292 2088 3348 2092 c 0,79,80
 3452 2088 3452 2088 3560 2000 c 0,81,82
 3596 1960 3596 1960 3624 1904 c 0,83,84
 3648 1844 3648 1844 3648 1812 c 2,85,-1
 3648 1804 l 1,86,87
 3628 1708 3628 1708 3612 1656 c 0,88,89
 3596 1600 3596 1600 3548 1520 c 0,90,91
 3504 1440 3504 1440 3424 1392 c 0,92,93
 3268 1264 3268 1264 3096 1012 c 0,94,95
 2924 760 2924 760 2748 456 c 0,96,97
 2572 152 2572 152 2472 24 c 0,98,99
 2448 0 2448 0 2420 -48 c 0,100,101
 2392 -96 2392 -96 2364 -128 c 0,102,103
 2336 -156 2336 -156 2292 -156 c 0,104,105
 2180 -156 2180 -156 2028 -84 c 0,106,107
 1880 -12 1880 -12 1832 0 c 0,108,109
 1688 44 1688 44 1400 144 c 0,110,111
 1112 244 1112 244 936 296 c 0,112,113
 760 348 760 348 672 348 c 0,114,115
 632 348 632 348 568 340 c 0,116,117
 500 332 500 332 468 332 c 0,118,119
 416 332 416 332 376 360 c 0,120,121
 336 388 336 388 280 436 c 0,122,123
 228 488 228 488 192 512 c 1,124,-1
 192 520 l 2,125,126
 192 544 192 544 232 556 c 0,127,128
 272 568 272 568 296 568 c 0,129,130
 320 568 320 568 340 572 c 0,131,132
 360 572 360 572 392 564 c 0,133,134
 424 552 424 552 440 552 c 0,135,136
 464 552 464 552 488 568 c 0,137,138
 552 624 552 624 680 752 c 0,139,140
 808 876 808 876 904 944 c 0,141,142
 1000 1016 1000 1016 1128 1072 c 0,143,144
 1152 1080 1152 1080 1176 1084 c 0,145,146
 1192 1088 1192 1088 1208 1080 c 0,147,148
 1224 1072 1224 1072 1248 1056 c 0,149,150
 1268 1040 1268 1040 1280 1032 c 0,151,152
 1292 1024 1292 1024 1316 1000 c 0,153,154
 1344 976 1344 976 1352 968 c 0,155,156
 1456 872 1456 872 1576 720 c 0,157,158
 1700 568 1700 568 1788 452 c 0,159,160
 1872 340 1872 340 1964 252 c 0,161,162
 2056 164 2056 164 2120 164 c 0,163,164
 2160 164 2160 164 2184 192 c 0,165,166
 2360 392 2360 392 2468 556 c 0,167,168
 2572 720 2572 720 2724 1008 c 0,169,170
 2748 1048 2748 1048 2800 1132 c 0,171,172
 2856 1212 2856 1212 2888 1276 c 0,173,174
 2920 1340 2920 1340 2920 1388 c 0,175,176
 2920 1468 2920 1468 2788 1548 c 0,177,178
 2656 1628 2656 1628 2448 1628 c 2,0,-1
EndSplineSet
Validated: 1
EndChar

StartChar: uni080D
Encoding: 2061 2061 157
Width: 2832
VWidth: 2768
Flags: W
HStem: -132 364<1564 1920>
VStem: 2184 360<1308 1528>
LayerCount: 2
Fore
SplineSet
-32 576 m 0,0,1
 -32 624 -32 624 0 624 c 0,2,3
 8 624 8 624 32 620 c 0,4,5
 56 616 56 616 68 616 c 0,6,7
 108 616 108 616 156 668 c 0,8,9
 208 720 208 720 272 816 c 0,10,11
 336 912 336 912 384 968 c 0,12,13
 512 1104 512 1104 688 1104 c 0,14,15
 784 1104 784 1104 848 1076 c 0,16,17
 912 1048 912 1048 984 976 c 0,18,19
 1072 884 1072 884 1152 756 c 0,20,21
 1236 628 1236 628 1288 544 c 0,22,23
 1344 456 1344 456 1424 372 c 0,24,25
 1504 288 1504 288 1600 248 c 0,26,27
 1612 248 1612 248 1640 240 c 0,28,29
 1664 232 1664 232 1680 232 c 0,30,31
 1744 232 1744 232 1772 292 c 0,32,33
 1800 352 1800 352 1816 456 c 0,34,35
 1824 564 1824 564 1840 604 c 0,36,37
 1888 740 1888 740 1936 856 c 0,38,39
 1984 976 1984 976 2048 1120 c 0,40,41
 2112 1264 2112 1264 2152 1368 c 0,42,43
 2152 1376 2152 1376 2168 1400 c 0,44,45
 2184 1424 2184 1424 2184 1444 c 0,46,47
 2184 1488 2184 1488 2124 1528 c 1,48,49
 2052 1544 2052 1544 1896 1568 c 0,50,51
 1740 1592 1740 1592 1632 1608 c 0,52,53
 1600 1616 1600 1616 1364 1632 c 0,54,55
 1132 1648 1132 1648 976 1676 c 0,56,57
 824 1712 824 1712 824 1760 c 0,58,59
 824 1832 824 1832 848 1864 c 0,60,61
 992 2000 992 2000 1120 2168 c 0,62,63
 1248 2336 1248 2336 1408 2596 c 0,64,65
 1572 2856 1572 2856 1632 2944 c 1,66,67
 1672 2984 1672 2984 1736 2980 c 0,68,69
 1788 2976 1788 2976 1884 2904 c 0,70,71
 1980 2832 1980 2832 2016 2776 c 1,72,-1
 1564 2048 l 2,73,74
 1552 2016 1552 2016 1552 1992 c 0,75,76
 1552 1944 1552 1944 1588 1912 c 0,77,78
 1620 1880 1620 1880 1664 1864 c 2,79,-1
 2384 1752 l 1,80,81
 2544 1692 2544 1692 2544 1492 c 0,82,83
 2544 1456 2544 1456 2536 1416 c 1,84,85
 2192 580 2192 580 2048 -104 c 1,86,87
 1976 -132 1976 -132 1892 -132 c 0,88,89
 1824 -132 1824 -132 1744 -112 c 1,90,-1
 1216 88 l 2,91,92
 1140 120 1140 120 1052 164 c 0,93,94
 960 212 960 212 868 248 c 0,95,96
 776 284 776 284 640 324 c 0,97,98
 588 328 588 328 480 344 c 0,99,100
 372 356 372 356 296 372 c 0,101,102
 216 384 216 384 136 408 c 0,103,104
 56 432 56 432 12 472 c 0,105,106
 -32 512 -32 512 -32 576 c 0,0,1
EndSplineSet
Validated: 1
EndChar

